<svg width="221" height="221" viewBox="0 0 221 221" fill="none" xmlns="http://www.w3.org/2000/svg">
<path d="M116.738 101.97C116.295 101.97 115.865 102.039 115.445 102.177C115.022 102.311 114.634 102.507 114.272 102.761C113.911 103.016 113.598 103.322 113.334 103.673C113.069 104.027 112.859 104.412 112.714 104.828H109.33C109.182 104.409 108.979 104.024 108.711 103.669C108.446 103.318 108.133 103.012 107.772 102.754C107.411 102.5 107.022 102.304 106.599 102.17C106.18 102.036 105.746 101.967 105.306 101.967C104.862 101.967 104.429 102.036 104.009 102.17C103.586 102.304 103.198 102.5 102.837 102.754C102.475 103.012 102.162 103.318 101.898 103.669C101.633 104.024 101.426 104.409 101.282 104.828H97.8976C97.7497 104.409 97.5468 104.024 97.2785 103.669C97.0137 103.318 96.7007 103.012 96.3396 102.754C95.9785 102.5 95.5898 102.304 95.1668 102.17C94.7472 102.036 94.3138 101.967 93.8736 101.967C93.4299 101.967 92.9965 102.036 92.5769 102.17C92.1539 102.304 91.7652 102.5 91.4041 102.754C91.043 103.012 90.73 103.318 90.4652 103.669C90.2003 104.024 89.994 104.409 89.8495 104.828H86.7266V107.686H89.8495C89.994 108.103 90.2003 108.488 90.4652 108.842C90.73 109.196 91.043 109.502 91.4041 109.757C91.7652 110.015 92.1539 110.211 92.5769 110.345C92.9965 110.479 93.4299 110.545 93.8736 110.545C94.3138 110.545 94.7472 110.479 95.1668 110.345C95.5898 110.211 95.9785 110.015 96.3396 109.757C96.7007 109.502 97.0137 109.196 97.2785 108.842C97.5468 108.488 97.7497 108.103 97.8976 107.686H101.282C101.426 108.103 101.633 108.488 101.898 108.842C102.162 109.196 102.475 109.502 102.837 109.757C103.198 110.015 103.586 110.211 104.009 110.345C104.429 110.479 104.862 110.545 105.306 110.545C105.746 110.545 106.18 110.479 106.599 110.345C107.022 110.211 107.411 110.015 107.772 109.757C108.133 109.502 108.446 109.196 108.711 108.842C108.979 108.488 109.182 108.103 109.33 107.686H112.714C112.859 108.103 113.065 108.488 113.33 108.842C113.595 109.196 113.908 109.502 114.269 109.757C114.63 110.015 115.022 110.211 115.442 110.345C115.865 110.479 116.295 110.545 116.738 110.545C117.179 110.545 117.612 110.479 118.032 110.345C118.455 110.211 118.847 110.015 119.205 109.757C119.566 109.502 119.879 109.196 120.143 108.842C120.412 108.488 120.615 108.103 120.763 107.686H125.313V104.828H120.763C120.615 104.412 120.408 104.027 120.14 103.673C119.875 103.322 119.562 103.016 119.201 102.761C118.843 102.507 118.451 102.311 118.032 102.177C117.612 102.039 117.179 101.97 116.738 101.97ZM93.8736 107.686C93.6844 107.686 93.4987 107.649 93.3267 107.576C93.1513 107.504 92.9965 107.401 92.8624 107.267C92.7283 107.133 92.6251 106.978 92.5529 106.803C92.4806 106.627 92.4428 106.445 92.4428 106.256C92.4428 106.067 92.4806 105.884 92.5529 105.709C92.6251 105.533 92.7283 105.382 92.8624 105.248C92.9965 105.114 93.1513 105.011 93.3267 104.935C93.4987 104.863 93.6844 104.828 93.8736 104.828C94.0627 104.828 94.245 104.863 94.4204 104.935C94.5958 105.011 94.7472 105.114 94.8813 105.248C95.0154 105.382 95.1186 105.533 95.1908 105.709C95.2665 105.884 95.3009 106.067 95.3009 106.256C95.3009 106.445 95.2665 106.627 95.1908 106.803C95.1186 106.978 95.0154 107.133 94.8813 107.267C94.7472 107.401 94.5958 107.504 94.4204 107.576C94.245 107.649 94.0627 107.686 93.8736 107.686ZM105.306 107.686C105.117 107.686 104.935 107.649 104.759 107.576C104.584 107.504 104.429 107.401 104.295 107.267C104.161 107.133 104.058 106.978 103.985 106.803C103.913 106.627 103.875 106.445 103.875 106.256C103.875 106.067 103.913 105.884 103.985 105.709C104.058 105.533 104.161 105.382 104.295 105.248C104.429 105.114 104.584 105.011 104.759 104.935C104.935 104.863 105.117 104.828 105.306 104.828C105.495 104.828 105.677 104.863 105.853 104.935C106.028 105.011 106.18 105.114 106.314 105.248C106.448 105.382 106.551 105.533 106.627 105.709C106.699 105.884 106.733 106.067 106.733 106.256C106.733 106.445 106.699 106.627 106.627 106.803C106.551 106.978 106.448 107.133 106.314 107.267C106.18 107.401 106.028 107.504 105.853 107.576C105.677 107.649 105.495 107.686 105.306 107.686ZM116.738 107.686C116.549 107.686 116.367 107.649 116.192 107.576C116.016 107.504 115.861 107.401 115.727 107.267C115.593 107.133 115.49 106.978 115.418 106.803C115.346 106.627 115.308 106.445 115.308 106.256C115.308 106.067 115.346 105.884 115.418 105.709C115.49 105.533 115.593 105.382 115.727 105.248C115.861 105.114 116.016 105.011 116.192 104.935C116.367 104.863 116.549 104.828 116.738 104.828C116.928 104.828 117.11 104.863 117.285 104.935C117.461 105.011 117.616 105.114 117.746 105.248C117.88 105.382 117.984 105.533 118.059 105.709C118.131 105.884 118.166 106.067 118.166 106.256C118.166 106.445 118.131 106.627 118.059 106.803C117.984 106.978 117.88 107.133 117.746 107.267C117.616 107.401 117.461 107.504 117.285 107.576C117.11 107.649 116.928 107.686 116.738 107.686Z" fill="white"/>
<path d="M96.7319 111.972H99.59V114.83H96.7319V111.972Z" fill="white"/>
<path d="M108.164 111.972H111.022V114.83H108.164V111.972Z" fill="white"/>
<path d="M143.889 67.6729V56.2405C143.889 56.0513 143.855 55.869 143.782 55.6936C143.71 55.5182 143.607 55.3634 143.473 55.2293C143.339 55.0952 143.184 54.992 143.009 54.9198C142.833 54.8475 142.651 54.8097 142.462 54.8097C141.667 54.8338 140.928 54.6481 140.24 54.2456C139.7 53.9602 139.136 53.7469 138.541 53.599C137.949 53.4546 137.347 53.3789 136.739 53.3789C136.13 53.3789 135.528 53.4546 134.936 53.599C134.345 53.7469 133.777 53.9602 133.237 54.2456C132.556 54.6446 131.82 54.8338 131.029 54.8097C130.84 54.8097 130.658 54.8475 130.482 54.9198C130.307 54.992 130.152 55.0952 130.018 55.2293C129.884 55.3634 129.781 55.5182 129.709 55.6936C129.636 55.869 129.599 56.0513 129.599 56.2405V63.384C129.599 63.5732 129.636 63.7555 129.709 63.9309C129.781 64.1063 129.884 64.2611 130.018 64.3952C130.152 64.5294 130.307 64.6325 130.482 64.7048C130.658 64.777 130.84 64.8148 131.029 64.8148C132.271 64.8355 133.433 64.55 134.52 63.9481C135.212 63.5732 135.954 63.384 136.742 63.384C137.53 63.384 138.269 63.5732 138.964 63.9481C139.617 64.2955 140.305 64.5397 141.031 64.6772V67.6729H128.171V70.5311H131.497C132.151 72.3814 132.47 74.2868 132.457 76.2473C132.484 78.5035 132.054 80.6737 131.17 82.7546C131.115 82.8612 131.077 82.9781 131.05 83.0951C131.026 83.2154 131.016 83.3358 131.022 83.4596C131.029 83.58 131.05 83.7004 131.084 83.8173C131.122 83.9343 131.17 84.0443 131.236 84.1475C131.301 84.2507 131.377 84.3436 131.466 84.4295C131.556 84.5121 131.652 84.5843 131.758 84.6428C131.865 84.7012 131.979 84.746 132.096 84.7769C132.216 84.8079 132.336 84.8216 132.457 84.8216H141.031V92.2507L132.47 93.4063C132.192 93.4441 131.941 93.5542 131.727 93.7399C131.514 93.9256 131.366 94.1561 131.287 94.4278L130.768 96.2541H111.023V93.396H121.024C121.351 93.396 121.647 93.2962 121.905 93.0933C122.163 92.8904 122.331 92.6324 122.41 92.3126C123.394 87.9721 123.882 83.5697 123.882 79.1054C123.91 75.7348 123.573 72.3986 122.875 69.1003H125.313V66.2422H111.023V63.384H119.597C119.989 63.384 120.326 63.2465 120.605 62.9644C120.914 62.6583 122.455 60.8836 122.455 56.2405C122.479 54.7822 122.29 53.3514 121.884 51.9516H123.882V49.0935H111.023V37.661C111.023 37.4719 110.985 37.2896 110.912 37.1142C110.84 36.9387 110.737 36.784 110.603 36.6498C110.469 36.5157 110.314 36.4125 110.139 36.3403C109.963 36.2681 109.781 36.2337 109.592 36.2337C108.797 36.2578 108.058 36.0686 107.37 35.6662C106.833 35.3842 106.266 35.1675 105.674 35.023C105.083 34.8751 104.481 34.8029 103.869 34.8029C103.26 34.8029 102.658 34.8751 102.066 35.023C101.475 35.1675 100.907 35.3842 100.367 35.6662C99.6863 36.0652 98.9503 36.2543 98.1593 36.2337C97.3682 36.2578 96.6288 36.0686 95.9443 35.6696C94.854 35.0677 93.6881 34.7788 92.443 34.8029C92.2539 34.8029 92.0716 34.8407 91.8962 34.913C91.7208 34.9852 91.566 35.0884 91.4319 35.2225C91.2977 35.3566 91.1945 35.5114 91.1223 35.6868C91.0501 35.8622 91.0157 36.0445 91.0157 36.2337V43.3772C91.0157 43.5664 91.0501 43.7487 91.1223 43.9241C91.1945 44.0995 91.2977 44.2543 91.4319 44.3884C91.566 44.5226 91.7208 44.6257 91.8962 44.698C92.0716 44.7702 92.2539 44.808 92.443 44.808C93.2341 44.7839 93.9736 44.9697 94.658 45.3686C95.198 45.6541 95.762 45.8708 96.3536 46.0152C96.9452 46.1631 97.5471 46.2354 98.1558 46.2354C98.7646 46.2354 99.363 46.1631 99.9546 46.0152C100.546 45.8708 101.114 45.6541 101.65 45.3686C102.345 44.9937 103.084 44.8046 103.872 44.8046C104.66 44.8046 105.403 44.9937 106.094 45.3686C106.747 45.7126 107.439 45.9533 108.164 46.0943V49.0935H95.3012V51.9516H98.8127C99.4043 53.3205 99.6623 54.7512 99.59 56.2405C99.7517 57.9155 99.4146 59.4838 98.5754 60.9455C98.3725 61.1485 98.2418 61.3927 98.1868 61.6781C98.1283 61.9601 98.1558 62.2353 98.2659 62.5036C98.3794 62.7718 98.5548 62.9851 98.7956 63.1433C99.0363 63.3049 99.3011 63.384 99.59 63.384H108.164V66.2422H93.8738V69.1003H95.6417C96.4018 72.3917 96.7629 75.7279 96.7319 79.1054C96.7216 83.3255 96.2607 87.4974 95.3459 91.6213C95.2908 91.8345 95.2874 92.0477 95.3321 92.2644C95.3803 92.4777 95.4697 92.6737 95.6038 92.8457C95.7414 93.0176 95.9065 93.1552 96.1025 93.2515C96.302 93.3478 96.5118 93.396 96.7319 93.396H108.164V96.2541H83.8687V86.249H91.0157C91.284 86.249 91.535 86.1802 91.7655 86.0357C91.9959 85.8947 92.1713 85.7021 92.2917 85.4613C93.382 82.9781 93.9082 80.3848 93.8738 77.6746C93.9116 74.9678 93.3854 72.3711 92.302 69.8913C92.1782 69.6471 92.0028 69.4545 91.7689 69.3135C91.5385 69.1691 91.2874 69.1003 91.0157 69.1003H83.8687V64.8148H85.2995C85.6262 64.8148 85.9186 64.7116 86.1765 64.5122C86.4345 64.3092 86.603 64.0513 86.6855 63.7314L88.1129 58.0152C88.1679 57.802 88.1713 57.5887 88.1266 57.372C88.0785 57.1588 87.9891 56.9627 87.8549 56.7908C87.7173 56.6154 87.5523 56.4812 87.3528 56.3849C87.1567 56.2886 86.9469 56.2405 86.7268 56.2405H83.8687V44.808C83.8687 44.6189 83.8343 44.4366 83.7586 44.2612C83.6864 44.0858 83.5832 43.931 83.4491 43.7968C83.315 43.6627 83.1602 43.5595 82.9882 43.4873C82.8128 43.4151 82.6305 43.3772 82.4414 43.3772C81.6469 43.4013 80.904 43.2156 80.2195 42.8132C79.1327 42.2147 77.9667 41.9258 76.7251 41.9499C75.4801 41.9224 74.3141 42.2113 73.2239 42.8132C72.5394 43.2122 71.8 43.4013 71.0089 43.3772C70.8163 43.3772 70.634 43.4151 70.462 43.4873C70.2866 43.5595 70.1319 43.6627 69.9977 43.7968C69.8636 43.931 69.7604 44.0858 69.6882 44.2612C69.616 44.4366 69.5781 44.6189 69.5781 44.808V51.9516C69.5781 52.1408 69.616 52.323 69.6882 52.4984C69.7604 52.6739 69.8636 52.8286 69.9977 52.9628C70.1319 53.0969 70.2866 53.2001 70.462 53.2723C70.634 53.3445 70.8163 53.3824 71.0089 53.3824C72.2471 53.4064 73.4096 53.121 74.4999 52.5225C75.1843 52.1201 75.9272 51.931 76.7251 51.9516C77.5196 51.9275 78.2591 52.1167 78.9435 52.5156C79.597 52.863 80.2883 53.1038 81.014 53.2448V56.2405H78.1525C77.9323 56.2405 77.7225 56.2886 77.5265 56.3849C77.327 56.4812 77.1619 56.6154 77.0244 56.7908C76.8902 56.9627 76.8008 57.1588 76.7561 57.372C76.7079 57.5887 76.7114 57.802 76.7664 58.0152L78.1972 63.7314C78.2763 64.0513 78.4448 64.3092 78.7028 64.5122C78.9607 64.7116 79.2531 64.8148 79.5832 64.8148H81.0106V69.1003H72.4362C72.3159 69.1003 72.1955 69.1175 72.0751 69.1484C71.9582 69.1759 71.8481 69.2241 71.7415 69.2826C71.6349 69.341 71.5351 69.4133 71.4491 69.4958C71.3597 69.5818 71.2841 69.6746 71.2187 69.7778C71.1568 69.881 71.1052 69.9911 71.0708 70.108C71.033 70.2249 71.0123 70.3453 71.0089 70.4657C71.002 70.5861 71.0123 70.7065 71.0364 70.8268C71.0639 70.9472 71.1018 71.0607 71.1568 71.1673C72.0476 73.2482 72.4741 75.415 72.4362 77.6746C72.4638 79.9343 72.0373 82.1011 71.1568 84.1819C71.1018 84.292 71.0639 84.4055 71.0364 84.5258C71.0123 84.6428 71.002 84.7632 71.0089 84.887C71.0123 85.0073 71.033 85.1277 71.0708 85.2412C71.1052 85.3582 71.1568 85.4682 71.2187 85.5714C71.2841 85.6746 71.3597 85.7709 71.4491 85.8534C71.5351 85.9394 71.6349 86.0116 71.7415 86.0701C71.8481 86.1286 71.9582 86.1733 72.0751 86.2042C72.1955 86.2352 72.3159 86.249 72.4362 86.249H81.0106V93.396H72.4362C72.1095 93.396 71.8172 93.4957 71.5558 93.6986C71.2978 93.8981 71.1293 94.1595 71.0502 94.4759L69.6194 100.192C69.5919 100.309 69.5781 100.423 69.5781 100.54C69.5781 101.179 69.6847 101.798 69.8911 102.4C70.1009 103.006 70.4001 103.556 70.7922 104.061C71.1877 104.564 71.6486 104.987 72.1852 105.334C72.7183 105.681 73.2961 105.932 73.9152 106.087C73.9943 107.064 74.1628 108.024 74.4242 108.969C74.6821 109.912 75.0261 110.823 75.4526 111.704C75.8825 112.584 76.3881 113.417 76.9728 114.201C77.5575 114.988 78.2109 115.711 78.9298 116.374C79.6486 117.038 80.4225 117.63 81.2513 118.149C82.0837 118.668 82.9538 119.109 83.8653 119.463C84.7767 119.821 85.7122 120.092 86.6752 120.275C87.6348 120.453 88.6047 120.546 89.5849 120.546H125.313C125.977 120.512 126.634 120.423 127.287 120.278C127.937 120.137 128.57 119.944 129.189 119.697C129.808 119.453 130.407 119.16 130.978 118.816C131.549 118.476 132.089 118.091 132.598 117.661C133.11 117.234 133.581 116.766 134.015 116.261C134.448 115.755 134.84 115.219 135.187 114.651C135.535 114.08 135.834 113.489 136.085 112.873C136.336 112.254 136.536 111.621 136.684 110.975L139.287 104.464L154.486 97.5542C154.74 97.4372 154.943 97.2618 155.095 97.0279C155.246 96.7906 155.322 96.5327 155.322 96.2541V91.9652C155.322 91.7588 155.28 91.5628 155.194 91.3771C155.108 91.1879 154.988 91.0262 154.833 90.8921C154.678 90.7545 154.503 90.6582 154.307 90.5998C154.107 90.5379 153.908 90.5241 153.705 90.5516L143.889 91.8689V84.8216H151.036C151.308 84.8216 151.559 84.7528 151.793 84.6084C152.023 84.4674 152.199 84.2748 152.322 84.0306C153.406 81.5508 153.932 78.9541 153.894 76.2473C153.898 74.3006 153.626 72.3952 153.079 70.5311H155.322V67.6729H143.889ZM140.24 61.3927C139.7 61.1072 139.136 60.8905 138.541 60.746C137.949 60.5982 137.347 60.5259 136.739 60.5259C136.13 60.5259 135.528 60.5982 134.936 60.746C134.345 60.8905 133.777 61.1072 133.237 61.3927C132.983 61.5268 132.721 61.6437 132.453 61.7435V57.544C133.175 57.403 133.863 57.1554 134.513 56.8045C135.208 56.4262 135.948 56.2405 136.735 56.2405C137.523 56.2405 138.266 56.4262 138.957 56.8045C139.607 57.1588 140.298 57.4064 141.028 57.5474V61.7469C140.756 61.6437 140.494 61.5268 140.24 61.3927ZM107.37 42.8132C106.833 42.5277 106.266 42.3145 105.674 42.1666C105.083 42.0221 104.481 41.9465 103.869 41.9465C103.26 41.9465 102.658 42.0221 102.066 42.1666C101.475 42.3145 100.907 42.5277 100.367 42.8132C99.6795 43.1881 98.94 43.3772 98.1524 43.3772C97.3682 43.3772 96.6288 43.1881 95.9374 42.8132C95.2874 42.4589 94.5995 42.2113 93.8738 42.0703V37.8708C94.1421 37.9706 94.4035 38.0909 94.658 38.2251C95.198 38.5071 95.762 38.7238 96.3536 38.8717C96.9452 39.0161 97.5471 39.0884 98.1558 39.0884C98.7646 39.0884 99.363 39.0161 99.9546 38.8717C100.546 38.7238 101.114 38.5071 101.65 38.2251C102.345 37.8467 103.084 37.661 103.872 37.661C104.66 37.661 105.403 37.8467 106.094 38.2251C106.744 38.5793 107.435 38.827 108.164 38.968V43.1674C107.893 43.0677 107.628 42.9473 107.37 42.8132ZM101.884 60.5259C102.287 59.1261 102.472 57.6953 102.448 56.2405C102.472 54.7822 102.287 53.3514 101.884 51.9516H118.823C119.411 53.3205 119.666 54.7512 119.597 56.2405C119.666 57.7263 119.411 59.1571 118.823 60.5259H101.884ZM98.4963 90.5379C99.2152 86.7614 99.5797 82.9506 99.59 79.1054C99.6141 75.7348 99.2771 72.3986 98.5789 69.1003H119.937C120.694 72.3917 121.059 75.7279 121.024 79.1054C121.014 82.9506 120.632 86.7649 119.882 90.5379H98.4963ZM80.2195 49.9602C79.1327 49.3583 77.9667 49.0694 76.7251 49.0935C75.4801 49.0694 74.3141 49.3583 73.2239 49.9602C72.9693 50.0943 72.7079 50.2113 72.4397 50.311V46.1115C73.1619 45.974 73.8498 45.7298 74.4999 45.379C75.1843 44.9731 75.9272 44.7839 76.7251 44.808C77.5162 44.7839 78.2556 44.9766 78.9401 45.379C79.5936 45.7298 80.2814 45.974 81.0106 46.115V50.3144C80.7389 50.2113 80.474 50.0943 80.2195 49.9602ZM80.6976 61.9567L79.9822 59.0986H84.8971L84.1817 61.9567H80.6976ZM74.4827 83.3908C75.0261 81.5267 75.2978 79.6213 75.2944 77.6746C75.2978 75.7314 75.0261 73.826 74.4827 71.9584H90.0596C90.7062 73.8088 91.0226 75.7142 91.0157 77.6746C91.0191 79.6351 90.6993 81.5405 90.0561 83.3908H74.4827ZM152.463 93.6023V95.3323L137.733 102.029L130.744 103.429L131.304 106.228L135.862 105.317C135.862 105.317 133.85 110.441 133.822 110.545H125.313V113.403H132.536C132.147 114.022 131.693 114.589 131.174 115.102C130.651 115.611 130.077 116.055 129.447 116.426C128.818 116.801 128.154 117.093 127.456 117.306C126.758 117.52 126.042 117.647 125.313 117.688H89.5849C88.6838 117.688 87.7896 117.595 86.9057 117.406C86.0252 117.217 85.1722 116.935 84.3468 116.567C83.5248 116.199 82.7475 115.745 82.0183 115.212C81.2926 114.679 80.6254 114.077 80.0269 113.403H85.2995V110.545H78.0802C77.4027 109.19 76.9762 107.762 76.8077 106.256H81.0106V103.398H75.2944C74.9298 103.401 74.5755 103.332 74.235 103.198C73.8945 103.064 73.5919 102.868 73.327 102.617C73.0622 102.366 72.8524 102.077 72.6976 101.743C72.5429 101.413 72.4569 101.066 72.4362 100.698L73.554 96.2541H81.0106V97.6814C81.0106 97.8706 81.0484 98.0529 81.1206 98.2283C81.1929 98.4037 81.2961 98.5585 81.4302 98.6926C81.5643 98.8267 81.7191 98.9299 81.8945 99.0021C82.0665 99.0744 82.2488 99.1122 82.4414 99.1122H131.844C132.164 99.1122 132.45 99.0159 132.704 98.8233C132.959 98.6307 133.131 98.383 133.22 98.0769L133.781 96.1165L152.463 93.6023ZM150.077 81.9635H134.5C135.04 80.0959 135.311 78.1905 135.311 76.2473C135.311 74.304 135.04 72.3986 134.5 70.5311H150.077C150.716 72.3814 151.033 74.2868 151.033 76.2473C151.033 78.2043 150.716 80.1097 150.077 81.9635Z" fill="white"/>
<path d="M106.733 54.8096H109.592V57.6677H106.733V54.8096Z" fill="white"/>
<path d="M112.45 54.8096H115.308V57.6677H112.45V54.8096Z" fill="white"/>
<path d="M116.738 77.6745C116.738 74.524 113.533 71.9583 109.591 71.9583C105.653 71.9583 102.448 74.524 102.448 77.6745C102.486 78.6478 102.73 79.5627 103.18 80.4225C103.631 81.2858 104.243 82.0081 105.02 82.5928L103.951 85.7983C103.879 86.0149 103.861 86.2385 103.896 86.4655C103.93 86.6925 104.013 86.8989 104.147 87.0846C104.281 87.2703 104.449 87.4148 104.656 87.5214C104.859 87.6246 105.075 87.6796 105.306 87.6796H113.88C114.107 87.6796 114.327 87.628 114.53 87.5214C114.733 87.4182 114.905 87.2703 115.039 87.0846C115.173 86.8989 115.256 86.6925 115.294 86.4655C115.328 86.2385 115.308 86.0149 115.235 85.7983L114.166 82.5928C114.94 82.0081 115.555 81.2858 116.002 80.4225C116.453 79.5627 116.7 78.6478 116.738 77.6745ZM111.878 80.653C111.713 80.7218 111.569 80.8215 111.442 80.9488C111.318 81.0726 111.218 81.217 111.142 81.3821C111.07 81.5438 111.032 81.7157 111.022 81.8911C111.012 82.07 111.036 82.2454 111.094 82.4139L111.896 84.8215H107.287L108.088 82.4139C108.147 82.2454 108.171 82.07 108.161 81.8911C108.154 81.7157 108.112 81.5438 108.04 81.3821C107.968 81.217 107.868 81.0726 107.741 80.9488C107.614 80.8215 107.469 80.7218 107.304 80.653C106.737 80.3641 106.272 79.9548 105.915 79.4251C105.56 78.8955 105.357 78.3108 105.306 77.6745C105.306 76.1268 107.27 74.8164 109.591 74.8164C111.916 74.8164 113.88 76.1268 113.88 77.6745C113.829 78.3108 113.626 78.8955 113.268 79.4251C112.91 79.9548 112.449 80.3641 111.878 80.653Z" fill="white"/>
<path d="M72.441 132.081C72.5572 132.236 72.5766 132.4 72.4991 132.575C72.441 132.73 72.4216 132.894 72.441 133.069C72.441 133.475 72.4313 133.911 72.412 134.376C72.412 134.822 72.4313 135.248 72.4701 135.655C72.412 135.732 72.4023 135.839 72.441 135.974C72.4216 136.071 72.412 136.216 72.412 136.41C72.412 136.546 72.4313 136.672 72.4701 136.788C72.4313 137.059 72.4216 137.349 72.441 137.659C72.4604 137.969 72.4604 138.279 72.441 138.589V139.635C72.4023 140.139 72.3926 140.633 72.412 141.117C72.4313 141.582 72.4216 142.057 72.3829 142.541C72.4216 142.56 72.4313 142.58 72.412 142.599C72.3926 142.618 72.4023 142.628 72.441 142.628C72.441 143.616 72.412 144.584 72.3538 145.534C72.3345 145.805 72.3345 146.066 72.3538 146.318C72.3926 146.55 72.3926 146.802 72.3538 147.073C72.3926 147.132 72.3926 147.199 72.3538 147.277C72.3345 147.335 72.3442 147.393 72.3829 147.451C72.3635 147.819 72.3442 148.178 72.3248 148.526C72.3054 148.856 72.3151 149.195 72.3538 149.543C72.3538 149.64 72.3538 149.737 72.3538 149.834C72.3732 149.931 72.3635 150.037 72.3248 150.153C72.3442 150.463 72.3732 150.754 72.412 151.025C72.4507 151.296 72.4216 151.577 72.3248 151.868L71.9761 152.071C71.8212 152.013 71.6371 151.984 71.4241 151.984C71.2304 151.984 71.056 152.032 70.9011 152.129C70.8042 152.129 70.7267 152.1 70.6686 152.042C70.6105 151.984 70.5427 151.945 70.4652 151.926C70.2134 151.887 69.981 151.897 69.7679 151.955C69.5742 152.032 69.3708 152.071 69.1577 152.071C68.9446 152.013 68.8284 151.887 68.809 151.693C68.809 151.48 68.7897 151.287 68.7509 151.112C68.809 150.957 68.8284 150.793 68.809 150.618C68.809 150.425 68.8575 150.26 68.9543 150.124C68.9737 149.911 68.9834 149.708 68.9834 149.514C68.9834 149.32 68.9834 149.127 68.9834 148.933C68.9834 148.739 68.9834 148.546 68.9834 148.352C69.0027 148.139 69.0221 147.926 69.0415 147.713C68.9446 147.422 68.9156 147.122 68.9543 146.812C69.0124 146.502 69.0221 146.182 68.9834 145.853C68.9446 145.621 68.935 145.398 68.9543 145.185C68.9737 144.952 68.964 144.73 68.9253 144.517C68.9834 144.052 69.0124 143.596 69.0124 143.151V140.594C68.9156 140.497 68.9059 140.4 68.9834 140.303C69.0609 140.207 69.0609 140.1 68.9834 139.984C69.0415 139.422 69.0415 138.851 68.9834 138.27C68.9253 138.25 68.9156 138.231 68.9543 138.211C68.9931 138.192 68.9931 138.163 68.9543 138.124C69.0124 137.911 69.0318 137.659 69.0124 137.369C68.9931 137.059 68.9931 136.797 69.0124 136.584C69.0512 136.371 69.0609 136.158 69.0415 135.945C69.0415 135.732 69.0415 135.519 69.0415 135.306C69.0027 135.19 68.9931 135.064 69.0124 134.928C69.0512 134.773 69.0512 134.638 69.0124 134.521C69.0512 134.173 69.0609 133.824 69.0415 133.475C69.0221 133.127 68.9931 132.768 68.9543 132.4C68.9931 132.342 69.0027 132.284 68.9834 132.226C68.9834 132.148 69.0221 132.09 69.0996 132.052C69.6032 132.09 70.1359 132.1 70.6977 132.081C71.2788 132.042 71.8212 132.042 72.3248 132.081H72.441ZM79.6759 148.468V148.439C80.1602 148.497 80.5573 148.517 80.8672 148.497C81.1965 148.478 81.6033 148.468 82.0875 148.468C82.2038 148.565 82.2522 148.681 82.2328 148.817C82.2134 148.952 82.2328 149.078 82.2909 149.195C82.3297 149.388 82.349 149.582 82.349 149.776C82.3684 149.969 82.3297 150.153 82.2328 150.328C82.2716 150.444 82.2812 150.56 82.2619 150.676C82.2425 150.773 82.2522 150.87 82.2909 150.967C82.2522 151.141 82.2522 151.325 82.2909 151.519C82.3297 151.713 82.2619 151.877 82.0875 152.013C81.9326 151.858 81.7485 151.8 81.5355 151.839C81.3418 151.877 81.1481 151.887 80.9544 151.868C80.5669 151.829 80.257 151.81 80.0246 151.81C79.8115 151.79 79.5113 151.8 79.1238 151.839C78.9882 151.916 78.8333 151.945 78.659 151.926C78.4846 151.906 78.32 151.906 78.165 151.926C77.8744 151.81 77.5645 151.771 77.2352 151.81C76.9253 151.848 76.6154 151.868 76.3054 151.868C76.2861 152.003 76.2183 152.052 76.102 152.013C75.9858 151.994 75.8987 151.984 75.8405 151.984C75.7437 151.984 75.6468 152.023 75.55 152.1C75.4531 152.178 75.3563 152.158 75.2594 152.042C75.1238 152.003 74.9786 152.013 74.8236 152.071C74.688 152.129 74.5815 152.061 74.504 151.868C74.504 151.713 74.5137 151.567 74.533 151.432C74.5718 151.277 74.5621 151.122 74.504 150.967C74.5427 150.851 74.5427 150.725 74.504 150.589C74.4846 150.434 74.4846 150.289 74.504 150.153C74.504 149.96 74.4943 149.766 74.4749 149.572C74.4749 149.379 74.4943 149.195 74.533 149.02C74.4943 148.943 74.4943 148.865 74.533 148.788C74.5718 148.691 74.5718 148.604 74.533 148.526C74.688 148.429 74.843 148.4 74.9979 148.439C75.1723 148.478 75.3369 148.488 75.4919 148.468C75.7824 148.41 76.0827 148.4 76.3926 148.439C76.7219 148.478 77.0512 148.478 77.3805 148.439C77.5355 148.478 77.6614 148.497 77.7582 148.497C77.8744 148.478 78.01 148.468 78.165 148.468C78.4168 148.488 78.659 148.497 78.8914 148.497C79.1238 148.478 79.3757 148.468 79.6468 148.468H79.6759ZM76.7122 132.052C76.8091 132.013 76.9059 132.013 77.0028 132.052C77.119 132.09 77.2255 132.09 77.3224 132.052H81.9423C82.0004 132.129 82.0197 132.216 82.0004 132.313C82.0004 132.391 82.0101 132.468 82.0294 132.546C82.0101 132.856 82.0294 133.175 82.0875 133.504C82.165 133.834 82.1553 134.144 82.0585 134.434C82.0197 134.531 82.0101 134.628 82.0294 134.725C82.0488 134.822 82.0585 134.918 82.0585 135.015C82.0778 135.112 82.0778 135.199 82.0585 135.277C82.0391 135.354 81.981 135.422 81.8841 135.48C81.7485 135.403 81.5936 135.364 81.4192 135.364C81.2643 135.364 81.1093 135.412 80.9544 135.509C80.5476 135.354 80.2183 135.287 79.9665 135.306C79.7146 135.325 79.366 135.325 78.9205 135.306C78.6299 135.287 78.3297 135.287 78.0197 135.306C77.7292 135.306 77.4386 135.287 77.148 135.248C76.8575 135.267 76.5669 135.296 76.2764 135.335C76.0052 135.374 75.734 135.374 75.4628 135.335C75.4047 135.374 75.3272 135.393 75.2304 135.393C75.1529 135.393 75.0657 135.403 74.9689 135.422C74.8914 135.422 74.8139 135.441 74.7364 135.48C74.6783 135.5 74.6396 135.567 74.6202 135.684C74.6202 135.722 74.6299 135.771 74.6493 135.829C74.6686 135.887 74.6589 135.935 74.6202 135.974C74.5427 135.974 74.504 135.935 74.504 135.858C74.5233 135.761 74.5137 135.693 74.4749 135.655C74.3587 135.5 74.3296 135.335 74.3878 135.161C74.4652 134.986 74.4846 134.822 74.4459 134.667C74.4652 134.299 74.4846 133.921 74.504 133.533C74.5233 133.146 74.5233 132.759 74.504 132.371C74.504 132.313 74.4943 132.245 74.4749 132.168C74.4555 132.09 74.4749 132.032 74.533 131.994C74.8623 132.032 75.2207 132.042 75.6081 132.023C75.9955 132.003 76.3635 132.013 76.7122 132.052ZM77.7001 140.274C78.0682 140.274 78.4071 140.294 78.7171 140.333C79.0464 140.352 79.4047 140.342 79.7921 140.303C79.9083 140.226 79.9858 140.255 80.0246 140.391C80.0633 140.507 80.1117 140.584 80.1699 140.623C80.1892 140.739 80.2376 140.836 80.3151 140.914C80.3539 141.03 80.3636 141.146 80.3442 141.262C80.3248 141.359 80.2958 141.466 80.257 141.582C80.2183 141.679 80.1892 141.785 80.1699 141.902C80.1505 141.998 80.1699 142.105 80.228 142.221C80.228 142.667 80.257 143.093 80.3151 143.5C80.2764 143.558 80.2376 143.626 80.1989 143.703C80.1795 143.761 80.1408 143.81 80.0827 143.848C79.9665 143.848 79.8987 143.897 79.8793 143.994C79.8599 144.09 79.8018 144.149 79.705 144.168C79.6662 144.09 79.6468 144.013 79.6468 143.935C79.6662 143.858 79.6372 143.79 79.5597 143.732C79.4047 143.732 79.2498 143.78 79.0948 143.877C78.9398 143.955 78.7945 143.897 78.659 143.703C78.5815 143.684 78.5137 143.713 78.4556 143.79C78.3974 143.868 78.349 143.848 78.3103 143.732C78.1166 143.693 77.9616 143.674 77.8454 143.674C77.7292 143.674 77.5742 143.655 77.3805 143.616C77.3418 143.713 77.303 143.732 77.2643 143.674C77.2449 143.596 77.2062 143.567 77.148 143.587C76.7219 143.567 76.3539 143.567 76.0439 143.587C75.7534 143.587 75.3853 143.596 74.9398 143.616C74.9011 143.635 74.872 143.693 74.8526 143.79C74.8526 143.887 74.8526 143.994 74.8526 144.11C74.8526 144.207 74.8526 144.303 74.8526 144.4C74.872 144.478 74.8817 144.536 74.8817 144.575C74.8817 144.633 74.843 144.73 74.7655 144.865C74.7074 145.001 74.6493 145.049 74.5911 145.011C74.4943 144.952 74.4555 144.865 74.4749 144.749C74.4943 144.633 74.5233 144.526 74.5621 144.429C74.5815 144.371 74.5815 144.294 74.5621 144.197C74.5427 144.081 74.5137 143.965 74.4749 143.848C74.4555 143.732 74.4362 143.626 74.4168 143.529C74.4168 143.412 74.4362 143.325 74.4749 143.267C74.4362 143.228 74.4168 143.17 74.4168 143.093C74.4168 142.977 74.4265 142.889 74.4459 142.831C74.4459 142.754 74.4459 142.696 74.4459 142.657C74.4652 142.599 74.4652 142.521 74.4459 142.425L74.533 140.274C74.9786 140.236 75.3466 140.236 75.6371 140.274C75.9471 140.313 76.3054 140.323 76.7122 140.303C76.8672 140.303 77.0318 140.303 77.2062 140.303C77.3805 140.284 77.5451 140.274 77.7001 140.274ZM99.0802 147.974C99.177 148.168 99.2642 148.323 99.3417 148.439C99.4192 148.555 99.4966 148.672 99.5741 148.788C99.6516 148.885 99.7291 148.981 99.8066 149.078C99.9034 149.175 100.02 149.311 100.155 149.485C100.194 149.291 100.233 149.03 100.271 148.701C100.31 148.371 100.271 148.129 100.155 147.974C100.097 147.916 100.049 147.81 100.01 147.655C99.9906 147.5 99.9712 147.335 99.9518 147.161C99.9325 146.986 99.9131 146.822 99.8937 146.667C99.8744 146.512 99.8453 146.396 99.8066 146.318C99.7097 146.124 99.5838 145.902 99.4288 145.65C99.2932 145.379 99.177 145.136 99.0802 144.923C99.0802 144.904 99.0705 144.914 99.0511 144.952C99.0511 144.991 99.0414 145.04 99.0221 145.098C99.0027 145.156 98.9833 145.204 98.9639 145.243C98.9639 145.282 98.9639 145.301 98.9639 145.301C98.9252 145.204 98.9058 145.088 98.9058 144.952C98.9252 144.797 98.9155 144.672 98.8768 144.575C98.7993 144.381 98.6734 144.207 98.4991 144.052C98.3247 143.897 98.1891 143.732 98.0923 143.558L97.7727 143.035C97.6371 142.88 97.5305 142.725 97.453 142.57C97.3756 142.415 97.2787 142.25 97.1625 142.076C97.1044 141.979 97.0559 141.872 97.0172 141.756C96.9785 141.64 96.93 141.534 96.8719 141.437C96.8332 141.146 96.8235 140.875 96.8429 140.623C96.8816 140.371 96.8816 140.11 96.8429 139.839C96.9397 139.335 96.9688 138.802 96.93 138.241C96.9107 137.679 96.9204 137.146 96.9591 136.642C96.901 136.565 96.8913 136.468 96.93 136.352C96.9882 136.236 96.9785 136.129 96.901 136.032C96.9397 135.916 96.9397 135.8 96.901 135.684C96.8816 135.548 96.8719 135.422 96.8719 135.306C96.9494 135.132 96.9688 134.967 96.93 134.812C96.8913 134.638 96.8719 134.463 96.8719 134.289C96.8913 134.27 96.901 134.221 96.901 134.144L96.8719 134.115C96.8913 133.824 96.901 133.553 96.901 133.301C96.9204 133.049 96.8913 132.797 96.8138 132.546C96.7751 132.449 96.8041 132.371 96.901 132.313C97.0947 132.274 97.2593 132.255 97.3949 132.255C97.4918 132.255 97.5886 132.255 97.6855 132.255C97.7823 132.236 97.8792 132.216 97.976 132.197C98.1698 132.216 98.3538 132.216 98.5281 132.197C98.7024 132.158 98.8768 132.168 99.0511 132.226C99.2642 132.207 99.4482 132.197 99.6032 132.197C99.7775 132.178 99.9712 132.148 100.184 132.11C100.281 132.129 100.32 132.178 100.301 132.255C100.301 132.313 100.32 132.362 100.359 132.4C100.397 132.846 100.388 133.282 100.33 133.708C100.291 134.115 100.301 134.541 100.359 134.986C100.339 134.986 100.33 134.996 100.33 135.015C100.349 135.19 100.368 135.364 100.388 135.538C100.407 135.693 100.397 135.868 100.359 136.061C100.494 136.158 100.494 136.245 100.359 136.323C100.32 136.439 100.349 136.546 100.446 136.642C100.543 136.739 100.533 136.846 100.417 136.962C100.436 137.098 100.436 137.233 100.417 137.369C100.417 137.504 100.455 137.63 100.533 137.747C100.455 137.882 100.417 138.037 100.417 138.211C100.417 138.289 100.407 138.366 100.388 138.444C100.388 138.502 100.378 138.579 100.359 138.676C100.378 138.773 100.378 138.88 100.359 138.996C100.359 139.112 100.349 139.228 100.33 139.345C100.33 139.713 100.349 140.071 100.388 140.42C100.446 140.768 100.455 141.127 100.417 141.495C100.436 141.65 100.446 141.814 100.446 141.989C100.465 142.163 100.475 142.337 100.475 142.512C100.475 142.686 100.475 142.86 100.475 143.035C100.494 143.209 100.514 143.393 100.533 143.587C100.475 143.742 100.455 143.897 100.475 144.052C100.514 144.187 100.494 144.333 100.417 144.488C100.417 144.604 100.397 144.73 100.359 144.865C100.339 144.981 100.359 145.088 100.417 145.185C100.397 145.379 100.407 145.572 100.446 145.766C100.485 145.94 100.485 146.105 100.446 146.26C100.465 146.531 100.485 146.88 100.504 147.306C100.523 147.732 100.514 148.081 100.475 148.352C100.455 148.429 100.446 148.546 100.446 148.701C100.465 148.836 100.475 148.981 100.475 149.136C100.475 149.272 100.465 149.408 100.446 149.543C100.426 149.679 100.388 149.776 100.33 149.834C100.31 149.892 100.301 150.008 100.301 150.182C100.32 150.357 100.33 150.55 100.33 150.764V151.316C100.33 151.471 100.31 151.587 100.271 151.664C100.252 151.703 100.242 151.8 100.242 151.955C100.262 152.11 100.271 152.265 100.271 152.42C100.291 152.575 100.291 152.71 100.271 152.827C100.271 152.962 100.233 153.02 100.155 153.001C100.097 152.981 100.049 152.885 100.01 152.71C99.9712 152.536 99.9712 152.391 100.01 152.274C100.049 152.178 100.01 152.071 99.8937 151.955C99.7775 151.916 99.671 151.945 99.5741 152.042C99.5547 152.081 99.5547 152.216 99.5741 152.449C99.5935 152.701 99.6032 152.952 99.6032 153.204C99.6225 153.456 99.6129 153.669 99.5741 153.843C99.5547 154.037 99.4869 154.095 99.3707 154.018C99.3126 153.998 99.2836 153.882 99.2836 153.669C99.2836 153.417 99.2932 153.107 99.3126 152.739C99.332 152.391 99.2642 152.139 99.1092 151.984H98.9058C98.8477 151.984 98.8187 152.013 98.8187 152.071C98.8187 152.09 98.8284 152.149 98.8477 152.245C98.8671 152.342 98.8768 152.439 98.8768 152.536C98.8768 152.652 98.8671 152.749 98.8477 152.827C98.8284 152.923 98.7896 152.972 98.7315 152.972C98.6346 152.972 98.5668 152.914 98.5281 152.797C98.5087 152.681 98.4991 152.546 98.4991 152.391C98.4991 152.294 98.4991 152.207 98.4991 152.129C98.5184 152.052 98.5281 151.994 98.5281 151.955C98.4894 151.994 98.4119 152.013 98.2957 152.013C98.1988 152.013 98.131 152.003 98.0923 151.984C98.0342 151.965 97.9276 151.955 97.7727 151.955H97.453C97.3175 151.955 97.2593 151.945 97.2787 151.926C97.2787 151.926 97.269 151.935 97.2497 151.955L95.884 150.124L95.332 149.369C95.2351 149.136 95.0995 148.933 94.9252 148.759C94.809 148.565 94.6831 148.381 94.5475 148.207C94.4312 148.032 94.3247 147.848 94.2279 147.655C94.0923 147.616 94.0148 147.548 93.9954 147.451C93.976 147.354 93.9179 147.277 93.8211 147.219C93.8404 147.161 93.8211 147.122 93.763 147.103C93.7242 147.064 93.6855 147.025 93.6467 146.986C93.608 146.967 93.5789 146.967 93.5596 146.986C93.5402 147.006 93.5208 146.996 93.5015 146.957C93.5015 146.802 93.4433 146.657 93.3271 146.521C93.2109 146.366 93.1044 146.211 93.0075 146.057C92.9107 145.843 92.7751 145.64 92.6007 145.446C92.4264 145.253 92.2908 145.049 92.1939 144.836C91.9615 144.565 91.7484 144.284 91.5547 143.994C91.3804 143.703 91.1576 143.422 90.8864 143.151C90.654 142.783 90.4312 142.415 90.2182 142.047C90.0245 141.679 89.792 141.32 89.5208 140.972C89.5208 140.875 89.4627 140.797 89.3465 140.739C89.2496 140.681 89.2109 140.604 89.2303 140.507C89.0172 140.255 88.8235 140.003 88.6491 139.751C88.4942 139.48 88.3102 139.219 88.0971 138.967C87.9809 138.812 87.8259 138.667 87.6322 138.531C87.4579 138.376 87.3416 138.211 87.2835 138.037C87.1479 137.843 87.0317 137.659 86.9349 137.485C86.8574 137.291 86.7702 137.088 86.6734 136.875C86.4022 136.565 86.1697 136.245 85.976 135.916C85.8017 135.587 85.5789 135.287 85.3077 135.015C85.1915 134.918 85.114 134.812 85.0753 134.696C85.0559 134.579 84.9978 134.473 84.9009 134.376C84.8428 134.318 84.8138 134.27 84.8138 134.231C84.8332 134.192 84.8525 134.153 84.8719 134.115C84.9106 134.076 84.93 134.037 84.93 133.998C84.9494 133.94 84.93 133.863 84.8719 133.766C84.8138 133.688 84.7944 133.601 84.8138 133.504C84.8332 133.408 84.8525 133.311 84.8719 133.214C84.9106 133.098 84.9397 132.991 84.9591 132.894C84.9784 132.778 84.9591 132.681 84.9009 132.604C84.8428 132.526 84.8138 132.429 84.8138 132.313C84.8138 132.197 84.8622 132.119 84.9591 132.081C85.2109 131.984 85.3368 131.935 85.3368 131.935C85.3755 131.935 85.3852 131.945 85.3658 131.964C85.3465 131.984 85.3368 132.003 85.3368 132.023C85.3368 132.042 85.3562 132.052 85.3949 132.052C85.453 132.052 85.5692 132.032 85.7436 131.994C86.0148 132.052 86.3053 132.042 86.6152 131.964C86.9445 131.887 87.2351 131.877 87.4869 131.935C87.6419 131.994 87.7581 132.071 87.8356 132.168C87.9324 132.245 88.0099 132.333 88.068 132.429C88.1261 132.526 88.1939 132.623 88.2714 132.72C88.3489 132.817 88.4458 132.904 88.562 132.981C88.6588 133.059 88.7557 133.127 88.8525 133.185C88.9494 133.243 88.9591 133.32 88.8816 133.417C88.8816 133.514 88.9106 133.592 88.9688 133.65C89.0462 133.688 89.085 133.747 89.085 133.824C89.2399 133.921 89.3368 134.047 89.3755 134.202C89.4336 134.337 89.5305 134.463 89.6661 134.579C89.7629 134.812 89.9082 135.025 90.1019 135.219C90.315 135.393 90.4603 135.616 90.5378 135.887C90.7121 136.023 90.8283 136.187 90.8864 136.381C90.9446 136.555 91.0511 136.701 91.2061 136.817C91.3029 136.991 91.3998 137.175 91.4966 137.369C91.6128 137.543 91.7581 137.708 91.9324 137.863C91.9324 137.94 91.9615 138.008 92.0196 138.066C92.0971 138.105 92.1358 138.163 92.1358 138.241C92.3489 138.415 92.5039 138.609 92.6007 138.822C92.6976 139.035 92.8138 139.248 92.9494 139.461C93.0463 139.519 93.0947 139.596 93.0947 139.693C93.114 139.771 93.1818 139.829 93.2981 139.868C93.4337 140.139 93.5983 140.391 93.792 140.623C94.0051 140.836 94.1601 141.078 94.2569 141.349C94.3344 141.446 94.4119 141.553 94.4894 141.669C94.5862 141.766 94.6637 141.863 94.7218 141.96C94.8574 142.231 95.022 142.483 95.2157 142.715C95.4288 142.928 95.5838 143.17 95.6806 143.441C95.8356 143.538 95.9325 143.664 95.9712 143.819C96.0099 143.955 96.1165 144.071 96.2908 144.168C96.3102 144.284 96.3683 144.381 96.4651 144.458C96.5814 144.536 96.6589 144.623 96.6976 144.72C96.8332 144.797 96.9107 144.885 96.93 144.981C96.9688 145.078 97.0463 145.165 97.1625 145.243C97.2012 145.301 97.24 145.369 97.2787 145.446C97.3368 145.504 97.3562 145.563 97.3368 145.621C97.3756 145.756 97.453 145.853 97.5693 145.911C97.6855 145.969 97.7533 146.066 97.7727 146.202C97.9857 146.512 98.1891 146.822 98.3828 147.132C98.5765 147.422 98.809 147.703 99.0802 147.974ZM85.1334 137.95C85.1334 138.144 85.2109 138.299 85.3658 138.415C85.5402 138.512 85.6273 138.657 85.6273 138.851C85.7436 138.948 85.821 139.054 85.8598 139.17C85.8985 139.287 85.9663 139.393 86.0632 139.49C86.1407 139.587 86.1988 139.693 86.2375 139.81C86.2956 139.926 86.3634 140.032 86.4409 140.129C86.5378 140.187 86.5959 140.265 86.6152 140.362C86.6346 140.439 86.6927 140.507 86.7896 140.565C86.8089 140.662 86.8574 140.739 86.9349 140.797C87.0317 140.856 87.0801 140.933 87.0801 141.03C87.177 141.204 87.2835 141.379 87.3997 141.553C87.5353 141.727 87.6225 141.921 87.6612 142.134C87.7387 142.328 87.855 142.483 88.0099 142.599C88.1843 142.715 88.2908 142.88 88.3295 143.093C88.4264 143.209 88.4554 143.383 88.4167 143.616C88.378 143.848 88.3586 144.032 88.3586 144.168V144.807C88.3586 144.904 88.3586 145.011 88.3586 145.127C88.378 145.224 88.3973 145.33 88.4167 145.446C88.3973 145.582 88.3876 145.718 88.3876 145.853C88.3876 145.989 88.3876 146.124 88.3876 146.26C88.3876 146.396 88.378 146.531 88.3586 146.667C88.3586 146.783 88.3489 146.909 88.3295 147.044C88.3876 147.141 88.3876 147.248 88.3295 147.364C88.2714 147.461 88.2617 147.558 88.3005 147.655C88.2617 147.868 88.2617 148.061 88.3005 148.236C88.3392 148.41 88.3295 148.604 88.2714 148.817C88.3489 149.127 88.378 149.456 88.3586 149.805C88.3392 150.153 88.3005 150.492 88.2424 150.822C88.3005 150.977 88.3198 151.132 88.3005 151.287C88.3005 151.422 88.3005 151.567 88.3005 151.722C88.1068 151.8 87.9227 151.79 87.7484 151.693C87.5935 151.577 87.3997 151.558 87.1673 151.635C87.1286 151.732 87.0511 151.781 86.9349 151.781C86.8186 151.761 86.7315 151.8 86.6734 151.897C86.5571 151.742 86.4118 151.674 86.2375 151.693C86.0632 151.713 85.8792 151.722 85.6855 151.722C85.5692 151.761 85.4724 151.781 85.3949 151.781C85.298 151.781 85.2206 151.81 85.1625 151.868C85.1237 152.003 85.0947 152.149 85.0753 152.304C85.0559 152.478 85.0269 152.633 84.9881 152.768C84.9687 152.827 84.93 152.827 84.8719 152.768C84.8332 152.73 84.8138 152.691 84.8138 152.652C84.7944 152.613 84.7847 152.565 84.7847 152.507C84.8041 152.449 84.8138 152.4 84.8138 152.362C84.775 152.207 84.7557 152.081 84.7557 151.984C84.7557 151.868 84.7072 151.761 84.6104 151.664C84.7266 151.471 84.7847 151.248 84.7847 150.996C84.8816 150.667 84.9203 150.337 84.9009 150.008C84.8816 149.659 84.8913 149.301 84.93 148.933C84.8332 148.642 84.8041 148.352 84.8428 148.061C84.9009 147.771 84.9009 147.461 84.8428 147.132C84.8816 146.066 84.8719 145.049 84.8138 144.081C84.775 143.112 84.775 142.095 84.8138 141.03C84.7944 140.972 84.7847 140.865 84.7847 140.71C84.746 140.439 84.7363 140.158 84.7557 139.868C84.775 139.577 84.775 139.287 84.7557 138.996C84.7557 138.938 84.7557 138.87 84.7557 138.793C84.775 138.715 84.7847 138.647 84.7847 138.589C84.8041 138.415 84.8041 138.25 84.7847 138.095C84.7654 137.94 84.746 137.776 84.7266 137.601C84.746 137.563 84.7654 137.553 84.7847 137.572C84.8235 137.572 84.8525 137.582 84.8719 137.601C84.8138 137.698 84.8332 137.766 84.93 137.805C85.0269 137.843 85.0947 137.892 85.1334 137.95ZM97.3078 151.897H97.3368C97.3756 151.897 97.4046 151.887 97.424 151.868H97.3368L97.3078 151.897ZM116.139 132.255C116.042 132.681 115.994 133.078 115.994 133.446C115.994 133.659 115.994 133.872 115.994 134.086C115.994 134.279 116.003 134.483 116.023 134.696C116.12 135.044 116.149 135.412 116.11 135.8C116.052 135.858 115.984 135.887 115.907 135.887C115.849 135.868 115.781 135.839 115.703 135.8C115.645 135.761 115.577 135.732 115.5 135.713C115.422 135.693 115.345 135.713 115.267 135.771C115.171 135.771 115.074 135.742 114.977 135.684C114.899 135.625 114.812 135.596 114.715 135.596C114.619 135.616 114.57 135.693 114.57 135.829C114.589 135.945 114.551 135.994 114.454 135.974C114.357 135.935 114.27 135.858 114.192 135.742C114.134 135.625 114.057 135.548 113.96 135.509C113.553 135.471 113.166 135.461 112.798 135.48C112.449 135.5 112.042 135.509 111.577 135.509C111.48 135.567 111.432 135.664 111.432 135.8C111.451 135.935 111.403 135.984 111.287 135.945C111.229 135.906 111.171 135.868 111.112 135.829C111.074 135.771 111.016 135.722 110.938 135.684C110.899 135.722 110.87 135.78 110.851 135.858C110.851 135.935 110.832 135.964 110.793 135.945C110.715 135.906 110.686 135.819 110.706 135.684C110.725 135.548 110.667 135.471 110.531 135.451C110.473 135.49 110.415 135.529 110.357 135.567C110.318 135.587 110.28 135.645 110.241 135.742C110.26 135.819 110.25 135.926 110.212 136.061H110.154C110.115 135.964 110.095 135.868 110.095 135.771C110.115 135.655 110.066 135.577 109.95 135.538C109.718 135.48 109.534 135.461 109.398 135.48L109.224 135.655C109.185 135.538 109.108 135.461 108.991 135.422L106.086 135.451C105.892 135.509 105.776 135.635 105.737 135.829C105.718 136.023 105.708 136.197 105.708 136.352H105.679C105.679 136.003 105.592 135.742 105.418 135.567C105.379 135.548 105.33 135.567 105.272 135.625C105.233 135.684 105.195 135.722 105.156 135.742C105.137 135.839 105.137 135.964 105.156 136.119C105.175 136.255 105.137 136.294 105.04 136.236C104.943 136.197 104.914 136.119 104.953 136.003C105.011 135.887 104.991 135.78 104.895 135.684C104.836 135.645 104.778 135.645 104.72 135.684C104.681 135.722 104.643 135.761 104.604 135.8C104.565 135.935 104.575 136.11 104.633 136.323C104.691 136.517 104.662 136.594 104.546 136.555C104.468 136.517 104.43 136.449 104.43 136.352C104.43 136.255 104.43 136.158 104.43 136.061C104.43 135.964 104.42 135.868 104.401 135.771C104.381 135.674 104.313 135.606 104.197 135.567C104.003 135.432 103.79 135.383 103.558 135.422C103.345 135.441 103.132 135.422 102.919 135.364C102.88 135.228 102.89 135.112 102.948 135.015C103.006 134.918 103.006 134.802 102.948 134.667C102.948 134.26 102.938 133.843 102.919 133.417C102.899 132.972 102.919 132.526 102.977 132.081L103.093 131.994C103.48 132.071 103.878 132.1 104.284 132.081C104.691 132.042 105.088 132.061 105.476 132.139C105.882 132.042 106.309 132.013 106.754 132.052C107.219 132.09 107.674 132.09 108.12 132.052C108.197 131.974 108.284 131.935 108.381 131.935C108.536 131.935 108.691 131.964 108.846 132.023C109.001 132.061 109.146 132.032 109.282 131.935C110.444 131.916 111.558 131.945 112.623 132.023C113.689 132.081 114.822 132.1 116.023 132.081L116.139 132.255ZM111.316 137.543C111.219 138.027 111.18 138.541 111.2 139.083C111.219 139.606 111.209 140.129 111.171 140.652C111.132 141.311 111.141 141.979 111.2 142.657C111.277 143.335 111.296 144.013 111.258 144.691C111.296 144.904 111.296 145.107 111.258 145.301C111.238 145.495 111.219 145.698 111.2 145.911C111.219 146.066 111.229 146.202 111.229 146.318C111.229 146.415 111.229 146.502 111.229 146.58C111.229 146.793 111.219 146.967 111.2 147.103C111.2 147.219 111.219 147.49 111.258 147.916C111.277 148.129 111.277 148.333 111.258 148.526C111.258 148.701 111.306 148.865 111.403 149.02L111.374 149.369C111.296 149.446 111.258 149.534 111.258 149.63C111.258 149.785 111.277 149.921 111.316 150.037C111.355 150.153 111.345 150.289 111.287 150.444C111.287 150.521 111.277 150.609 111.258 150.705C111.258 150.783 111.248 150.87 111.229 150.967H111.2C111.083 151.277 111.074 151.567 111.171 151.839C111.267 152.09 111.296 152.381 111.258 152.71C111.296 152.885 111.267 153.069 111.171 153.262C111.093 153.456 111.103 153.64 111.2 153.814C111.238 153.873 111.248 153.95 111.229 154.047C111.229 154.144 111.18 154.212 111.083 154.25C110.987 154.289 110.938 154.27 110.938 154.192C110.938 154.115 110.928 154.066 110.909 154.047L110.648 152.333C110.589 152.236 110.512 152.158 110.415 152.1C110.338 152.042 110.25 152.042 110.154 152.1C110.037 152.178 109.911 152.207 109.776 152.187C109.66 152.168 109.553 152.149 109.456 152.129C109.379 152.129 109.321 152.158 109.282 152.216C109.263 152.274 109.282 152.429 109.34 152.681C109.263 152.623 109.224 152.526 109.224 152.391C109.243 152.255 109.175 152.168 109.02 152.129C108.904 152.187 108.817 152.178 108.759 152.1C108.701 152.023 108.623 151.974 108.526 151.955C108.372 151.916 108.217 151.916 108.062 151.955C107.926 151.994 107.81 151.984 107.713 151.926C107.713 151.829 107.723 151.732 107.742 151.635C107.781 151.519 107.781 151.412 107.742 151.316C107.742 150.58 107.752 149.96 107.771 149.456C107.79 148.933 107.8 148.439 107.8 147.974C107.8 147.509 107.79 147.025 107.771 146.521C107.771 145.998 107.742 145.379 107.684 144.662C107.781 144.584 107.79 144.517 107.713 144.458C107.655 144.4 107.655 144.352 107.713 144.313C107.674 143.965 107.664 143.616 107.684 143.267C107.723 142.899 107.732 142.531 107.713 142.163H107.742C107.8 142.047 107.8 141.931 107.742 141.814H107.713C107.81 141.776 107.829 141.737 107.771 141.698C107.713 141.64 107.723 141.592 107.8 141.553C107.839 141.32 107.829 141.146 107.771 141.03C107.713 140.894 107.732 140.73 107.829 140.536C107.732 140.4 107.703 140.245 107.742 140.071C107.8 139.897 107.771 139.751 107.655 139.635C107.674 139.267 107.664 138.918 107.626 138.589C107.587 138.241 107.626 137.892 107.742 137.543C107.878 137.524 108.013 137.514 108.149 137.514C108.304 137.514 108.459 137.514 108.614 137.514C108.943 137.514 109.253 137.485 109.543 137.427C109.776 137.504 110.057 137.543 110.386 137.543C110.735 137.524 111.045 137.524 111.316 137.543ZM113.902 148.788C113.941 148.885 113.911 148.943 113.815 148.962C113.737 148.981 113.698 149.04 113.698 149.136H112.972C113.166 149.04 113.33 148.972 113.466 148.933C113.602 148.875 113.747 148.827 113.902 148.788ZM114.221 139.083C114.241 138.986 114.26 138.889 114.28 138.793C114.299 138.676 114.328 138.599 114.367 138.56C114.386 138.754 114.396 138.957 114.396 139.17C114.415 139.364 114.425 139.567 114.425 139.78C114.425 139.994 114.425 140.207 114.425 140.42C114.425 140.613 114.415 140.807 114.396 141.001C114.396 141.388 114.386 141.785 114.367 142.192C114.347 142.58 114.357 142.948 114.396 143.296C114.357 143.451 114.338 143.635 114.338 143.848C114.357 144.061 114.328 144.178 114.25 144.197C114.192 143.558 114.173 142.88 114.192 142.163C114.231 141.427 114.231 140.72 114.192 140.042C114.231 139.906 114.241 139.751 114.221 139.577C114.221 139.383 114.221 139.219 114.221 139.083ZM122.608 132.081C122.724 132.236 122.743 132.4 122.666 132.575C122.608 132.73 122.588 132.894 122.608 133.069C122.608 133.475 122.598 133.911 122.579 134.376C122.579 134.822 122.598 135.248 122.637 135.655C122.579 135.732 122.569 135.839 122.608 135.974C122.588 136.071 122.579 136.216 122.579 136.41C122.579 136.546 122.598 136.672 122.637 136.788C122.598 137.059 122.588 137.349 122.608 137.659C122.627 137.969 122.627 138.279 122.608 138.589V139.635C122.569 140.139 122.559 140.633 122.579 141.117C122.598 141.582 122.588 142.057 122.55 142.541C122.588 142.56 122.598 142.58 122.579 142.599C122.559 142.618 122.569 142.628 122.608 142.628C122.608 143.616 122.579 144.584 122.52 145.534C122.501 145.805 122.501 146.066 122.52 146.318C122.559 146.55 122.559 146.802 122.52 147.073C122.559 147.132 122.559 147.199 122.52 147.277C122.501 147.335 122.511 147.393 122.55 147.451C122.53 147.819 122.511 148.178 122.491 148.526C122.472 148.856 122.482 149.195 122.52 149.543C122.52 149.64 122.52 149.737 122.52 149.834C122.54 149.931 122.53 150.037 122.491 150.153C122.511 150.463 122.54 150.754 122.579 151.025C122.617 151.296 122.588 151.577 122.491 151.868L122.143 152.071C121.988 152.013 121.804 151.984 121.591 151.984C121.397 151.984 121.223 152.032 121.068 152.129C120.971 152.129 120.893 152.1 120.835 152.042C120.777 151.984 120.709 151.945 120.632 151.926C120.38 151.887 120.148 151.897 119.934 151.955C119.741 152.032 119.537 152.071 119.324 152.071C119.111 152.013 118.995 151.887 118.976 151.693C118.976 151.48 118.956 151.287 118.918 151.112C118.976 150.957 118.995 150.793 118.976 150.618C118.976 150.425 119.024 150.26 119.121 150.124C119.14 149.911 119.15 149.708 119.15 149.514C119.15 149.32 119.15 149.127 119.15 148.933C119.15 148.739 119.15 148.546 119.15 148.352C119.169 148.139 119.189 147.926 119.208 147.713C119.111 147.422 119.082 147.122 119.121 146.812C119.179 146.502 119.189 146.182 119.15 145.853C119.111 145.621 119.102 145.398 119.121 145.185C119.14 144.952 119.131 144.73 119.092 144.517C119.15 144.052 119.179 143.596 119.179 143.151V140.594C119.082 140.497 119.073 140.4 119.15 140.303C119.227 140.207 119.227 140.1 119.15 139.984C119.208 139.422 119.208 138.851 119.15 138.27C119.092 138.25 119.082 138.231 119.121 138.211C119.16 138.192 119.16 138.163 119.121 138.124C119.179 137.911 119.198 137.659 119.179 137.369C119.16 137.059 119.16 136.797 119.179 136.584C119.218 136.371 119.227 136.158 119.208 135.945C119.208 135.732 119.208 135.519 119.208 135.306C119.169 135.19 119.16 135.064 119.179 134.928C119.218 134.773 119.218 134.638 119.179 134.521C119.218 134.173 119.227 133.824 119.208 133.475C119.189 133.127 119.16 132.768 119.121 132.4C119.16 132.342 119.169 132.284 119.15 132.226C119.15 132.148 119.189 132.09 119.266 132.052C119.77 132.09 120.303 132.1 120.864 132.081C121.445 132.042 121.988 132.042 122.491 132.081H122.608ZM129.843 148.468V148.439C130.327 148.497 130.724 148.517 131.034 148.497C131.363 148.478 131.77 148.468 132.254 148.468C132.37 148.565 132.419 148.681 132.399 148.817C132.38 148.952 132.399 149.078 132.458 149.195C132.496 149.388 132.516 149.582 132.516 149.776C132.535 149.969 132.496 150.153 132.399 150.328C132.438 150.444 132.448 150.56 132.428 150.676C132.409 150.773 132.419 150.87 132.458 150.967C132.419 151.141 132.419 151.325 132.458 151.519C132.496 151.713 132.428 151.877 132.254 152.013C132.099 151.858 131.915 151.8 131.702 151.839C131.508 151.877 131.315 151.887 131.121 151.868C130.734 151.829 130.424 151.81 130.191 151.81C129.978 151.79 129.678 151.8 129.29 151.839C129.155 151.916 129 151.945 128.826 151.926C128.651 151.906 128.487 151.906 128.332 151.926C128.041 151.81 127.731 151.771 127.402 151.81C127.092 151.848 126.782 151.868 126.472 151.868C126.453 152.003 126.385 152.052 126.269 152.013C126.152 151.994 126.065 151.984 126.007 151.984C125.91 151.984 125.813 152.023 125.717 152.1C125.62 152.178 125.523 152.158 125.426 152.042C125.29 152.003 125.145 152.013 124.99 152.071C124.855 152.129 124.748 152.061 124.671 151.868C124.671 151.713 124.68 151.567 124.7 151.432C124.738 151.277 124.729 151.122 124.671 150.967C124.709 150.851 124.709 150.725 124.671 150.589C124.651 150.434 124.651 150.289 124.671 150.153C124.671 149.96 124.661 149.766 124.642 149.572C124.642 149.379 124.661 149.195 124.7 149.02C124.661 148.943 124.661 148.865 124.7 148.788C124.738 148.691 124.738 148.604 124.7 148.526C124.855 148.429 125.01 148.4 125.165 148.439C125.339 148.478 125.504 148.488 125.658 148.468C125.949 148.41 126.249 148.4 126.559 148.439C126.889 148.478 127.218 148.478 127.547 148.439C127.702 148.478 127.828 148.497 127.925 148.497C128.041 148.478 128.177 148.468 128.332 148.468C128.583 148.488 128.826 148.497 129.058 148.497C129.29 148.478 129.542 148.468 129.813 148.468H129.843ZM126.879 132.052C126.976 132.013 127.073 132.013 127.169 132.052C127.286 132.09 127.392 132.09 127.489 132.052H132.109C132.167 132.129 132.186 132.216 132.167 132.313C132.167 132.391 132.177 132.468 132.196 132.546C132.177 132.856 132.196 133.175 132.254 133.504C132.332 133.834 132.322 134.144 132.225 134.434C132.186 134.531 132.177 134.628 132.196 134.725C132.215 134.822 132.225 134.918 132.225 135.015C132.244 135.112 132.244 135.199 132.225 135.277C132.206 135.354 132.148 135.422 132.051 135.48C131.915 135.403 131.76 135.364 131.586 135.364C131.431 135.364 131.276 135.412 131.121 135.509C130.714 135.354 130.385 135.287 130.133 135.306C129.881 135.325 129.533 135.325 129.087 135.306C128.797 135.287 128.496 135.287 128.186 135.306C127.896 135.306 127.605 135.287 127.315 135.248C127.024 135.267 126.734 135.296 126.443 135.335C126.172 135.374 125.901 135.374 125.629 135.335C125.571 135.374 125.494 135.393 125.397 135.393C125.32 135.393 125.232 135.403 125.135 135.422C125.058 135.422 124.981 135.441 124.903 135.48C124.845 135.5 124.806 135.567 124.787 135.684C124.787 135.722 124.796 135.771 124.816 135.829C124.835 135.887 124.826 135.935 124.787 135.974C124.709 135.974 124.671 135.935 124.671 135.858C124.69 135.761 124.68 135.693 124.642 135.655C124.525 135.5 124.496 135.335 124.554 135.161C124.632 134.986 124.651 134.822 124.612 134.667C124.632 134.299 124.651 133.921 124.671 133.533C124.69 133.146 124.69 132.759 124.671 132.371C124.671 132.313 124.661 132.245 124.642 132.168C124.622 132.09 124.642 132.032 124.7 131.994C125.029 132.032 125.387 132.042 125.775 132.023C126.162 132.003 126.53 132.013 126.879 132.052ZM127.867 140.274C128.235 140.274 128.574 140.294 128.884 140.333C129.213 140.352 129.571 140.342 129.959 140.303C130.075 140.226 130.152 140.255 130.191 140.391C130.23 140.507 130.278 140.584 130.336 140.623C130.356 140.739 130.404 140.836 130.482 140.914C130.52 141.03 130.53 141.146 130.511 141.262C130.491 141.359 130.462 141.466 130.424 141.582C130.385 141.679 130.356 141.785 130.336 141.902C130.317 141.998 130.336 142.105 130.395 142.221C130.395 142.667 130.424 143.093 130.482 143.5C130.443 143.558 130.404 143.626 130.366 143.703C130.346 143.761 130.307 143.81 130.249 143.848C130.133 143.848 130.065 143.897 130.046 143.994C130.027 144.09 129.968 144.149 129.872 144.168C129.833 144.09 129.813 144.013 129.813 143.935C129.833 143.858 129.804 143.79 129.726 143.732C129.571 143.732 129.416 143.78 129.261 143.877C129.106 143.955 128.961 143.897 128.826 143.703C128.748 143.684 128.68 143.713 128.622 143.79C128.564 143.868 128.516 143.848 128.477 143.732C128.283 143.693 128.128 143.674 128.012 143.674C127.896 143.674 127.741 143.655 127.547 143.616C127.508 143.713 127.47 143.732 127.431 143.674C127.412 143.596 127.373 143.567 127.315 143.587C126.889 143.567 126.52 143.567 126.211 143.587C125.92 143.587 125.552 143.596 125.106 143.616C125.068 143.635 125.039 143.693 125.019 143.79C125.019 143.887 125.019 143.994 125.019 144.11C125.019 144.207 125.019 144.303 125.019 144.4C125.039 144.478 125.048 144.536 125.048 144.575C125.048 144.633 125.01 144.73 124.932 144.865C124.874 145.001 124.816 145.049 124.758 145.011C124.661 144.952 124.622 144.865 124.642 144.749C124.661 144.633 124.69 144.526 124.729 144.429C124.748 144.371 124.748 144.294 124.729 144.197C124.709 144.081 124.68 143.965 124.642 143.848C124.622 143.732 124.603 143.626 124.583 143.529C124.583 143.412 124.603 143.325 124.642 143.267C124.603 143.228 124.583 143.17 124.583 143.093C124.583 142.977 124.593 142.889 124.612 142.831C124.612 142.754 124.612 142.696 124.612 142.657C124.632 142.599 124.632 142.521 124.612 142.425L124.7 140.274C125.145 140.236 125.513 140.236 125.804 140.274C126.114 140.313 126.472 140.323 126.879 140.303C127.034 140.303 127.198 140.303 127.373 140.303C127.547 140.284 127.712 140.274 127.867 140.274ZM144.917 143.994C144.879 144.032 144.879 144.071 144.917 144.11C145.092 144.323 145.247 144.565 145.382 144.836C145.537 145.088 145.692 145.32 145.847 145.534C146.002 145.766 146.138 145.998 146.254 146.231C146.39 146.463 146.506 146.686 146.603 146.899C146.835 147.228 147.048 147.577 147.242 147.945C147.436 148.294 147.658 148.633 147.91 148.962C147.988 149.175 148.085 149.379 148.201 149.572C148.336 149.766 148.453 149.969 148.549 150.182C148.763 150.454 148.956 150.705 149.131 150.938C149.305 151.151 149.479 151.393 149.654 151.664C149.615 151.761 149.625 151.819 149.683 151.839C149.741 151.858 149.731 151.916 149.654 152.013C149.673 152.245 149.654 152.333 149.595 152.274C149.537 152.216 149.46 152.129 149.363 152.013C149.286 151.897 149.208 151.81 149.131 151.751C149.072 151.674 149.043 151.742 149.043 151.955C149.024 152.032 148.976 152.061 148.898 152.042C148.84 152.042 148.763 152.023 148.666 151.984C148.588 151.965 148.501 151.945 148.404 151.926C148.327 151.926 148.269 151.965 148.23 152.042C148.21 152.119 148.201 152.226 148.201 152.362C148.201 152.497 148.201 152.633 148.201 152.768C148.201 152.923 148.201 153.069 148.201 153.204C148.22 153.34 148.23 153.437 148.23 153.495C148.23 153.553 148.191 153.621 148.114 153.698C148.036 153.776 147.978 153.795 147.939 153.756C147.881 153.718 147.852 153.621 147.852 153.466C147.852 153.33 147.862 153.175 147.881 153.001C147.901 152.846 147.92 152.691 147.939 152.536C147.959 152.4 147.959 152.304 147.939 152.245C147.901 152.129 147.871 152.061 147.852 152.042C147.794 151.965 147.668 151.916 147.474 151.897C147.3 151.877 147.116 151.868 146.922 151.868C146.729 151.868 146.545 151.868 146.37 151.868C146.215 151.848 146.118 151.81 146.08 151.751C146.002 151.635 145.944 151.567 145.905 151.548C145.886 151.509 145.867 151.48 145.847 151.461C145.828 151.422 145.799 151.383 145.76 151.345C145.741 151.306 145.702 151.228 145.644 151.112C145.489 150.783 145.276 150.444 145.005 150.095C144.753 149.747 144.54 149.408 144.365 149.078C144.152 148.691 143.939 148.352 143.726 148.061C143.532 147.751 143.31 147.412 143.058 147.044C142.864 146.773 142.69 146.492 142.535 146.202C142.38 145.911 142.215 145.63 142.041 145.359C141.905 145.146 141.741 144.943 141.547 144.749C141.373 144.555 141.276 144.323 141.256 144.052C141.179 144.071 141.14 144.119 141.14 144.197C141.14 144.274 141.111 144.323 141.053 144.342C140.956 144.342 140.908 144.294 140.908 144.197V144.081C140.908 144.061 140.888 144.032 140.85 143.994C140.675 143.897 140.569 143.8 140.53 143.703C140.511 143.587 140.511 143.471 140.53 143.354C140.569 143.238 140.598 143.122 140.617 143.006C140.656 142.87 140.656 142.744 140.617 142.628C140.598 142.531 140.627 142.444 140.704 142.366C140.782 142.289 140.772 142.202 140.675 142.105C140.733 141.892 140.733 141.688 140.675 141.495C140.637 141.301 140.627 141.088 140.646 140.856C140.704 140.759 140.859 140.71 141.111 140.71C141.305 140.71 141.518 140.72 141.75 140.739C142.002 140.759 142.244 140.778 142.477 140.797C142.709 140.817 142.922 140.836 143.116 140.856C143.31 140.856 143.445 140.846 143.523 140.826C143.697 140.788 143.881 140.739 144.075 140.681C144.288 140.623 144.491 140.565 144.685 140.507C144.898 140.429 145.082 140.352 145.237 140.274C145.411 140.197 145.547 140.11 145.644 140.013C145.779 139.897 145.876 139.761 145.934 139.606C145.993 139.451 146.041 139.287 146.08 139.112C146.138 138.841 146.157 138.55 146.138 138.241C146.118 137.931 146.089 137.621 146.051 137.311C146.012 136.981 145.828 136.652 145.499 136.323C145.169 135.994 144.859 135.722 144.569 135.509C144.511 135.471 144.385 135.441 144.191 135.422C143.997 135.383 143.775 135.364 143.523 135.364C143.271 135.345 143 135.335 142.709 135.335C142.438 135.316 142.186 135.306 141.954 135.306H141.315C141.276 135.345 141.247 135.461 141.227 135.655C141.227 135.829 141.218 136.013 141.198 136.207C141.198 136.4 141.169 136.565 141.111 136.701C141.072 136.836 140.995 136.875 140.879 136.817C140.859 136.817 140.85 136.768 140.85 136.672V135.771C140.869 135.655 140.85 135.558 140.792 135.48C140.753 135.383 140.753 135.287 140.792 135.19C140.675 135.151 140.608 135.102 140.588 135.044C140.569 134.986 140.559 134.918 140.559 134.841C140.578 134.764 140.588 134.696 140.588 134.638C140.608 134.56 140.588 134.492 140.53 134.434C140.588 134.318 140.608 134.202 140.588 134.086C140.569 133.969 140.54 133.853 140.501 133.737C140.482 133.621 140.462 133.504 140.443 133.388C140.443 133.272 140.472 133.156 140.53 133.04C140.491 132.981 140.472 132.904 140.472 132.807C140.491 132.71 140.52 132.623 140.559 132.546C140.52 132.449 140.52 132.381 140.559 132.342C140.617 132.303 140.646 132.236 140.646 132.139C140.666 132.119 140.724 132.119 140.821 132.139C140.937 132.158 141.005 132.158 141.024 132.139C141.121 132.119 141.208 132.11 141.286 132.11C141.382 132.11 141.479 132.11 141.576 132.11C141.673 132.11 141.76 132.119 141.838 132.139C141.915 132.139 141.993 132.148 142.07 132.168C142.206 132.129 142.361 132.081 142.535 132.023C142.729 131.964 142.903 131.945 143.058 131.964C143.193 132.023 143.368 132.071 143.581 132.11C143.794 132.129 144.007 132.158 144.22 132.197C144.453 132.216 144.675 132.245 144.888 132.284C145.101 132.303 145.276 132.342 145.411 132.4C145.624 132.439 145.789 132.507 145.905 132.604C146.041 132.701 146.206 132.768 146.399 132.807C146.884 133.078 147.319 133.437 147.707 133.882C148.114 134.328 148.453 134.744 148.724 135.132C148.995 135.519 149.169 136.003 149.247 136.584C149.324 137.165 149.382 137.679 149.421 138.124C149.344 138.241 149.305 138.366 149.305 138.502C149.324 138.638 149.324 138.764 149.305 138.88C149.286 139.035 149.266 139.199 149.247 139.374C149.227 139.529 149.198 139.693 149.16 139.868L149.189 139.897C149.208 140.071 149.179 140.187 149.102 140.245C149.043 140.284 149.005 140.323 148.985 140.362C148.908 140.458 148.85 140.575 148.811 140.71C148.772 140.826 148.733 140.952 148.695 141.088C148.656 141.204 148.608 141.32 148.549 141.437C148.491 141.553 148.404 141.65 148.288 141.727C148.288 141.824 148.21 141.931 148.055 142.047C147.997 142.202 147.939 142.308 147.881 142.366C147.823 142.405 147.765 142.454 147.707 142.512C147.649 142.55 147.581 142.599 147.503 142.657C147.426 142.715 147.329 142.812 147.213 142.948C146.825 143.025 146.448 143.199 146.08 143.471C145.731 143.742 145.344 143.916 144.917 143.994ZM138.525 132.284C138.467 132.981 138.428 133.466 138.409 133.737C138.409 134.008 138.409 134.182 138.409 134.26C138.428 134.318 138.448 134.357 138.467 134.376C138.486 134.376 138.496 134.463 138.496 134.638C138.516 135.064 138.525 135.5 138.525 135.945C138.525 136.371 138.525 136.807 138.525 137.253V139.897C138.583 140.09 138.603 140.303 138.583 140.536C138.564 140.749 138.554 140.962 138.554 141.175C138.574 141.756 138.574 142.347 138.554 142.948C138.535 143.548 138.525 144.139 138.525 144.72C138.525 145.417 138.535 146.144 138.554 146.899C138.574 147.635 138.574 148.362 138.554 149.078C138.574 149.078 138.583 149.088 138.583 149.107C138.564 149.32 138.554 149.543 138.554 149.776C138.554 149.989 138.554 150.202 138.554 150.415C138.554 150.628 138.554 150.851 138.554 151.083C138.574 151.296 138.593 151.509 138.612 151.722C138.612 151.819 138.554 151.926 138.438 152.042C138.341 152.081 138.283 152.061 138.264 151.984C138.244 151.906 138.196 151.868 138.118 151.868C137.847 151.848 137.566 151.839 137.276 151.839C137.005 151.819 136.762 151.877 136.549 152.013C136.375 151.916 136.172 151.868 135.939 151.868C135.707 151.848 135.484 151.848 135.271 151.868C135.232 151.906 135.213 151.926 135.213 151.926C135.193 151.926 135.174 151.935 135.155 151.955C135.097 151.916 135.039 151.877 134.98 151.839C134.922 151.781 134.922 151.713 134.98 151.635C134.98 151.596 135 151.577 135.039 151.577C135.077 151.19 135.077 150.802 135.039 150.415C135 150.008 135 149.611 135.039 149.224C134.961 149.03 134.942 148.836 134.98 148.642C135.039 148.449 135.048 148.265 135.009 148.09C135.048 147.839 135.048 147.587 135.009 147.335C134.971 147.083 134.98 146.822 135.039 146.55C135 146.454 134.99 146.357 135.009 146.26C135.029 146.163 135.019 146.066 134.98 145.969C135.019 145.388 135.019 144.826 134.98 144.284C134.961 143.722 134.971 143.132 135.009 142.512C134.99 142.318 134.971 142.124 134.951 141.931C134.932 141.737 134.932 141.553 134.951 141.379C134.932 141.107 134.951 140.856 135.009 140.623C135.068 140.391 135.058 140.139 134.98 139.868C134.942 139.81 134.951 139.78 135.009 139.78C135.048 139.78 135.058 139.751 135.039 139.693C135.019 139.616 135.019 139.548 135.039 139.49C135.077 139.451 135.058 139.412 134.98 139.374C134.903 139.335 134.884 139.296 134.922 139.257C135.039 139.161 135.077 138.986 135.039 138.734C135.019 138.483 135 138.279 134.98 138.124C134.961 137.834 134.942 137.553 134.922 137.282C134.922 136.991 134.961 136.71 135.039 136.439C134.942 136.323 134.884 136.197 134.864 136.061C134.864 135.906 134.864 135.761 134.864 135.625C134.903 135.471 134.913 135.325 134.893 135.19C134.874 135.054 134.893 134.909 134.951 134.754C134.951 134.599 134.942 134.444 134.922 134.289C134.922 134.115 134.942 133.95 134.98 133.795C135.019 133.524 135.019 133.253 134.98 132.981C134.961 132.71 134.961 132.449 134.98 132.197C135.193 132.178 135.407 132.168 135.62 132.168C135.833 132.148 136.046 132.139 136.259 132.139C136.491 132.139 136.714 132.129 136.927 132.11C137.16 132.071 137.382 132.032 137.595 131.994C137.692 131.994 137.741 131.994 137.741 131.994C137.741 131.994 137.75 132.003 137.77 132.023C137.789 132.042 137.847 132.071 137.944 132.11C138.041 132.148 138.235 132.207 138.525 132.284ZM85.7978 167.517C85.7784 167.904 85.7688 168.349 85.7688 168.853C85.7881 169.337 85.7784 169.783 85.7397 170.19C85.6041 170.287 85.4588 170.335 85.3039 170.335C85.1489 170.316 85.023 170.383 84.9261 170.538C84.5968 170.848 84.345 171.168 84.1707 171.497C84.0738 171.71 84.0448 171.885 84.0835 172.02C84.1223 172.156 84.1416 172.33 84.1416 172.543C84.2579 172.679 84.345 172.814 84.4031 172.95C84.4613 173.066 84.5291 173.182 84.6065 173.299C84.7034 173.415 84.8293 173.531 84.9843 173.647C85.1392 173.764 85.362 173.88 85.6525 173.996C85.8075 174.054 86.0206 174.151 86.2918 174.287C86.563 174.422 86.776 174.5 86.931 174.519C87.2603 174.558 87.5509 174.626 87.8027 174.722C88.0739 174.8 88.3644 174.858 88.6743 174.897C88.7712 174.955 88.8777 175.003 88.994 175.042C89.1295 175.061 89.2458 175.119 89.3426 175.216C89.6719 175.352 89.9528 175.507 90.1852 175.681C90.4371 175.836 90.7276 175.981 91.0569 176.117C91.1538 176.233 91.3281 176.359 91.5799 176.495C91.8317 176.63 92.0158 176.756 92.132 176.872C92.2869 177.027 92.3935 177.115 92.4516 177.134C92.5097 177.153 92.6066 177.25 92.7422 177.425C92.8584 177.599 92.9455 177.783 93.0037 177.977C93.1005 178.287 93.207 178.616 93.3233 178.965C93.4589 179.313 93.5654 179.652 93.6429 179.981C93.701 180.233 93.7204 180.534 93.701 180.882C93.701 181.231 93.6719 181.58 93.6138 181.928C93.5557 182.277 93.4782 182.616 93.3814 182.945C93.2845 183.255 93.178 183.517 93.0618 183.73C92.9649 183.885 92.8681 184.03 92.7712 184.165C92.6937 184.282 92.5969 184.398 92.4806 184.514C92.2095 184.824 91.9673 185.095 91.7543 185.328C91.5412 185.541 91.2409 185.705 90.8535 185.822C90.6598 185.957 90.4661 186.103 90.2724 186.258C90.0981 186.412 90.0109 186.616 90.0109 186.868C90.0109 186.926 90.0109 186.994 90.0109 187.071C90.0303 187.149 90.0109 187.207 89.9528 187.245C89.8559 187.245 89.7978 187.207 89.7785 187.129C89.7785 187.052 89.7785 186.965 89.7785 186.868C89.7978 186.751 89.8172 186.645 89.8366 186.548C89.8753 186.451 89.8947 186.383 89.8947 186.345C89.8366 186.287 89.7785 186.277 89.7203 186.316C89.6429 186.567 89.5848 186.732 89.546 186.81C89.5073 186.868 89.4685 186.887 89.4298 186.868C89.4104 186.829 89.3911 186.771 89.3717 186.693C89.3523 186.616 89.3233 186.567 89.2845 186.548C89.0908 186.645 88.994 186.819 88.994 187.071C88.994 187.168 88.9843 187.265 88.9649 187.362C88.9649 187.478 88.9358 187.575 88.8777 187.652C88.8196 187.652 88.7712 187.633 88.7325 187.594C88.7712 187.439 88.7809 187.294 88.7615 187.158C88.7421 187.023 88.7421 186.887 88.7615 186.751C88.7034 186.693 88.6356 186.664 88.5581 186.664C88.3257 186.761 88.1804 186.819 88.1223 186.839C88.0835 186.839 88.0739 186.819 88.0932 186.781C88.1126 186.722 88.132 186.664 88.1513 186.606C88.1901 186.548 88.1707 186.509 88.0932 186.49C88.0157 186.451 88.0061 186.412 88.0642 186.374C88.1417 186.335 88.161 186.277 88.1223 186.199C88.1223 186.083 88.1126 185.977 88.0932 185.88C88.0932 185.783 88.0545 185.667 87.977 185.531C87.977 185.318 87.977 185.105 87.977 184.892C87.9964 184.659 87.9867 184.437 87.9479 184.224C88.0448 184.107 88.1029 184.049 88.1223 184.049C88.1417 184.03 88.1901 183.962 88.2676 183.846C88.2869 183.788 88.2772 183.739 88.2385 183.701C88.1998 183.662 88.2191 183.623 88.2966 183.584C88.4516 183.488 88.6162 183.439 88.7906 183.439C88.9455 183.342 89.0424 183.255 89.0811 183.178C89.1392 183.081 89.2555 183.003 89.4298 182.945C89.5266 182.829 89.5944 182.713 89.6332 182.596C89.6719 182.48 89.7397 182.364 89.8366 182.248C90.069 182.015 90.2046 181.715 90.2434 181.347C90.2821 180.96 90.3208 180.621 90.3596 180.33C90.3789 180.136 90.3112 179.991 90.1562 179.894C90.0206 179.778 89.9044 179.642 89.8075 179.488C89.6332 179.216 89.3814 179.013 89.0521 178.877C88.7228 178.722 88.4225 178.616 88.1513 178.558C88.0157 178.519 87.8802 178.48 87.7446 178.441C87.609 178.383 87.4734 178.393 87.3378 178.471C87.299 178.49 87.2797 178.432 87.2797 178.296C87.299 178.161 87.2797 178.103 87.2216 178.122C87.1634 178.161 87.0763 178.132 86.9601 178.035C86.8051 177.938 86.6404 177.822 86.4661 177.686C86.2918 177.55 86.1755 177.56 86.1174 177.715C86.0981 177.754 86.069 177.764 86.0303 177.744C85.9915 177.705 85.9528 177.667 85.914 177.628C85.8753 177.589 85.8366 177.56 85.7978 177.541C85.7784 177.502 85.7688 177.502 85.7688 177.541C85.7107 177.793 85.6525 177.889 85.5944 177.831C85.5557 177.754 85.546 177.686 85.5654 177.628C85.6041 177.492 85.5363 177.405 85.362 177.366C85.207 177.308 85.1005 177.299 85.0424 177.337C84.9455 177.434 84.8777 177.415 84.839 177.279C84.8196 177.144 84.7518 177.076 84.6356 177.076C84.4806 177.076 84.345 177.027 84.2288 176.931C84.132 176.834 84.006 176.756 83.8511 176.698C83.5024 176.582 83.1925 176.466 82.9213 176.349C82.6501 176.214 82.3789 176.011 82.1077 175.739C81.9915 175.623 81.8947 175.507 81.8172 175.391C81.7397 175.274 81.6428 175.168 81.5266 175.071C81.4685 175.013 81.4104 174.964 81.3523 174.926C81.2942 174.887 81.2457 174.819 81.207 174.722C81.1683 174.567 81.1392 174.432 81.1198 174.316C81.1198 174.199 81.0714 174.073 80.9746 173.938C80.8777 173.802 80.839 173.676 80.8583 173.56C80.8971 173.444 80.8777 173.318 80.8002 173.182C80.7034 173.008 80.684 172.814 80.7421 172.601C80.8196 172.369 80.8099 172.165 80.7131 171.991C80.7518 171.875 80.7615 171.768 80.7421 171.672C80.7227 171.555 80.7421 171.439 80.8002 171.323C80.8002 171.071 80.839 170.839 80.9164 170.625C81.0133 170.412 81.0811 170.19 81.1198 169.957C81.1973 169.841 81.2651 169.725 81.3232 169.609C81.4007 169.492 81.4685 169.366 81.5266 169.231C81.8753 168.785 82.224 168.446 82.5726 168.214C82.9407 167.962 83.3862 167.73 83.9092 167.517C83.9867 167.497 84.0545 167.478 84.1126 167.458C84.1707 167.439 84.2191 167.42 84.2579 167.4C84.4903 167.303 84.7131 167.226 84.9261 167.168C85.1392 167.11 85.4007 167.042 85.7107 166.964C85.7107 167.061 85.7397 167.139 85.7978 167.197C85.8753 167.255 85.914 167.313 85.914 167.371C85.914 167.41 85.8753 167.458 85.7978 167.517ZM91.4056 167.981C91.4831 168.098 91.5799 168.146 91.6961 168.127C91.8317 168.088 91.9189 168.136 91.9576 168.272C92.1901 168.446 92.3644 168.64 92.4806 168.853C92.6162 169.066 92.7712 169.279 92.9455 169.492C92.9455 169.589 92.9843 169.696 93.0618 169.812C93.1586 169.928 93.207 170.035 93.207 170.132C93.207 170.19 93.1586 170.248 93.0618 170.306C92.8874 170.403 92.7034 170.49 92.5097 170.567C92.3354 170.645 92.1707 170.732 92.0158 170.829C91.8802 170.926 91.7446 171.003 91.609 171.061C91.4734 171.1 91.3475 171.168 91.2312 171.265C91.0763 171.265 90.9407 171.303 90.8245 171.381C90.7276 171.458 90.6211 171.526 90.5049 171.584C90.4274 171.604 90.3305 171.604 90.2143 171.584C90.2337 171.449 90.1949 171.352 90.0981 171.294C90.0206 171.216 89.9431 171.11 89.8656 170.974C89.7881 170.8 89.6622 170.664 89.4879 170.567C89.3136 170.471 89.1489 170.374 88.994 170.277C88.8777 170.354 88.7712 170.354 88.6743 170.277C88.5969 170.199 88.5097 170.19 88.4128 170.248C88.3741 170.287 88.3547 170.393 88.3547 170.567C88.3741 170.722 88.3838 170.897 88.3838 171.09C88.3838 171.284 88.3741 171.449 88.3547 171.584C88.3547 171.72 88.3063 171.778 88.2094 171.759C88.1513 171.662 88.0932 171.429 88.0351 171.061C87.9964 170.674 87.977 170.316 87.977 169.986C87.977 169.754 88.0061 169.579 88.0642 169.463C88.0642 169.037 88.0739 168.64 88.0932 168.272C88.1126 167.904 88.1223 167.497 88.1223 167.052C88.1029 167.052 88.1513 167.032 88.2676 166.994C88.8487 166.994 89.4007 167.081 89.9237 167.255C90.4661 167.429 90.9601 167.671 91.4056 167.981ZM81.73 180.882C81.9625 180.863 82.224 180.863 82.5145 180.882C82.8051 180.882 83.0569 180.892 83.27 180.911C83.3474 180.989 83.3862 181.095 83.3862 181.231C83.4056 181.347 83.4443 181.454 83.5024 181.55C83.5412 181.705 83.5702 181.851 83.5896 181.986C83.609 182.122 83.6671 182.267 83.7639 182.422C84.0351 182.655 84.316 182.916 84.6065 183.207C84.8971 183.497 85.2361 183.642 85.6235 183.642C85.701 183.701 85.7397 183.749 85.7397 183.788C85.7591 183.807 85.7688 183.836 85.7688 183.875V183.962C85.7688 183.962 85.7881 184.02 85.8269 184.136C85.8269 184.408 85.7881 184.698 85.7107 185.008C85.6525 185.299 85.6235 185.589 85.6235 185.88C85.6235 186.073 85.6622 186.238 85.7397 186.374C85.7397 186.451 85.7107 186.509 85.6525 186.548C85.6138 186.587 85.5751 186.626 85.5363 186.664C85.4976 186.684 85.4685 186.722 85.4492 186.781C85.4298 186.819 85.4395 186.887 85.4782 186.984C85.4395 187.139 85.4395 187.313 85.4782 187.507C85.5363 187.72 85.5266 187.885 85.4492 188.001C85.4104 188.04 85.3717 188.04 85.3329 188.001C85.2942 187.981 85.2748 187.952 85.2748 187.914C85.3136 187.72 85.3136 187.526 85.2748 187.333C85.2554 187.158 85.2458 186.974 85.2458 186.781C85.207 186.742 85.178 186.713 85.1586 186.693C85.1392 186.655 85.1102 186.626 85.0714 186.606C84.9746 186.567 84.9068 186.596 84.868 186.693C84.8293 186.771 84.7809 186.79 84.7228 186.751C84.7228 186.693 84.7324 186.635 84.7518 186.577C84.7712 186.519 84.7324 186.471 84.6356 186.432C84.4419 186.451 84.3644 186.538 84.4031 186.693C84.4613 186.848 84.4613 186.974 84.4031 187.071C84.3063 187.207 84.2385 187.207 84.1998 187.071C84.1804 186.955 84.1707 186.819 84.1707 186.664C83.7833 186.451 83.4152 186.219 83.0666 185.967C82.7179 185.715 82.3596 185.483 81.9915 185.27C81.7397 185.134 81.5557 184.95 81.4395 184.718C81.3426 184.485 81.207 184.272 81.0327 184.078C80.9164 183.943 80.8099 183.817 80.7131 183.701C80.6356 183.565 80.529 183.42 80.3934 183.265C80.2966 183.149 80.2579 183.032 80.2772 182.916C80.2966 182.78 80.2579 182.626 80.161 182.451C80.0641 182.219 80.0157 181.986 80.0157 181.754C80.0157 181.618 80.0157 181.492 80.0157 181.376C80.0157 181.241 80.006 181.105 79.9867 180.969C80.0254 180.95 80.0351 180.931 80.0157 180.911C79.9963 180.892 80.006 180.873 80.0448 180.853C80.1997 180.834 80.345 180.824 80.4806 180.824C80.6162 180.824 80.7518 180.824 80.8874 180.824C81.023 180.824 81.1586 180.834 81.2942 180.853C81.4298 180.853 81.575 180.863 81.73 180.882ZM88.2094 171.875C88.2288 171.894 88.2385 171.952 88.2385 172.049V172.195C88.1998 172.233 88.1901 172.272 88.2094 172.311C88.2288 172.33 88.2385 172.349 88.2385 172.369C88.2191 172.427 88.2094 172.485 88.2094 172.543C88.2288 172.601 88.2385 172.659 88.2385 172.718C88.2191 172.737 88.1998 172.747 88.1804 172.747C88.161 172.65 88.1513 172.553 88.1513 172.456C88.1707 172.359 88.1707 172.262 88.1513 172.165C88.1513 172.107 88.1417 172.059 88.1223 172.02C88.1223 171.962 88.1417 171.904 88.1804 171.846L88.2094 171.875ZM88.0932 173.705C88.1126 173.802 88.0835 173.841 88.0061 173.822C87.9286 173.802 87.8705 173.812 87.8317 173.851C87.8317 173.831 87.8511 173.764 87.8898 173.647C87.9479 173.609 88.0157 173.628 88.0932 173.705ZM108.514 179.429C108.553 179.313 108.572 179.255 108.572 179.255C108.572 179.178 108.543 179.129 108.485 179.11C108.446 179.09 108.427 178.994 108.427 178.819C108.35 178.839 108.301 178.81 108.282 178.732C108.262 178.635 108.204 178.577 108.107 178.558C108.011 178.616 107.952 178.655 107.933 178.674C107.914 178.674 107.904 178.684 107.904 178.703C107.904 178.722 107.904 178.751 107.904 178.79C107.923 178.81 107.923 178.858 107.904 178.935C107.865 178.974 107.836 179.013 107.817 179.052C107.798 179.071 107.759 179.071 107.701 179.052C107.662 178.897 107.652 178.8 107.672 178.761C107.71 178.722 107.71 178.626 107.672 178.471C107.633 178.335 107.604 178.267 107.584 178.267C107.584 178.248 107.575 178.257 107.555 178.296C107.555 178.335 107.536 178.374 107.497 178.412C107.459 178.451 107.381 178.451 107.265 178.412C107.187 178.374 107.129 178.374 107.09 178.412C107.071 178.432 107.052 178.48 107.032 178.558C107.032 178.616 107.023 178.684 107.003 178.761C107.003 178.839 106.984 178.906 106.945 178.965C106.926 179.023 106.906 179.1 106.887 179.197C106.868 179.294 106.848 179.391 106.829 179.488C106.81 179.584 106.79 179.672 106.771 179.749C106.751 179.807 106.722 179.826 106.684 179.807C106.626 179.749 106.587 179.662 106.567 179.546C106.567 179.429 106.567 179.313 106.567 179.197C106.567 179.061 106.558 178.935 106.538 178.819C106.538 178.703 106.509 178.606 106.451 178.529C106.277 178.587 106.199 178.713 106.219 178.906C106.258 179.081 106.267 179.236 106.248 179.371C106.132 179.604 106.112 179.885 106.19 180.214C106.267 180.524 106.267 180.795 106.19 181.027C106.151 181.124 106.141 181.26 106.161 181.434C106.199 181.609 106.161 181.686 106.044 181.667C105.948 181.667 105.89 181.55 105.87 181.318C105.87 181.086 105.87 180.814 105.87 180.504C105.89 180.175 105.909 179.836 105.928 179.488C105.948 179.119 105.948 178.81 105.928 178.558C105.812 178.422 105.754 178.199 105.754 177.889C105.754 177.696 105.764 177.483 105.783 177.25C105.822 176.998 105.841 176.756 105.841 176.524C105.86 176.291 105.87 176.078 105.87 175.885C105.87 175.672 105.841 175.497 105.783 175.362C106.074 175.362 106.335 175.371 106.567 175.391C106.819 175.41 107.081 175.4 107.352 175.362C107.468 175.381 107.555 175.391 107.613 175.391C107.691 175.391 107.739 175.391 107.759 175.391C107.798 175.391 107.817 175.391 107.817 175.391C107.836 175.391 107.856 175.391 107.875 175.391C107.894 175.371 107.933 175.362 107.991 175.362C108.069 175.362 108.195 175.362 108.369 175.362C108.408 174.994 108.417 174.684 108.398 174.432C108.398 174.161 108.388 173.909 108.369 173.676C108.35 173.425 108.33 173.173 108.311 172.921C108.311 172.65 108.33 172.34 108.369 171.991C108.35 171.894 108.33 171.807 108.311 171.73C108.291 171.633 108.311 171.536 108.369 171.439C108.408 171.342 108.388 171.245 108.311 171.149C108.253 171.052 108.291 170.964 108.427 170.887C108.485 170.713 108.505 170.529 108.485 170.335C108.466 170.122 108.475 169.918 108.514 169.725C108.417 169.57 108.398 169.405 108.456 169.231C108.514 169.056 108.505 168.892 108.427 168.737C108.369 168.563 108.359 168.388 108.398 168.214C108.456 168.02 108.446 167.836 108.369 167.662C108.388 167.604 108.388 167.536 108.369 167.458C108.369 167.381 108.369 167.313 108.369 167.255C108.369 167.081 108.427 166.994 108.543 166.994C109.105 166.974 109.657 166.984 110.199 167.023C110.761 167.042 111.323 167.032 111.885 166.994L111.943 167.052C112.02 167.671 112.02 168.282 111.943 168.882C111.865 169.463 111.865 170.054 111.943 170.655C111.904 172.882 111.894 175.129 111.914 177.395C111.952 179.642 111.952 181.841 111.914 183.991C111.914 184.282 111.923 184.572 111.943 184.863C111.982 185.153 111.982 185.434 111.943 185.705C111.904 185.88 111.923 186.064 112.001 186.258C112.098 186.451 112.059 186.626 111.885 186.781C111.73 186.703 111.546 186.655 111.333 186.635C111.12 186.616 110.916 186.635 110.722 186.693C110.509 186.713 110.296 186.713 110.083 186.693C109.87 186.674 109.657 186.693 109.444 186.751C109.367 186.79 109.289 186.829 109.212 186.868C109.134 186.887 109.076 186.935 109.037 187.013C108.998 187.11 108.989 187.207 109.008 187.304C109.028 187.42 108.969 187.488 108.834 187.507C108.776 187.449 108.776 187.371 108.834 187.274C108.873 187.197 108.873 187.119 108.834 187.042C108.795 186.984 108.756 186.926 108.718 186.868C108.563 186.771 108.466 186.655 108.427 186.519C108.388 186.364 108.369 186.209 108.369 186.054C108.388 185.899 108.408 185.744 108.427 185.589C108.466 185.415 108.475 185.25 108.456 185.095C108.398 184.766 108.379 184.427 108.398 184.078C108.437 183.71 108.466 183.362 108.485 183.032C108.505 182.877 108.485 182.713 108.427 182.538C108.388 182.345 108.408 182.17 108.485 182.015C108.388 181.705 108.369 181.396 108.427 181.086C108.505 180.756 108.466 180.446 108.311 180.156C108.253 180.078 108.243 180.011 108.282 179.952C108.321 179.894 108.359 179.836 108.398 179.778C108.456 179.72 108.505 179.672 108.543 179.633C108.582 179.575 108.572 179.507 108.514 179.429ZM100.814 169.812C100.814 170.335 100.824 171.003 100.843 171.817C100.863 172.611 100.873 173.376 100.873 174.112V175.362C101.202 175.362 101.415 175.352 101.512 175.333C101.628 175.313 101.783 175.303 101.977 175.303C102.035 175.303 102.103 175.303 102.18 175.303C102.277 175.303 102.374 175.313 102.471 175.333C102.684 175.255 102.897 175.245 103.11 175.303C103.323 175.362 103.536 175.381 103.749 175.362C103.788 175.381 103.797 175.41 103.778 175.449C103.778 175.468 103.797 175.487 103.836 175.507C103.875 175.778 103.885 176.02 103.865 176.233C103.865 176.446 103.846 176.659 103.807 176.872C103.788 177.066 103.768 177.27 103.749 177.483C103.749 177.696 103.768 177.938 103.807 178.209C103.846 178.325 103.846 178.412 103.807 178.471C103.768 178.529 103.72 178.587 103.662 178.645C103.604 178.703 103.555 178.771 103.517 178.848C103.497 178.906 103.517 178.994 103.575 179.11C103.555 179.168 103.546 179.245 103.546 179.342C103.546 179.439 103.507 179.497 103.429 179.517C103.352 179.4 103.333 179.265 103.371 179.11C103.429 178.935 103.371 178.819 103.197 178.761C102.945 178.78 102.674 178.78 102.383 178.761C102.093 178.722 101.831 178.751 101.599 178.848C101.444 178.848 101.337 178.848 101.279 178.848C101.241 178.829 101.212 178.81 101.192 178.79C101.173 178.771 101.144 178.751 101.105 178.732C101.066 178.693 100.969 178.664 100.814 178.645C100.795 178.664 100.785 178.742 100.785 178.877C100.805 179.013 100.814 179.168 100.814 179.342C100.834 179.517 100.853 179.681 100.873 179.836C100.892 179.972 100.902 180.049 100.902 180.069C100.921 180.63 100.911 181.182 100.873 181.725C100.853 182.267 100.873 182.819 100.931 183.381C100.834 183.827 100.814 184.33 100.873 184.892C100.95 185.454 100.96 185.957 100.902 186.403C100.882 186.5 100.882 186.577 100.902 186.635C100.921 186.693 100.882 186.771 100.785 186.868C100.63 186.906 100.514 186.994 100.437 187.129C100.379 187.284 100.311 187.42 100.233 187.536C100.195 187.458 100.185 187.362 100.204 187.245C100.243 187.149 100.195 187.09 100.059 187.071C99.8653 187.071 99.6909 187.042 99.536 186.984C99.4004 186.945 99.2551 186.906 99.1001 186.868C98.9645 186.81 98.8193 186.771 98.6643 186.751C98.5093 186.713 98.335 186.703 98.1413 186.722C98.0445 186.645 97.9282 186.626 97.7926 186.664C97.657 186.703 97.5602 186.664 97.5021 186.548C97.5021 186.258 97.4924 185.899 97.473 185.473C97.473 185.047 97.4924 184.698 97.5311 184.427C97.4924 184.195 97.473 183.972 97.473 183.759C97.4924 183.546 97.4827 183.342 97.444 183.149C97.5021 182.935 97.5118 182.703 97.473 182.451C97.4536 182.18 97.4633 181.938 97.5021 181.725C97.5408 180.659 97.5505 179.584 97.5311 178.5C97.5311 177.395 97.5311 176.311 97.5311 175.245C97.5505 175.187 97.5602 175.11 97.5602 175.013C97.5796 174.916 97.5699 174.829 97.5311 174.751C97.5311 174.48 97.5214 174.209 97.5021 173.938C97.4827 173.667 97.473 173.395 97.473 173.124C97.4343 172.969 97.4246 172.824 97.444 172.688C97.4633 172.553 97.4827 172.417 97.5021 172.282C97.5021 171.642 97.5118 171.003 97.5311 170.364C97.5699 169.705 97.5602 169.066 97.5021 168.446C97.444 168.408 97.4246 168.359 97.444 168.301C97.4633 168.243 97.473 168.194 97.473 168.156C97.4149 168.001 97.4052 167.856 97.444 167.72C97.4827 167.565 97.5021 167.41 97.5021 167.255C97.5021 167.178 97.473 167.09 97.4149 166.994C97.5118 166.897 97.5989 166.877 97.6764 166.935C97.7733 166.994 97.8798 166.984 97.996 166.906C98.4222 167.003 98.9064 167.032 99.4488 166.994C99.9912 166.935 100.475 166.935 100.902 166.994C100.902 167.11 100.873 167.245 100.814 167.4C100.756 167.536 100.747 167.662 100.785 167.778C100.805 168.107 100.805 168.446 100.785 168.795C100.785 169.144 100.795 169.483 100.814 169.812ZM118.85 167.081C119.063 167.081 119.266 167.09 119.46 167.11C119.673 167.11 119.877 167.09 120.07 167.052C120.167 167.09 120.216 167.129 120.216 167.168C120.216 167.245 120.245 167.294 120.303 167.313C120.303 167.468 120.274 167.584 120.216 167.662C120.216 167.933 120.235 168.194 120.274 168.446C120.332 168.698 120.341 168.96 120.303 169.231C120.148 169.444 120.09 169.686 120.128 169.957C120.186 170.209 120.206 170.471 120.186 170.742C120.167 170.955 120.157 171.168 120.157 171.381C120.177 171.594 120.186 171.807 120.186 172.02C120.186 172.272 120.196 172.514 120.216 172.747C120.254 172.979 120.235 173.221 120.157 173.473C120.119 173.628 120.109 173.773 120.128 173.909C120.148 174.044 120.148 174.19 120.128 174.345C120.09 174.538 120.09 174.751 120.128 174.984C120.167 175.216 120.177 175.439 120.157 175.652C120.119 176.136 120.119 176.601 120.157 177.047C120.196 177.492 120.196 177.938 120.157 178.383C120.177 178.383 120.186 178.432 120.186 178.529C120.206 178.587 120.206 178.674 120.186 178.79C120.167 178.887 120.186 178.965 120.245 179.023C120.264 179.468 120.245 179.914 120.186 180.359C120.148 180.805 120.148 181.25 120.186 181.696C120.206 181.909 120.196 182.112 120.157 182.306C120.138 182.48 120.157 182.674 120.216 182.887C120.235 183.429 120.216 183.943 120.157 184.427C120.119 184.892 120.157 185.376 120.274 185.88C120.254 185.996 120.254 186.122 120.274 186.258C120.312 186.374 120.341 186.5 120.361 186.635C120.322 186.751 120.303 186.877 120.303 187.013C120.303 187.284 120.293 187.575 120.274 187.885C120.254 188.195 120.186 188.35 120.07 188.35C120.032 188.35 120.002 188.272 119.983 188.117C119.983 187.962 119.964 187.768 119.925 187.536C119.925 187.478 119.944 187.391 119.983 187.274C120.022 187.178 120.012 187.1 119.954 187.042C119.877 187.003 119.809 186.984 119.751 186.984C119.712 187.003 119.644 187.013 119.547 187.013C119.373 186.974 119.189 186.955 118.995 186.955C118.801 186.974 118.608 186.984 118.414 186.984C118.375 187.023 118.337 187.042 118.298 187.042C118.22 187.042 118.172 187.032 118.153 187.013C117.901 186.916 117.649 186.887 117.397 186.926C117.165 186.984 116.923 186.994 116.671 186.955C116.535 186.819 116.496 186.703 116.554 186.606C116.632 186.49 116.671 186.354 116.671 186.199C116.651 185.812 116.671 185.405 116.729 184.979C116.787 184.534 116.787 184.117 116.729 183.73C116.709 183.652 116.709 183.584 116.729 183.526C116.748 183.449 116.748 183.381 116.729 183.323V174.722C116.729 173.328 116.709 172.63 116.671 172.63V172.601C116.69 171.672 116.69 170.732 116.671 169.783C116.671 168.834 116.68 167.923 116.7 167.052C116.971 167.071 117.242 167.071 117.513 167.052C117.804 167.013 118.085 167.003 118.356 167.023C118.433 167.003 118.511 167.003 118.588 167.023C118.685 167.042 118.772 167.061 118.85 167.081ZM128.537 167.749C128.517 168.427 128.498 169.095 128.478 169.754C128.478 170.412 128.478 171.071 128.478 171.73C128.498 172.543 128.498 173.299 128.478 173.996C128.459 174.693 128.469 175.449 128.508 176.262C128.527 176.262 128.537 176.301 128.537 176.379C128.478 176.475 128.459 176.601 128.478 176.756C128.517 176.911 128.537 177.047 128.537 177.163C128.575 177.802 128.585 178.403 128.566 178.965C128.546 179.526 128.537 180.136 128.537 180.795C128.537 181.783 128.517 182.761 128.478 183.73C128.44 184.679 128.44 185.676 128.478 186.722C128.517 186.742 128.527 186.771 128.508 186.81C128.488 186.829 128.469 186.848 128.449 186.868C128.294 186.926 128.14 186.945 127.985 186.926C127.83 186.926 127.675 186.926 127.52 186.926H126.561C126.406 186.887 126.251 186.877 126.096 186.897C125.96 186.916 125.815 186.906 125.66 186.868H125.311C125.195 186.868 125.108 186.819 125.05 186.722C125.127 186.567 125.137 186.403 125.079 186.228C125.04 186.054 125.05 185.88 125.108 185.705C125.089 185.55 125.089 185.386 125.108 185.211C125.127 185.018 125.127 184.843 125.108 184.688C125.108 183.41 125.098 182.132 125.079 180.853C125.079 179.555 125.098 178.267 125.137 176.989C125.098 176.776 125.069 176.563 125.05 176.349C125.05 176.136 125.05 175.923 125.05 175.71C124.972 174.761 124.963 173.841 125.021 172.95C125.079 172.04 125.098 171.09 125.079 170.102C125.079 169.599 125.069 169.095 125.05 168.592C125.05 168.069 125.05 167.555 125.05 167.052L127.868 166.964C127.965 166.887 128.062 166.877 128.159 166.935C128.256 166.974 128.294 166.945 128.275 166.848C128.391 166.868 128.459 166.916 128.478 166.994C128.498 167.071 128.508 167.158 128.508 167.255C128.508 167.333 128.498 167.42 128.478 167.517C128.478 167.613 128.498 167.691 128.537 167.749ZM135.423 178.587C135.442 178.606 135.384 178.655 135.248 178.732C135.113 178.79 134.958 178.858 134.784 178.935C134.629 178.994 134.474 179.052 134.319 179.11C134.164 179.168 134.077 179.197 134.057 179.197C133.825 179.274 133.544 179.313 133.215 179.313C133.06 179.313 132.914 179.313 132.779 179.313C132.643 179.313 132.508 179.303 132.372 179.284C132.101 179.284 131.82 179.323 131.529 179.4C131.239 179.478 130.958 179.439 130.687 179.284C130.59 179.226 130.532 179.158 130.512 179.081C130.512 178.984 130.522 178.887 130.541 178.79C130.58 178.674 130.609 178.567 130.629 178.471C130.667 178.354 130.677 178.248 130.658 178.151C130.619 177.977 130.59 177.812 130.571 177.657C130.551 177.502 130.532 177.337 130.512 177.163C130.551 176.911 130.58 176.727 130.6 176.611C130.638 176.475 130.658 176.388 130.658 176.349C130.658 176.272 130.648 176.243 130.629 176.262C130.609 176.262 130.571 176.195 130.512 176.059C130.493 175.962 130.551 175.914 130.687 175.914C130.764 175.914 130.832 175.923 130.89 175.943C130.968 175.962 131.016 175.972 131.035 175.972C131.074 175.991 131.161 176.02 131.297 176.059C131.452 176.098 131.636 176.098 131.849 176.059C132.062 176.02 132.265 175.962 132.459 175.885C132.672 175.807 132.972 175.759 133.36 175.739C133.476 175.701 133.621 175.662 133.796 175.623C133.97 175.565 134.125 175.517 134.261 175.478C134.609 175.478 134.851 175.313 134.987 174.984C135.123 174.655 135.248 174.345 135.365 174.054C135.326 173.86 135.345 173.638 135.423 173.386C135.52 173.134 135.51 172.911 135.394 172.718C135.297 172.543 135.268 172.349 135.307 172.136C135.345 171.904 135.287 171.739 135.132 171.642C135.035 171.507 134.929 171.41 134.813 171.352C134.716 171.294 134.6 171.216 134.464 171.119C134.425 170.984 134.377 170.897 134.319 170.858C134.261 170.819 134.183 170.8 134.086 170.8C134.009 170.8 133.922 170.819 133.825 170.858C133.747 170.877 133.67 170.887 133.592 170.887C133.476 170.887 133.408 170.79 133.389 170.596C133.234 170.655 133.147 170.684 133.127 170.684C133.089 170.684 133.05 170.684 133.011 170.684C132.972 170.664 132.905 170.645 132.808 170.625C132.711 170.606 132.663 170.606 132.663 170.625C132.682 170.625 132.643 170.625 132.546 170.625C132.508 170.625 132.488 170.693 132.488 170.829C132.508 170.964 132.517 171.119 132.517 171.294C132.537 171.468 132.527 171.633 132.488 171.788C132.469 171.923 132.401 172.001 132.285 172.02C132.246 172.02 132.217 171.962 132.198 171.846C132.198 171.71 132.188 171.565 132.169 171.41C132.169 171.236 132.159 171.09 132.14 170.974C132.12 170.839 132.101 170.771 132.081 170.771C132.004 170.732 131.965 170.693 131.965 170.655C131.965 170.616 131.859 170.596 131.646 170.596C131.568 170.596 131.491 170.606 131.413 170.625C131.336 170.625 131.219 170.664 131.064 170.742C130.89 170.839 130.803 170.868 130.803 170.829C130.803 170.771 130.793 170.742 130.774 170.742C130.716 170.742 130.629 170.684 130.512 170.567C130.474 170.529 130.454 170.451 130.454 170.335C130.454 170.18 130.464 170.006 130.483 169.812C130.503 169.599 130.512 169.444 130.512 169.347V168.156C130.512 168.04 130.503 167.943 130.483 167.865C130.483 167.768 130.483 167.633 130.483 167.458C130.483 167.42 130.493 167.362 130.512 167.284C130.551 167.207 130.638 167.178 130.774 167.197L131.094 167.226L131.529 167.197L132.75 167.226L134.202 167.284C134.241 167.303 134.299 167.333 134.377 167.371C134.474 167.41 134.571 167.449 134.667 167.487C134.764 167.526 134.851 167.565 134.929 167.604C135.026 167.623 135.084 167.633 135.103 167.633C135.568 167.749 135.936 167.933 136.207 168.185C136.479 168.437 136.788 168.756 137.137 169.144C137.195 169.26 137.263 169.376 137.34 169.492C137.418 169.589 137.495 169.686 137.573 169.783C137.612 169.899 137.67 170.015 137.747 170.132C137.844 170.248 137.941 170.364 138.038 170.48C138.154 170.596 138.251 170.713 138.328 170.829C138.425 170.945 138.483 171.061 138.503 171.178C138.561 171.294 138.59 171.41 138.59 171.526C138.609 171.623 138.638 171.73 138.677 171.846C138.619 172.04 138.629 172.233 138.706 172.427C138.784 172.601 138.813 172.795 138.793 173.008C138.716 173.144 138.706 173.328 138.764 173.56C138.822 173.773 138.822 173.948 138.764 174.083C138.725 174.277 138.706 174.374 138.706 174.374V174.664C138.706 174.761 138.677 174.8 138.619 174.78C138.58 174.742 138.541 174.751 138.503 174.81L138.328 175.1C138.251 175.236 138.212 175.362 138.212 175.478C138.212 175.633 138.222 175.768 138.241 175.885C138.28 176.001 138.202 176.127 138.009 176.262C137.912 176.34 137.893 176.408 137.951 176.466C138.009 176.504 137.97 176.543 137.834 176.582C137.776 176.621 137.747 176.669 137.747 176.727C137.747 176.843 137.689 176.931 137.573 176.989C137.476 177.027 137.379 177.095 137.282 177.192C137.224 177.27 137.166 177.328 137.108 177.366C137.05 177.405 137.04 177.483 137.079 177.599C137.079 177.638 137.06 177.696 137.021 177.773C137.002 177.851 136.972 177.87 136.934 177.831C136.876 177.812 136.856 177.773 136.876 177.715C136.914 177.638 136.914 177.57 136.876 177.512C136.876 177.434 136.837 177.483 136.759 177.657C136.682 177.812 136.663 177.928 136.701 178.006L136.178 178.209C136.178 178.209 136.13 178.228 136.033 178.267C135.956 178.287 135.868 178.325 135.771 178.383C135.675 178.422 135.587 178.461 135.51 178.5C135.433 178.538 135.403 178.567 135.423 178.587ZM132.198 186.025C132.198 186.083 132.188 186.17 132.169 186.287C132.169 186.383 132.188 186.471 132.227 186.548C132.169 186.916 132.159 187.304 132.198 187.71C132.256 188.117 132.246 188.504 132.169 188.873C132.072 188.834 132.023 188.766 132.023 188.669C132.023 188.592 132.004 188.495 131.965 188.379C132.023 188.166 132.033 187.943 131.994 187.71C131.975 187.497 131.946 187.274 131.907 187.042C131.888 186.829 131.868 186.616 131.849 186.403C131.849 186.17 131.897 185.948 131.994 185.735C132.072 185.754 132.12 185.793 132.14 185.851C132.159 185.909 132.178 185.967 132.198 186.025Z" fill="white"/>
<line x1="0.880371" y1="218.359" x2="221" y2="218.359" stroke="white" stroke-width="5.28287"/>
<line x1="0.880371" y1="2.64152" x2="221" y2="2.64152" stroke="white" stroke-width="5.28287"/>
<line x1="2.64128" y1="220.12" x2="2.64128" y2="0.000106812" stroke="white" stroke-width="5.28287"/>
<line x1="217.478" y1="221" x2="217.478" y2="0.880478" stroke="white" stroke-width="5.28287"/>
</svg>
