<svg width="263" height="228" viewBox="0 0 263 228" fill="none" xmlns="http://www.w3.org/2000/svg">
<path d="M140.286 135.898C139.903 135.898 139.532 135.957 139.169 136.076C138.804 136.192 138.469 136.361 138.157 136.581C137.845 136.8 137.575 137.065 137.347 137.368C137.118 137.673 136.937 138.006 136.812 138.365H133.891C133.763 138.003 133.588 137.67 133.357 137.365C133.128 137.062 132.858 136.798 132.546 136.575C132.234 136.355 131.899 136.186 131.534 136.07C131.172 135.954 130.798 135.895 130.418 135.895C130.035 135.895 129.661 135.954 129.298 136.07C128.933 136.186 128.598 136.355 128.286 136.575C127.974 136.798 127.704 137.062 127.476 137.365C127.247 137.67 127.069 138.003 126.944 138.365H124.023C123.895 138.003 123.72 137.67 123.488 137.365C123.26 137.062 122.99 136.798 122.678 136.575C122.366 136.355 122.031 136.186 121.666 136.07C121.303 135.954 120.929 135.895 120.549 135.895C120.166 135.895 119.792 135.954 119.43 136.07C119.065 136.186 118.73 136.355 118.418 136.575C118.106 136.798 117.836 137.062 117.607 137.365C117.379 137.67 117.201 138.003 117.076 138.365H114.38V140.832H117.076C117.201 141.191 117.379 141.524 117.607 141.83C117.836 142.135 118.106 142.4 118.418 142.619C118.73 142.842 119.065 143.011 119.43 143.127C119.792 143.243 120.166 143.299 120.549 143.299C120.929 143.299 121.303 143.243 121.666 143.127C122.031 143.011 122.366 142.842 122.678 142.619C122.99 142.4 123.26 142.135 123.488 141.83C123.72 141.524 123.895 141.191 124.023 140.832H126.944C127.069 141.191 127.247 141.524 127.476 141.83C127.704 142.135 127.974 142.4 128.286 142.619C128.598 142.842 128.933 143.011 129.298 143.127C129.661 143.243 130.035 143.299 130.418 143.299C130.798 143.299 131.172 143.243 131.534 143.127C131.899 143.011 132.234 142.842 132.546 142.619C132.858 142.4 133.128 142.135 133.357 141.83C133.588 141.524 133.763 141.191 133.891 140.832H136.812C136.937 141.191 137.115 141.524 137.344 141.83C137.572 142.135 137.842 142.4 138.154 142.619C138.466 142.842 138.804 143.011 139.166 143.127C139.532 143.243 139.903 143.299 140.286 143.299C140.666 143.299 141.04 143.243 141.402 143.127C141.767 143.011 142.106 142.842 142.414 142.619C142.726 142.4 142.996 142.135 143.225 141.83C143.456 141.524 143.631 141.191 143.759 140.832H147.687V138.365H143.759C143.631 138.006 143.453 137.673 143.222 137.368C142.993 137.065 142.723 136.8 142.411 136.581C142.103 136.361 141.764 136.192 141.402 136.076C141.04 135.957 140.666 135.898 140.286 135.898ZM120.549 140.832C120.386 140.832 120.226 140.799 120.077 140.737C119.926 140.675 119.792 140.586 119.677 140.47C119.561 140.354 119.472 140.22 119.409 140.069C119.347 139.918 119.314 139.76 119.314 139.597C119.314 139.434 119.347 139.276 119.409 139.125C119.472 138.974 119.561 138.843 119.677 138.727C119.792 138.611 119.926 138.522 120.077 138.457C120.226 138.395 120.386 138.365 120.549 138.365C120.713 138.365 120.87 138.395 121.021 138.457C121.173 138.522 121.303 138.611 121.419 138.727C121.535 138.843 121.624 138.974 121.686 139.125C121.752 139.276 121.781 139.434 121.781 139.597C121.781 139.76 121.752 139.918 121.686 140.069C121.624 140.22 121.535 140.354 121.419 140.47C121.303 140.586 121.173 140.675 121.021 140.737C120.87 140.799 120.713 140.832 120.549 140.832ZM130.418 140.832C130.254 140.832 130.097 140.799 129.946 140.737C129.794 140.675 129.661 140.586 129.545 140.47C129.429 140.354 129.34 140.22 129.278 140.069C129.215 139.918 129.183 139.76 129.183 139.597C129.183 139.434 129.215 139.276 129.278 139.125C129.34 138.974 129.429 138.843 129.545 138.727C129.661 138.611 129.794 138.522 129.946 138.457C130.097 138.395 130.254 138.365 130.418 138.365C130.581 138.365 130.738 138.395 130.89 138.457C131.041 138.522 131.172 138.611 131.287 138.727C131.403 138.843 131.492 138.974 131.558 139.125C131.62 139.276 131.65 139.434 131.65 139.597C131.65 139.76 131.62 139.918 131.558 140.069C131.492 140.22 131.403 140.354 131.287 140.47C131.172 140.586 131.041 140.675 130.89 140.737C130.738 140.799 130.581 140.832 130.418 140.832ZM140.286 140.832C140.122 140.832 139.965 140.799 139.814 140.737C139.662 140.675 139.529 140.586 139.413 140.47C139.297 140.354 139.208 140.22 139.146 140.069C139.083 139.918 139.051 139.76 139.051 139.597C139.051 139.434 139.083 139.276 139.146 139.125C139.208 138.974 139.297 138.843 139.413 138.727C139.529 138.611 139.662 138.522 139.814 138.457C139.965 138.395 140.122 138.365 140.286 138.365C140.449 138.365 140.606 138.395 140.758 138.457C140.909 138.522 141.043 138.611 141.156 138.727C141.271 138.843 141.36 138.974 141.426 139.125C141.488 139.276 141.518 139.434 141.518 139.597C141.518 139.76 141.488 139.918 141.426 140.069C141.36 140.22 141.271 140.354 141.156 140.47C141.043 140.586 140.909 140.675 140.758 140.737C140.606 140.799 140.449 140.832 140.286 140.832Z" fill="white"/>
<path d="M123.016 144.531H125.484V146.998H123.016V144.531Z" fill="white"/>
<path d="M132.884 144.531H135.351V146.998H132.884V144.531Z" fill="white"/>
<path d="M163.721 106.293V96.4253C163.721 96.2621 163.691 96.1047 163.629 95.9533C163.567 95.8019 163.478 95.6683 163.362 95.5525C163.246 95.4367 163.112 95.3477 162.961 95.2853C162.81 95.223 162.652 95.1903 162.489 95.1903C161.803 95.2111 161.165 95.0508 160.571 94.7035C160.105 94.4571 159.618 94.273 159.105 94.1453C158.594 94.0207 158.074 93.9553 157.549 93.9553C157.023 93.9553 156.504 94.0207 155.993 94.1453C155.483 94.273 154.993 94.4571 154.527 94.7035C153.939 95.0478 153.304 95.2111 152.621 95.1903C152.458 95.1903 152.3 95.223 152.149 95.2853C151.997 95.3477 151.864 95.4367 151.748 95.5525C151.632 95.6683 151.543 95.8019 151.481 95.9533C151.418 96.1047 151.386 96.2621 151.386 96.4253V102.591C151.386 102.755 151.418 102.912 151.481 103.063C151.543 103.215 151.632 103.348 151.748 103.464C151.864 103.58 151.997 103.669 152.149 103.731C152.3 103.794 152.458 103.826 152.621 103.826C153.693 103.844 154.696 103.598 155.634 103.078C156.231 102.755 156.872 102.591 157.552 102.591C158.232 102.591 158.87 102.755 159.47 103.078C160.034 103.378 160.628 103.589 161.254 103.708V106.293H150.154V108.76H153.025C153.589 110.358 153.865 112.002 153.853 113.695C153.877 115.642 153.505 117.515 152.743 119.311C152.695 119.403 152.662 119.504 152.639 119.605C152.618 119.709 152.609 119.813 152.615 119.92C152.621 120.024 152.639 120.128 152.668 120.229C152.701 120.33 152.743 120.425 152.799 120.514C152.855 120.603 152.921 120.683 152.998 120.757C153.075 120.828 153.158 120.891 153.25 120.941C153.342 120.992 153.44 121.03 153.541 121.057C153.645 121.084 153.749 121.096 153.853 121.096H161.254V127.508L153.865 128.506C153.624 128.538 153.408 128.633 153.223 128.794C153.039 128.954 152.912 129.153 152.843 129.387L152.395 130.964H135.352V128.497H143.985C144.267 128.497 144.522 128.411 144.745 128.235C144.967 128.06 145.113 127.838 145.181 127.562C146.03 123.815 146.452 120.015 146.452 116.162C146.475 113.252 146.185 110.373 145.582 107.525H147.687V105.058H135.352V102.591H142.753C143.091 102.591 143.382 102.473 143.623 102.229C143.89 101.965 145.22 100.433 145.22 96.4253C145.24 95.1666 145.077 93.9316 144.727 92.7233H146.452V90.2563H135.352V80.3882C135.352 80.2249 135.319 80.0675 135.257 79.9161C135.194 79.7647 135.105 79.6311 134.989 79.5153C134.874 79.3996 134.74 79.3105 134.589 79.2482C134.437 79.1858 134.28 79.1561 134.117 79.1561C133.431 79.1769 132.793 79.0136 132.199 78.6663C131.736 78.4228 131.246 78.2358 130.735 78.1111C130.225 77.9835 129.705 77.9211 129.177 77.9211C128.651 77.9211 128.132 77.9835 127.621 78.1111C127.11 78.2358 126.62 78.4228 126.154 78.6663C125.567 79.0107 124.931 79.1739 124.248 79.1561C123.566 79.1769 122.927 79.0136 122.337 78.6692C121.395 78.1497 120.389 77.9003 119.314 77.9211C119.151 77.9211 118.994 77.9538 118.842 78.0161C118.691 78.0785 118.557 78.1675 118.442 78.2833C118.326 78.3991 118.237 78.5327 118.174 78.6841C118.112 78.8355 118.082 78.9928 118.082 79.1561V85.3222C118.082 85.4855 118.112 85.6428 118.174 85.7942C118.237 85.9457 118.326 86.0792 118.442 86.195C118.557 86.3108 118.691 86.3999 118.842 86.4622C118.994 86.5246 119.151 86.5572 119.314 86.5572C119.997 86.5364 120.635 86.6967 121.226 87.0411C121.692 87.2875 122.179 87.4746 122.69 87.5992C123.2 87.7269 123.72 87.7892 124.245 87.7892C124.771 87.7892 125.288 87.7269 125.798 87.5992C126.309 87.4746 126.799 87.2875 127.262 87.0411C127.861 86.7175 128.5 86.5542 129.18 86.5542C129.859 86.5542 130.501 86.7175 131.097 87.0411C131.661 87.338 132.258 87.5458 132.885 87.6675V90.2563H121.781V92.7233H124.813C125.323 93.9049 125.546 95.1399 125.483 96.4253C125.623 97.8711 125.332 99.2249 124.608 100.487C124.433 100.662 124.32 100.873 124.272 101.119C124.222 101.362 124.245 101.6 124.34 101.831C124.438 102.063 124.59 102.247 124.798 102.384C125.005 102.523 125.234 102.591 125.483 102.591H132.885V105.058H120.549V107.525H122.075C122.731 110.367 123.043 113.246 123.016 116.162C123.008 119.804 122.61 123.405 121.82 126.965C121.773 127.149 121.77 127.333 121.808 127.52C121.85 127.704 121.927 127.873 122.043 128.022C122.161 128.17 122.304 128.289 122.473 128.372C122.645 128.455 122.826 128.497 123.016 128.497H132.885V130.964H111.913V122.328H118.082C118.314 122.328 118.531 122.268 118.73 122.144C118.928 122.022 119.08 121.856 119.184 121.648C120.125 119.504 120.579 117.266 120.549 114.927C120.582 112.59 120.128 110.349 119.193 108.208C119.086 107.998 118.934 107.831 118.733 107.71C118.534 107.585 118.317 107.525 118.082 107.525H111.913V103.826H113.148C113.43 103.826 113.683 103.737 113.905 103.565C114.128 103.39 114.273 103.167 114.345 102.891L115.577 97.9572C115.624 97.7732 115.627 97.5891 115.589 97.4021C115.547 97.218 115.47 97.0488 115.354 96.9003C115.235 96.7489 115.093 96.6332 114.921 96.55C114.751 96.4669 114.57 96.4253 114.38 96.4253H111.913V86.5572C111.913 86.3939 111.884 86.2366 111.818 86.0852C111.756 85.9338 111.667 85.8002 111.551 85.6844C111.435 85.5686 111.302 85.4796 111.153 85.4172C111.002 85.3549 110.845 85.3222 110.681 85.3222C109.995 85.343 109.354 85.1827 108.763 84.8353C107.825 84.3188 106.819 84.0694 105.747 84.0902C104.673 84.0664 103.666 84.3158 102.725 84.8353C102.134 85.1797 101.496 85.343 100.813 85.3222C100.647 85.3222 100.49 85.3549 100.341 85.4172C100.19 85.4796 100.056 85.5686 99.9403 85.6844C99.8245 85.8002 99.7355 85.9338 99.6731 86.0852C99.6108 86.2366 99.5781 86.3939 99.5781 86.5572V92.7233C99.5781 92.8866 99.6108 93.0439 99.6731 93.1953C99.7355 93.3467 99.8245 93.4803 99.9403 93.5961C100.056 93.7119 100.19 93.801 100.341 93.8633C100.49 93.9257 100.647 93.9583 100.813 93.9583C101.882 93.9791 102.885 93.7327 103.826 93.2161C104.417 92.8688 105.058 92.7055 105.747 92.7233C106.433 92.7025 107.071 92.8658 107.662 93.2102C108.226 93.51 108.823 93.7178 109.449 93.8396V96.4253H106.979C106.789 96.4253 106.608 96.4669 106.439 96.55C106.267 96.6332 106.124 96.7489 106.005 96.9003C105.89 97.0488 105.812 97.218 105.774 97.4021C105.732 97.5891 105.735 97.7732 105.783 97.9572L107.018 102.891C107.086 103.167 107.232 103.39 107.454 103.565C107.677 103.737 107.929 103.826 108.214 103.826H109.446V107.525H102.045C101.941 107.525 101.837 107.54 101.733 107.567C101.633 107.591 101.538 107.632 101.445 107.683C101.353 107.733 101.267 107.796 101.193 107.867C101.116 107.941 101.051 108.021 100.994 108.11C100.941 108.199 100.896 108.294 100.867 108.395C100.834 108.496 100.816 108.6 100.813 108.704C100.807 108.808 100.816 108.912 100.837 109.016C100.861 109.12 100.893 109.218 100.941 109.31C101.71 111.106 102.078 112.976 102.045 114.927C102.069 116.877 101.701 118.747 100.941 120.543C100.893 120.638 100.861 120.736 100.837 120.84C100.816 120.941 100.807 121.045 100.813 121.152C100.816 121.256 100.834 121.36 100.867 121.458C100.896 121.559 100.941 121.654 100.994 121.743C101.051 121.832 101.116 121.915 101.193 121.986C101.267 122.06 101.353 122.123 101.445 122.173C101.538 122.224 101.633 122.262 101.733 122.289C101.837 122.316 101.941 122.328 102.045 122.328H109.446V128.497H102.045C101.763 128.497 101.511 128.583 101.285 128.758C101.062 128.93 100.917 129.156 100.849 129.429L99.6138 134.363C99.59 134.464 99.5781 134.562 99.5781 134.663C99.5781 135.215 99.6702 135.749 99.8483 136.269C100.029 136.791 100.288 137.266 100.626 137.703C100.968 138.136 101.365 138.501 101.828 138.801C102.289 139.101 102.787 139.318 103.322 139.451C103.39 140.295 103.535 141.123 103.761 141.939C103.984 142.753 104.281 143.539 104.649 144.299C105.02 145.059 105.456 145.778 105.961 146.455C106.466 147.135 107.03 147.758 107.65 148.331C108.271 148.904 108.939 149.415 109.654 149.863C110.373 150.311 111.124 150.691 111.91 150.997C112.697 151.306 113.505 151.54 114.336 151.698C115.164 151.852 116.001 151.932 116.847 151.932H147.687C148.26 151.902 148.827 151.825 149.391 151.7C149.952 151.579 150.498 151.413 151.033 151.199C151.567 150.988 152.083 150.736 152.576 150.439C153.069 150.145 153.535 149.812 153.975 149.441C154.417 149.073 154.824 148.669 155.198 148.233C155.572 147.797 155.91 147.333 156.21 146.844C156.51 146.351 156.768 145.84 156.985 145.309C157.202 144.774 157.374 144.228 157.501 143.67L159.749 138.05L172.868 132.086C173.087 131.985 173.263 131.834 173.393 131.632C173.524 131.427 173.589 131.204 173.589 130.964V127.262C173.589 127.084 173.553 126.914 173.479 126.754C173.405 126.591 173.301 126.451 173.168 126.335C173.034 126.217 172.883 126.134 172.713 126.083C172.541 126.03 172.369 126.018 172.194 126.042L163.721 127.179V121.096H169.89C170.125 121.096 170.341 121.036 170.543 120.912C170.742 120.79 170.893 120.624 171 120.413C171.935 118.272 172.39 116.031 172.357 113.695C172.36 112.014 172.125 110.37 171.653 108.76H173.589V106.293H163.721ZM160.571 100.873C160.105 100.626 159.618 100.439 159.105 100.314C158.594 100.187 158.074 100.124 157.549 100.124C157.023 100.124 156.504 100.187 155.993 100.314C155.483 100.439 154.993 100.626 154.527 100.873C154.307 100.988 154.081 101.089 153.85 101.175V97.5505C154.473 97.4288 155.067 97.215 155.628 96.9122C156.228 96.5857 156.866 96.4253 157.546 96.4253C158.226 96.4253 158.867 96.5857 159.464 96.9122C160.025 97.218 160.622 97.4317 161.251 97.5535V101.178C161.016 101.089 160.791 100.988 160.571 100.873ZM132.199 84.8353C131.736 84.5889 131.246 84.4049 130.735 84.2772C130.225 84.1525 129.705 84.0872 129.177 84.0872C128.651 84.0872 128.132 84.1525 127.621 84.2772C127.11 84.4049 126.62 84.5889 126.154 84.8353C125.561 85.1589 124.922 85.3222 124.243 85.3222C123.566 85.3222 122.927 85.1589 122.331 84.8353C121.77 84.5296 121.176 84.3158 120.549 84.1941V80.5692C120.781 80.6553 121.007 80.7592 121.226 80.875C121.692 81.1185 122.179 81.3055 122.69 81.4332C123.2 81.5578 123.72 81.6202 124.245 81.6202C124.771 81.6202 125.288 81.5578 125.798 81.4332C126.309 81.3055 126.799 81.1185 127.262 80.875C127.861 80.5485 128.5 80.3882 129.18 80.3882C129.859 80.3882 130.501 80.5485 131.097 80.875C131.658 81.1808 132.255 81.3946 132.885 81.5163V85.1411C132.65 85.055 132.421 84.9511 132.199 84.8353ZM127.464 100.124C127.811 98.9161 127.971 97.6811 127.95 96.4253C127.971 95.1666 127.811 93.9316 127.464 92.7233H142.085C142.592 93.9049 142.812 95.1399 142.753 96.4253C142.812 97.7078 142.592 98.9428 142.085 100.124H127.464ZM124.539 126.03C125.16 122.77 125.475 119.481 125.483 116.162C125.504 113.252 125.213 110.373 124.611 107.525H143.047C143.7 110.367 144.014 113.246 143.985 116.162C143.976 119.481 143.646 122.773 142.999 126.03H124.539ZM108.763 91.0044C107.825 90.4849 106.819 90.2355 105.747 90.2563C104.673 90.2355 103.666 90.4849 102.725 91.0044C102.505 91.1202 102.28 91.2211 102.048 91.3072V87.6824C102.672 87.5636 103.265 87.3528 103.826 87.05C104.417 86.6997 105.058 86.5364 105.747 86.5572C106.43 86.5364 107.068 86.7027 107.659 87.05C108.223 87.3528 108.817 87.5636 109.446 87.6853V91.3102C109.212 91.2211 108.983 91.1202 108.763 91.0044ZM109.176 101.359L108.559 98.8924H112.801L112.183 101.359H109.176ZM103.812 119.861C104.281 118.252 104.515 116.607 104.512 114.927C104.515 113.249 104.281 111.605 103.812 109.993H117.257C117.815 111.59 118.088 113.234 118.082 114.927C118.085 116.619 117.809 118.263 117.254 119.861H103.812ZM171.122 128.675V130.168L158.407 135.948L152.374 137.157L152.858 139.573L156.792 138.786C156.792 138.786 155.055 143.21 155.031 143.299H147.687V145.766H153.921C153.586 146.3 153.194 146.79 152.745 147.233C152.294 147.672 151.798 148.055 151.255 148.375C150.712 148.699 150.139 148.951 149.536 149.135C148.934 149.32 148.316 149.429 147.687 149.465H116.847C116.07 149.465 115.298 149.385 114.535 149.222C113.775 149.058 113.038 148.815 112.326 148.497C111.616 148.18 110.945 147.788 110.316 147.328C109.69 146.867 109.114 146.348 108.597 145.766H113.148V143.299H106.917C106.332 142.129 105.964 140.897 105.818 139.597H109.446V137.13H104.512C104.198 137.133 103.892 137.073 103.598 136.958C103.304 136.842 103.043 136.673 102.814 136.456C102.585 136.239 102.404 135.99 102.271 135.702C102.137 135.417 102.063 135.117 102.045 134.799L103.01 130.964H109.446V132.196C109.446 132.359 109.479 132.516 109.541 132.668C109.604 132.819 109.693 132.953 109.808 133.069C109.924 133.184 110.058 133.273 110.209 133.336C110.358 133.398 110.515 133.431 110.681 133.431H153.324C153.6 133.431 153.847 133.348 154.067 133.181C154.286 133.015 154.435 132.801 154.512 132.537L154.996 130.845L171.122 128.675ZM169.062 118.629H155.616C156.082 117.017 156.317 115.372 156.317 113.695C156.317 112.017 156.082 110.373 155.616 108.76H169.062C169.614 110.358 169.887 112.002 169.887 113.695C169.887 115.384 169.614 117.028 169.062 118.629Z" fill="white"/>
<path d="M131.649 95.1903H134.117V97.6577H131.649V95.1903Z" fill="white"/>
<path d="M136.583 95.1903H139.051V97.6577H136.583V95.1903Z" fill="white"/>
<path d="M140.285 114.927C140.285 112.207 137.518 109.993 134.116 109.993C130.717 109.993 127.95 112.207 127.95 114.927C127.983 115.767 128.194 116.557 128.583 117.299C128.971 118.044 129.5 118.667 130.171 119.172L129.248 121.939C129.185 122.126 129.17 122.319 129.2 122.515C129.23 122.711 129.301 122.889 129.417 123.049C129.533 123.21 129.678 123.334 129.856 123.426C130.031 123.515 130.218 123.563 130.417 123.563H137.818C138.014 123.563 138.204 123.518 138.379 123.426C138.555 123.337 138.703 123.21 138.819 123.049C138.935 122.889 139.006 122.711 139.038 122.515C139.068 122.319 139.05 122.126 138.988 121.939L138.065 119.172C138.733 118.667 139.264 118.044 139.65 117.299C140.039 116.557 140.253 115.767 140.285 114.927ZM136.091 117.498C135.948 117.557 135.823 117.643 135.713 117.753C135.607 117.86 135.521 117.985 135.455 118.127C135.393 118.267 135.36 118.415 135.351 118.566C135.342 118.721 135.363 118.872 135.414 119.018L136.105 121.096H132.127L132.819 119.018C132.869 118.872 132.89 118.721 132.881 118.566C132.875 118.415 132.84 118.267 132.777 118.127C132.715 117.985 132.629 117.86 132.519 117.753C132.409 117.643 132.285 117.557 132.142 117.498C131.652 117.248 131.251 116.895 130.943 116.438C130.637 115.981 130.462 115.476 130.417 114.927C130.417 113.591 132.112 112.46 134.116 112.46C136.123 112.46 137.818 113.591 137.818 114.927C137.774 115.476 137.599 115.981 137.29 116.438C136.981 116.895 136.583 117.248 136.091 117.498Z" fill="white"/>
<path d="M102.049 161.309C102.15 161.443 102.166 161.585 102.1 161.736C102.049 161.869 102.033 162.011 102.049 162.162C102.049 162.513 102.041 162.889 102.024 163.291C102.024 163.675 102.041 164.043 102.074 164.394C102.024 164.461 102.016 164.553 102.049 164.67C102.033 164.754 102.024 164.879 102.024 165.046C102.024 165.163 102.041 165.272 102.074 165.372C102.041 165.606 102.033 165.857 102.049 166.125C102.066 166.392 102.066 166.66 102.049 166.927V167.83C102.016 168.265 102.008 168.691 102.024 169.109C102.041 169.51 102.033 169.92 101.999 170.338C102.033 170.355 102.041 170.371 102.024 170.388C102.008 170.405 102.016 170.413 102.049 170.413C102.049 171.266 102.024 172.102 101.974 172.921C101.957 173.155 101.957 173.381 101.974 173.598C102.008 173.799 102.008 174.016 101.974 174.251C102.008 174.301 102.008 174.359 101.974 174.426C101.957 174.476 101.966 174.526 101.999 174.577C101.982 174.894 101.966 175.204 101.949 175.505C101.932 175.789 101.941 176.081 101.974 176.382C101.974 176.466 101.974 176.55 101.974 176.633C101.991 176.717 101.982 176.809 101.949 176.909C101.966 177.177 101.991 177.427 102.024 177.661C102.058 177.895 102.033 178.138 101.949 178.389L101.648 178.564C101.514 178.514 101.355 178.489 101.172 178.489C101.004 178.489 100.854 178.531 100.72 178.614C100.637 178.614 100.57 178.589 100.519 178.539C100.469 178.489 100.411 178.456 100.344 178.439C100.127 178.405 99.9259 178.414 99.742 178.464C99.5748 178.531 99.3992 178.564 99.2153 178.564C99.0314 178.514 98.9311 178.405 98.9144 178.238C98.9144 178.054 98.8976 177.887 98.8642 177.737C98.9144 177.603 98.9311 177.461 98.9144 177.31C98.9144 177.143 98.9562 177.001 99.0398 176.884C99.0565 176.7 99.0648 176.524 99.0648 176.357C99.0648 176.19 99.0648 176.023 99.0648 175.856C99.0648 175.688 99.0648 175.521 99.0648 175.354C99.0816 175.17 99.0983 174.986 99.115 174.802C99.0314 174.551 99.0063 174.292 99.0398 174.025C99.0899 173.757 99.0983 173.481 99.0648 173.197C99.0314 172.997 99.023 172.804 99.0398 172.62C99.0565 172.42 99.0481 172.227 99.0147 172.043C99.0648 171.642 99.0899 171.249 99.0899 170.865V168.658C99.0063 168.574 98.998 168.49 99.0648 168.407C99.1317 168.323 99.1317 168.231 99.0648 168.131C99.115 167.646 99.115 167.153 99.0648 166.651C99.0147 166.635 99.0063 166.618 99.0398 166.601C99.0732 166.584 99.0732 166.559 99.0398 166.526C99.0899 166.342 99.1066 166.125 99.0899 165.874C99.0732 165.606 99.0732 165.381 99.0899 165.197C99.1234 165.013 99.1317 164.829 99.115 164.645C99.115 164.461 99.115 164.277 99.115 164.093C99.0816 163.993 99.0732 163.884 99.0899 163.767C99.1234 163.633 99.1234 163.516 99.0899 163.416C99.1234 163.115 99.1317 162.814 99.115 162.513C99.0983 162.212 99.0732 161.903 99.0398 161.585C99.0732 161.535 99.0816 161.485 99.0648 161.435C99.0648 161.368 99.0983 161.318 99.1652 161.284C99.5999 161.318 100.06 161.326 100.545 161.309C101.046 161.276 101.514 161.276 101.949 161.309H102.049ZM108.294 175.454V175.429C108.712 175.479 109.055 175.496 109.323 175.479C109.607 175.463 109.958 175.454 110.376 175.454C110.476 175.538 110.518 175.638 110.501 175.755C110.485 175.872 110.501 175.981 110.551 176.081C110.585 176.249 110.602 176.416 110.602 176.583C110.618 176.75 110.585 176.909 110.501 177.059C110.535 177.16 110.543 177.26 110.526 177.36C110.51 177.444 110.518 177.528 110.551 177.611C110.518 177.762 110.518 177.921 110.551 178.088C110.585 178.255 110.526 178.397 110.376 178.514C110.242 178.38 110.083 178.33 109.899 178.364C109.732 178.397 109.565 178.405 109.398 178.389C109.063 178.355 108.796 178.339 108.595 178.339C108.411 178.322 108.152 178.33 107.818 178.364C107.701 178.431 107.567 178.456 107.416 178.439C107.266 178.422 107.124 178.422 106.99 178.439C106.739 178.339 106.472 178.305 106.188 178.339C105.92 178.372 105.653 178.389 105.385 178.389C105.368 178.506 105.31 178.548 105.209 178.514C105.109 178.497 105.034 178.489 104.984 178.489C104.9 178.489 104.817 178.522 104.733 178.589C104.649 178.656 104.566 178.64 104.482 178.539C104.365 178.506 104.24 178.514 104.106 178.564C103.989 178.614 103.897 178.556 103.83 178.389C103.83 178.255 103.838 178.13 103.855 178.013C103.889 177.879 103.88 177.745 103.83 177.611C103.863 177.511 103.863 177.402 103.83 177.285C103.813 177.151 103.813 177.026 103.83 176.909C103.83 176.742 103.822 176.575 103.805 176.407C103.805 176.24 103.822 176.081 103.855 175.931C103.822 175.864 103.822 175.797 103.855 175.73C103.889 175.647 103.889 175.571 103.855 175.505C103.989 175.421 104.123 175.396 104.256 175.429C104.407 175.463 104.549 175.471 104.683 175.454C104.934 175.404 105.193 175.396 105.46 175.429C105.744 175.463 106.029 175.463 106.313 175.429C106.447 175.463 106.555 175.479 106.639 175.479C106.739 175.463 106.856 175.454 106.99 175.454C107.207 175.471 107.416 175.479 107.617 175.479C107.818 175.463 108.035 175.454 108.269 175.454H108.294ZM105.736 161.284C105.82 161.251 105.903 161.251 105.987 161.284C106.087 161.318 106.179 161.318 106.263 161.284H110.251C110.301 161.351 110.317 161.426 110.301 161.51C110.301 161.577 110.309 161.644 110.326 161.711C110.309 161.978 110.326 162.254 110.376 162.538C110.443 162.822 110.434 163.09 110.351 163.341C110.317 163.424 110.309 163.508 110.326 163.592C110.342 163.675 110.351 163.759 110.351 163.842C110.368 163.926 110.368 164.001 110.351 164.068C110.334 164.135 110.284 164.193 110.2 164.244C110.083 164.177 109.95 164.143 109.799 164.143C109.665 164.143 109.532 164.185 109.398 164.269C109.047 164.135 108.762 164.076 108.545 164.093C108.328 164.11 108.027 164.11 107.642 164.093C107.391 164.076 107.132 164.076 106.865 164.093C106.614 164.093 106.363 164.076 106.112 164.043C105.862 164.06 105.611 164.085 105.36 164.118C105.126 164.152 104.892 164.152 104.658 164.118C104.608 164.152 104.541 164.168 104.457 164.168C104.39 164.168 104.315 164.177 104.231 164.193C104.164 164.193 104.098 164.21 104.031 164.244C103.981 164.26 103.947 164.319 103.93 164.419C103.93 164.453 103.939 164.494 103.955 164.545C103.972 164.595 103.964 164.637 103.93 164.67C103.863 164.67 103.83 164.637 103.83 164.57C103.847 164.486 103.838 164.428 103.805 164.394C103.705 164.26 103.68 164.118 103.73 163.968C103.797 163.817 103.813 163.675 103.78 163.541C103.797 163.224 103.813 162.898 103.83 162.563C103.847 162.229 103.847 161.894 103.83 161.56C103.83 161.51 103.822 161.451 103.805 161.384C103.788 161.318 103.805 161.267 103.855 161.234C104.139 161.267 104.449 161.276 104.783 161.259C105.117 161.242 105.435 161.251 105.736 161.284ZM106.589 168.382C106.907 168.382 107.199 168.399 107.467 168.432C107.751 168.449 108.06 168.44 108.395 168.407C108.495 168.34 108.562 168.365 108.595 168.482C108.629 168.582 108.67 168.649 108.721 168.683C108.737 168.783 108.779 168.867 108.846 168.934C108.879 169.034 108.888 169.134 108.871 169.235C108.854 169.318 108.829 169.41 108.796 169.51C108.762 169.594 108.737 169.686 108.721 169.786C108.704 169.87 108.721 169.962 108.771 170.062C108.771 170.447 108.796 170.815 108.846 171.166C108.813 171.216 108.779 171.274 108.746 171.341C108.729 171.391 108.696 171.433 108.645 171.467C108.545 171.467 108.487 171.508 108.47 171.592C108.453 171.676 108.403 171.726 108.319 171.743C108.286 171.676 108.269 171.609 108.269 171.542C108.286 171.475 108.261 171.416 108.194 171.366C108.06 171.366 107.926 171.408 107.793 171.492C107.659 171.559 107.534 171.508 107.416 171.341C107.35 171.325 107.291 171.35 107.241 171.416C107.191 171.483 107.149 171.467 107.116 171.366C106.948 171.333 106.815 171.316 106.714 171.316C106.614 171.316 106.48 171.299 106.313 171.266C106.28 171.35 106.246 171.366 106.213 171.316C106.196 171.249 106.162 171.224 106.112 171.241C105.744 171.224 105.427 171.224 105.159 171.241C104.908 171.241 104.591 171.249 104.206 171.266C104.173 171.283 104.148 171.333 104.131 171.416C104.131 171.5 104.131 171.592 104.131 171.692C104.131 171.776 104.131 171.86 104.131 171.943C104.148 172.01 104.156 172.06 104.156 172.094C104.156 172.144 104.123 172.227 104.056 172.344C104.006 172.461 103.955 172.503 103.905 172.47C103.822 172.42 103.788 172.344 103.805 172.244C103.822 172.144 103.847 172.052 103.88 171.968C103.897 171.918 103.897 171.851 103.88 171.768C103.863 171.667 103.838 171.567 103.805 171.467C103.788 171.366 103.772 171.274 103.755 171.191C103.755 171.09 103.772 171.015 103.805 170.965C103.772 170.932 103.755 170.881 103.755 170.815C103.755 170.714 103.763 170.639 103.78 170.589C103.78 170.522 103.78 170.472 103.78 170.438C103.797 170.388 103.797 170.321 103.78 170.238L103.855 168.382C104.24 168.348 104.557 168.348 104.808 168.382C105.076 168.415 105.385 168.424 105.736 168.407C105.87 168.407 106.012 168.407 106.162 168.407C106.313 168.39 106.455 168.382 106.589 168.382ZM125.043 175.028C125.127 175.195 125.202 175.329 125.269 175.429C125.336 175.53 125.403 175.63 125.47 175.73C125.537 175.814 125.604 175.897 125.67 175.981C125.754 176.065 125.854 176.182 125.971 176.332C126.005 176.165 126.038 175.939 126.072 175.655C126.105 175.371 126.072 175.162 125.971 175.028C125.921 174.978 125.879 174.886 125.846 174.752C125.829 174.618 125.813 174.476 125.796 174.326C125.779 174.175 125.762 174.033 125.746 173.899C125.729 173.766 125.704 173.665 125.67 173.598C125.587 173.431 125.478 173.239 125.344 173.022C125.227 172.788 125.127 172.579 125.043 172.395C125.043 172.378 125.035 172.386 125.018 172.42C125.018 172.453 125.01 172.495 124.993 172.545C124.977 172.595 124.96 172.637 124.943 172.67C124.943 172.704 124.943 172.721 124.943 172.721C124.91 172.637 124.893 172.537 124.893 172.42C124.91 172.286 124.901 172.177 124.868 172.094C124.801 171.926 124.692 171.776 124.542 171.642C124.391 171.508 124.274 171.366 124.191 171.216L123.915 170.764C123.798 170.631 123.706 170.497 123.639 170.363C123.572 170.229 123.488 170.087 123.388 169.937C123.338 169.853 123.296 169.761 123.263 169.661C123.229 169.561 123.187 169.469 123.137 169.385C123.104 169.134 123.096 168.9 123.112 168.683C123.146 168.465 123.146 168.24 123.112 168.006C123.196 167.571 123.221 167.111 123.187 166.626C123.171 166.141 123.179 165.682 123.213 165.247C123.162 165.18 123.154 165.096 123.187 164.996C123.238 164.896 123.229 164.804 123.162 164.72C123.196 164.62 123.196 164.519 123.162 164.419C123.146 164.302 123.137 164.193 123.137 164.093C123.204 163.943 123.221 163.801 123.187 163.667C123.154 163.516 123.137 163.366 123.137 163.215C123.154 163.199 123.162 163.157 123.162 163.09L123.137 163.065C123.154 162.814 123.162 162.58 123.162 162.363C123.179 162.145 123.154 161.928 123.087 161.711C123.054 161.627 123.079 161.56 123.162 161.51C123.33 161.476 123.472 161.46 123.589 161.46C123.672 161.46 123.756 161.46 123.84 161.46C123.923 161.443 124.007 161.426 124.09 161.41C124.258 161.426 124.416 161.426 124.567 161.41C124.717 161.376 124.868 161.384 125.018 161.435C125.202 161.418 125.361 161.41 125.495 161.41C125.645 161.393 125.813 161.368 125.996 161.334C126.08 161.351 126.113 161.393 126.097 161.46C126.097 161.51 126.113 161.552 126.147 161.585C126.18 161.97 126.172 162.346 126.122 162.714C126.088 163.065 126.097 163.433 126.147 163.817C126.13 163.817 126.122 163.826 126.122 163.842C126.139 163.993 126.155 164.143 126.172 164.294C126.189 164.428 126.18 164.578 126.147 164.745C126.264 164.829 126.264 164.904 126.147 164.971C126.113 165.071 126.139 165.163 126.222 165.247C126.306 165.33 126.297 165.422 126.197 165.523C126.214 165.64 126.214 165.757 126.197 165.874C126.197 165.991 126.231 166.1 126.297 166.2C126.231 166.317 126.197 166.451 126.197 166.601C126.197 166.668 126.189 166.735 126.172 166.802C126.172 166.852 126.164 166.919 126.147 167.002C126.164 167.086 126.164 167.178 126.147 167.278C126.147 167.379 126.139 167.479 126.122 167.579C126.122 167.897 126.139 168.206 126.172 168.507C126.222 168.808 126.231 169.117 126.197 169.435C126.214 169.569 126.222 169.711 126.222 169.862C126.239 170.012 126.247 170.162 126.247 170.313C126.247 170.463 126.247 170.614 126.247 170.764C126.264 170.915 126.281 171.074 126.297 171.241C126.247 171.375 126.231 171.508 126.247 171.642C126.281 171.759 126.264 171.885 126.197 172.018C126.197 172.119 126.18 172.227 126.147 172.344C126.13 172.445 126.147 172.537 126.197 172.62C126.18 172.788 126.189 172.955 126.222 173.122C126.256 173.272 126.256 173.415 126.222 173.548C126.239 173.782 126.256 174.083 126.272 174.451C126.289 174.819 126.281 175.12 126.247 175.354C126.231 175.421 126.222 175.521 126.222 175.655C126.239 175.772 126.247 175.897 126.247 176.031C126.247 176.148 126.239 176.265 126.222 176.382C126.205 176.499 126.172 176.583 126.122 176.633C126.105 176.683 126.097 176.784 126.097 176.934C126.113 177.085 126.122 177.252 126.122 177.436V177.912C126.122 178.046 126.105 178.146 126.072 178.213C126.055 178.247 126.047 178.33 126.047 178.464C126.063 178.598 126.072 178.731 126.072 178.865C126.088 178.999 126.088 179.116 126.072 179.216C126.072 179.333 126.038 179.384 125.971 179.367C125.921 179.35 125.879 179.267 125.846 179.116C125.813 178.966 125.813 178.84 125.846 178.74C125.879 178.656 125.846 178.564 125.746 178.464C125.645 178.431 125.553 178.456 125.47 178.539C125.453 178.573 125.453 178.69 125.47 178.89C125.486 179.108 125.495 179.325 125.495 179.542C125.512 179.76 125.503 179.944 125.47 180.094C125.453 180.261 125.395 180.312 125.294 180.245C125.244 180.228 125.219 180.128 125.219 179.944C125.219 179.726 125.227 179.459 125.244 179.141C125.261 178.84 125.202 178.623 125.068 178.489H124.893C124.843 178.489 124.818 178.514 124.818 178.564C124.818 178.581 124.826 178.631 124.843 178.715C124.859 178.798 124.868 178.882 124.868 178.966C124.868 179.066 124.859 179.149 124.843 179.216C124.826 179.3 124.793 179.342 124.742 179.342C124.659 179.342 124.6 179.292 124.567 179.191C124.55 179.091 124.542 178.974 124.542 178.84C124.542 178.757 124.542 178.681 124.542 178.614C124.559 178.548 124.567 178.497 124.567 178.464C124.533 178.497 124.467 178.514 124.366 178.514C124.283 178.514 124.224 178.506 124.191 178.489C124.141 178.472 124.049 178.464 123.915 178.464H123.639C123.522 178.464 123.472 178.456 123.488 178.439C123.488 178.439 123.48 178.447 123.463 178.464L122.285 176.884L121.808 176.232C121.724 176.031 121.607 175.856 121.457 175.705C121.357 175.538 121.248 175.379 121.131 175.229C121.031 175.078 120.939 174.919 120.855 174.752C120.738 174.719 120.671 174.66 120.654 174.577C120.638 174.493 120.588 174.426 120.504 174.376C120.521 174.326 120.504 174.292 120.454 174.276C120.42 174.242 120.387 174.209 120.353 174.175C120.32 174.159 120.295 174.159 120.278 174.175C120.261 174.192 120.245 174.184 120.228 174.15C120.228 174.016 120.178 173.891 120.078 173.774C119.977 173.64 119.885 173.506 119.802 173.373C119.718 173.189 119.601 173.013 119.451 172.846C119.3 172.679 119.183 172.503 119.099 172.319C118.899 172.085 118.715 171.843 118.548 171.592C118.397 171.341 118.205 171.099 117.971 170.865C117.77 170.547 117.578 170.229 117.394 169.912C117.227 169.594 117.026 169.285 116.792 168.984C116.792 168.9 116.742 168.833 116.642 168.783C116.558 168.733 116.525 168.666 116.541 168.582C116.357 168.365 116.19 168.148 116.04 167.93C115.906 167.696 115.747 167.471 115.563 167.253C115.463 167.119 115.329 166.994 115.162 166.877C115.011 166.743 114.911 166.601 114.861 166.451C114.744 166.283 114.644 166.125 114.56 165.974C114.493 165.807 114.418 165.631 114.334 165.447C114.1 165.18 113.9 164.904 113.732 164.62C113.582 164.336 113.39 164.076 113.155 163.842C113.055 163.759 112.988 163.667 112.955 163.566C112.938 163.466 112.888 163.374 112.804 163.291C112.754 163.24 112.729 163.199 112.729 163.165C112.746 163.132 112.763 163.098 112.779 163.065C112.813 163.031 112.829 162.998 112.829 162.965C112.846 162.914 112.829 162.847 112.779 162.764C112.729 162.697 112.712 162.622 112.729 162.538C112.746 162.455 112.763 162.371 112.779 162.287C112.813 162.187 112.838 162.095 112.855 162.011C112.871 161.911 112.855 161.828 112.804 161.761C112.754 161.694 112.729 161.61 112.729 161.51C112.729 161.41 112.771 161.343 112.855 161.309C113.072 161.226 113.181 161.184 113.181 161.184C113.214 161.184 113.222 161.192 113.206 161.209C113.189 161.226 113.181 161.242 113.181 161.259C113.181 161.276 113.197 161.284 113.231 161.284C113.281 161.284 113.381 161.267 113.532 161.234C113.766 161.284 114.017 161.276 114.284 161.209C114.568 161.142 114.819 161.134 115.036 161.184C115.17 161.234 115.271 161.301 115.337 161.384C115.421 161.451 115.488 161.527 115.538 161.61C115.588 161.694 115.647 161.777 115.714 161.861C115.781 161.945 115.864 162.02 115.964 162.087C116.048 162.154 116.132 162.212 116.215 162.262C116.299 162.312 116.307 162.379 116.24 162.463C116.24 162.547 116.265 162.613 116.316 162.664C116.382 162.697 116.416 162.747 116.416 162.814C116.55 162.898 116.633 163.006 116.667 163.14C116.717 163.257 116.8 163.366 116.917 163.466C117.001 163.667 117.126 163.851 117.294 164.018C117.478 164.168 117.603 164.361 117.67 164.595C117.82 164.712 117.921 164.854 117.971 165.021C118.021 165.172 118.113 165.297 118.247 165.397C118.33 165.548 118.414 165.707 118.498 165.874C118.598 166.024 118.723 166.166 118.874 166.3C118.874 166.367 118.899 166.426 118.949 166.476C119.016 166.509 119.049 166.559 119.049 166.626C119.233 166.777 119.367 166.944 119.451 167.128C119.534 167.312 119.634 167.496 119.752 167.68C119.835 167.73 119.877 167.797 119.877 167.88C119.894 167.947 119.952 167.997 120.052 168.031C120.17 168.265 120.312 168.482 120.479 168.683C120.663 168.867 120.797 169.076 120.88 169.31C120.947 169.393 121.014 169.485 121.081 169.586C121.164 169.669 121.231 169.753 121.281 169.836C121.398 170.071 121.541 170.288 121.708 170.489C121.892 170.672 122.025 170.881 122.109 171.116C122.243 171.199 122.326 171.308 122.36 171.442C122.393 171.559 122.485 171.659 122.636 171.743C122.652 171.843 122.703 171.926 122.786 171.993C122.887 172.06 122.953 172.135 122.987 172.219C123.104 172.286 123.171 172.361 123.187 172.445C123.221 172.528 123.288 172.604 123.388 172.67C123.422 172.721 123.455 172.779 123.488 172.846C123.539 172.896 123.555 172.946 123.539 172.997C123.572 173.114 123.639 173.197 123.739 173.247C123.84 173.297 123.898 173.381 123.915 173.498C124.099 173.766 124.274 174.033 124.441 174.301C124.609 174.551 124.809 174.794 125.043 175.028ZM113.005 166.375C113.005 166.543 113.072 166.676 113.206 166.777C113.356 166.86 113.431 166.986 113.431 167.153C113.532 167.236 113.599 167.328 113.632 167.429C113.665 167.529 113.724 167.621 113.808 167.705C113.874 167.788 113.925 167.88 113.958 167.981C114.008 168.081 114.067 168.173 114.134 168.256C114.217 168.307 114.267 168.373 114.284 168.457C114.301 168.524 114.351 168.582 114.435 168.633C114.451 168.716 114.493 168.783 114.56 168.833C114.644 168.883 114.685 168.95 114.685 169.034C114.769 169.184 114.861 169.335 114.961 169.485C115.078 169.636 115.154 169.803 115.187 169.987C115.254 170.154 115.354 170.288 115.488 170.388C115.638 170.489 115.73 170.631 115.764 170.815C115.847 170.915 115.872 171.065 115.839 171.266C115.806 171.467 115.789 171.625 115.789 171.743V172.294C115.789 172.378 115.789 172.47 115.789 172.57C115.806 172.654 115.822 172.746 115.839 172.846C115.822 172.963 115.814 173.08 115.814 173.197C115.814 173.314 115.814 173.431 115.814 173.548C115.814 173.665 115.806 173.782 115.789 173.899C115.789 174 115.781 174.108 115.764 174.225C115.814 174.309 115.814 174.401 115.764 174.501C115.714 174.585 115.705 174.669 115.739 174.752C115.705 174.936 115.705 175.103 115.739 175.254C115.772 175.404 115.764 175.571 115.714 175.755C115.781 176.023 115.806 176.307 115.789 176.608C115.772 176.909 115.739 177.202 115.689 177.486C115.739 177.62 115.755 177.753 115.739 177.887C115.739 178.004 115.739 178.13 115.739 178.263C115.572 178.33 115.413 178.322 115.262 178.238C115.128 178.138 114.961 178.121 114.761 178.188C114.727 178.272 114.66 178.313 114.56 178.313C114.46 178.297 114.384 178.33 114.334 178.414C114.234 178.28 114.109 178.222 113.958 178.238C113.808 178.255 113.649 178.263 113.482 178.263C113.381 178.297 113.298 178.313 113.231 178.313C113.147 178.313 113.08 178.339 113.03 178.389C112.997 178.506 112.972 178.631 112.955 178.765C112.938 178.915 112.913 179.049 112.88 179.166C112.863 179.216 112.829 179.216 112.779 179.166C112.746 179.133 112.729 179.099 112.729 179.066C112.712 179.032 112.704 178.991 112.704 178.94C112.721 178.89 112.729 178.849 112.729 178.815C112.696 178.681 112.679 178.573 112.679 178.489C112.679 178.389 112.637 178.297 112.554 178.213C112.654 178.046 112.704 177.854 112.704 177.636C112.788 177.352 112.821 177.068 112.804 176.784C112.788 176.483 112.796 176.173 112.829 175.856C112.746 175.605 112.721 175.354 112.754 175.103C112.804 174.852 112.804 174.585 112.754 174.301C112.788 173.381 112.779 172.503 112.729 171.667C112.696 170.831 112.696 169.953 112.729 169.034C112.712 168.984 112.704 168.892 112.704 168.758C112.671 168.524 112.662 168.281 112.679 168.031C112.696 167.78 112.696 167.529 112.679 167.278C112.679 167.228 112.679 167.17 112.679 167.103C112.696 167.036 112.704 166.977 112.704 166.927C112.721 166.777 112.721 166.635 112.704 166.501C112.687 166.367 112.671 166.225 112.654 166.074C112.671 166.041 112.687 166.033 112.704 166.049C112.737 166.049 112.763 166.058 112.779 166.074C112.729 166.158 112.746 166.217 112.829 166.25C112.913 166.283 112.972 166.325 113.005 166.375ZM123.514 178.414H123.539C123.572 178.414 123.597 178.405 123.614 178.389H123.539L123.514 178.414ZM139.768 161.46C139.685 161.828 139.643 162.17 139.643 162.488C139.643 162.672 139.643 162.856 139.643 163.04C139.643 163.207 139.651 163.383 139.668 163.566C139.751 163.867 139.776 164.185 139.743 164.519C139.693 164.57 139.634 164.595 139.567 164.595C139.517 164.578 139.459 164.553 139.392 164.519C139.342 164.486 139.283 164.461 139.216 164.444C139.149 164.428 139.083 164.444 139.016 164.494C138.932 164.494 138.849 164.469 138.765 164.419C138.698 164.369 138.623 164.344 138.539 164.344C138.456 164.361 138.414 164.428 138.414 164.545C138.431 164.645 138.397 164.687 138.313 164.67C138.23 164.637 138.155 164.57 138.088 164.469C138.038 164.369 137.971 164.302 137.887 164.269C137.536 164.235 137.202 164.227 136.884 164.244C136.583 164.26 136.232 164.269 135.831 164.269C135.747 164.319 135.705 164.402 135.705 164.519C135.722 164.637 135.68 164.678 135.58 164.645C135.53 164.611 135.479 164.578 135.429 164.545C135.396 164.494 135.346 164.453 135.279 164.419C135.245 164.453 135.22 164.503 135.204 164.57C135.204 164.637 135.187 164.662 135.153 164.645C135.087 164.611 135.061 164.536 135.078 164.419C135.095 164.302 135.045 164.235 134.928 164.219C134.878 164.252 134.827 164.285 134.777 164.319C134.744 164.336 134.71 164.386 134.677 164.469C134.694 164.536 134.685 164.628 134.652 164.745H134.602C134.568 164.662 134.551 164.578 134.551 164.494C134.568 164.394 134.526 164.327 134.426 164.294C134.225 164.244 134.067 164.227 133.95 164.244L133.799 164.394C133.766 164.294 133.699 164.227 133.598 164.193L131.09 164.219C130.923 164.269 130.823 164.377 130.789 164.545C130.773 164.712 130.764 164.862 130.764 164.996H130.739C130.739 164.695 130.664 164.469 130.514 164.319C130.48 164.302 130.438 164.319 130.388 164.369C130.355 164.419 130.321 164.453 130.288 164.469C130.271 164.553 130.271 164.662 130.288 164.795C130.305 164.912 130.271 164.946 130.188 164.896C130.104 164.862 130.079 164.795 130.112 164.695C130.162 164.595 130.146 164.503 130.062 164.419C130.012 164.386 129.962 164.386 129.912 164.419C129.878 164.453 129.845 164.486 129.811 164.519C129.778 164.637 129.786 164.787 129.836 164.971C129.887 165.138 129.862 165.205 129.761 165.172C129.694 165.138 129.661 165.08 129.661 164.996C129.661 164.912 129.661 164.829 129.661 164.745C129.661 164.662 129.653 164.578 129.636 164.494C129.619 164.411 129.561 164.352 129.46 164.319C129.293 164.202 129.109 164.16 128.908 164.193C128.725 164.21 128.541 164.193 128.357 164.143C128.323 164.026 128.332 163.926 128.382 163.842C128.432 163.759 128.432 163.658 128.382 163.541C128.382 163.19 128.373 162.831 128.357 162.463C128.34 162.078 128.357 161.694 128.407 161.309L128.507 161.234C128.842 161.301 129.184 161.326 129.535 161.309C129.887 161.276 130.229 161.293 130.564 161.359C130.915 161.276 131.283 161.251 131.667 161.284C132.069 161.318 132.461 161.318 132.846 161.284C132.913 161.217 132.988 161.184 133.072 161.184C133.206 161.184 133.339 161.209 133.473 161.259C133.607 161.293 133.732 161.267 133.849 161.184C134.852 161.167 135.814 161.192 136.733 161.259C137.653 161.309 138.631 161.326 139.668 161.309L139.768 161.46ZM135.605 166.024C135.521 166.442 135.488 166.885 135.505 167.354C135.521 167.805 135.513 168.256 135.479 168.708C135.446 169.276 135.454 169.853 135.505 170.438C135.571 171.024 135.588 171.609 135.555 172.194C135.588 172.378 135.588 172.553 135.555 172.721C135.538 172.888 135.521 173.063 135.505 173.247C135.521 173.381 135.53 173.498 135.53 173.598C135.53 173.682 135.53 173.757 135.53 173.824C135.53 174.008 135.521 174.159 135.505 174.276C135.505 174.376 135.521 174.61 135.555 174.978C135.571 175.162 135.571 175.337 135.555 175.505C135.555 175.655 135.596 175.797 135.68 175.931L135.655 176.232C135.588 176.299 135.555 176.374 135.555 176.458C135.555 176.591 135.571 176.708 135.605 176.809C135.638 176.909 135.63 177.026 135.58 177.16C135.58 177.227 135.571 177.302 135.555 177.386C135.555 177.452 135.546 177.528 135.53 177.611H135.505C135.404 177.879 135.396 178.13 135.479 178.364C135.563 178.581 135.588 178.832 135.555 179.116C135.588 179.267 135.563 179.425 135.479 179.593C135.413 179.76 135.421 179.919 135.505 180.069C135.538 180.119 135.546 180.186 135.53 180.27C135.53 180.353 135.488 180.412 135.404 180.445C135.321 180.479 135.279 180.462 135.279 180.395C135.279 180.328 135.27 180.286 135.254 180.27L135.028 178.79C134.978 178.706 134.911 178.64 134.827 178.589C134.76 178.539 134.685 178.539 134.602 178.589C134.501 178.656 134.393 178.681 134.276 178.665C134.175 178.648 134.083 178.631 134 178.614C133.933 178.614 133.883 178.64 133.849 178.69C133.833 178.74 133.849 178.874 133.899 179.091C133.833 179.041 133.799 178.957 133.799 178.84C133.816 178.723 133.757 178.648 133.624 178.614C133.523 178.665 133.448 178.656 133.398 178.589C133.348 178.522 133.281 178.481 133.197 178.464C133.063 178.431 132.93 178.431 132.796 178.464C132.679 178.497 132.579 178.489 132.495 178.439C132.495 178.355 132.503 178.272 132.52 178.188C132.553 178.088 132.553 177.996 132.52 177.912C132.52 177.277 132.528 176.742 132.545 176.307C132.562 175.856 132.57 175.429 132.57 175.028C132.57 174.627 132.562 174.209 132.545 173.774C132.545 173.323 132.52 172.788 132.47 172.169C132.553 172.102 132.562 172.043 132.495 171.993C132.445 171.943 132.445 171.901 132.495 171.868C132.461 171.567 132.453 171.266 132.47 170.965C132.503 170.647 132.512 170.33 132.495 170.012H132.52C132.57 169.912 132.57 169.811 132.52 169.711H132.495C132.579 169.678 132.595 169.644 132.545 169.611C132.495 169.561 132.503 169.519 132.57 169.485C132.604 169.285 132.595 169.134 132.545 169.034C132.495 168.917 132.512 168.775 132.595 168.608C132.512 168.49 132.487 168.357 132.52 168.206C132.57 168.056 132.545 167.93 132.445 167.83C132.461 167.512 132.453 167.211 132.42 166.927C132.386 166.626 132.42 166.325 132.52 166.024C132.637 166.008 132.754 165.999 132.871 165.999C133.005 165.999 133.139 165.999 133.272 165.999C133.557 165.999 133.824 165.974 134.075 165.924C134.276 165.991 134.518 166.024 134.802 166.024C135.103 166.008 135.371 166.008 135.605 166.024ZM137.837 175.73C137.87 175.814 137.845 175.864 137.762 175.881C137.695 175.897 137.661 175.948 137.661 176.031H137.034C137.202 175.948 137.344 175.889 137.461 175.856C137.578 175.805 137.703 175.764 137.837 175.73ZM138.113 167.354C138.13 167.27 138.146 167.186 138.163 167.103C138.18 167.002 138.205 166.936 138.238 166.902C138.255 167.069 138.263 167.245 138.263 167.429C138.28 167.596 138.288 167.772 138.288 167.955C138.288 168.139 138.288 168.323 138.288 168.507C138.288 168.674 138.28 168.842 138.263 169.009C138.263 169.343 138.255 169.686 138.238 170.037C138.222 170.371 138.23 170.689 138.263 170.99C138.23 171.124 138.213 171.283 138.213 171.467C138.23 171.651 138.205 171.751 138.138 171.768C138.088 171.216 138.071 170.631 138.088 170.012C138.121 169.377 138.121 168.766 138.088 168.181C138.121 168.064 138.13 167.93 138.113 167.78C138.113 167.613 138.113 167.471 138.113 167.354ZM145.352 161.309C145.452 161.443 145.469 161.585 145.402 161.736C145.352 161.869 145.335 162.011 145.352 162.162C145.352 162.513 145.343 162.889 145.326 163.291C145.326 163.675 145.343 164.043 145.377 164.394C145.326 164.461 145.318 164.553 145.352 164.67C145.335 164.754 145.326 164.879 145.326 165.046C145.326 165.163 145.343 165.272 145.377 165.372C145.343 165.606 145.335 165.857 145.352 166.125C145.368 166.392 145.368 166.66 145.352 166.927V167.83C145.318 168.265 145.31 168.691 145.326 169.109C145.343 169.51 145.335 169.92 145.301 170.338C145.335 170.355 145.343 170.371 145.326 170.388C145.31 170.405 145.318 170.413 145.352 170.413C145.352 171.266 145.326 172.102 145.276 172.921C145.26 173.155 145.26 173.381 145.276 173.598C145.31 173.799 145.31 174.016 145.276 174.251C145.31 174.301 145.31 174.359 145.276 174.426C145.26 174.476 145.268 174.526 145.301 174.577C145.285 174.894 145.268 175.204 145.251 175.505C145.235 175.789 145.243 176.081 145.276 176.382C145.276 176.466 145.276 176.55 145.276 176.633C145.293 176.717 145.285 176.809 145.251 176.909C145.268 177.177 145.293 177.427 145.326 177.661C145.36 177.895 145.335 178.138 145.251 178.389L144.95 178.564C144.817 178.514 144.658 178.489 144.474 178.489C144.307 178.489 144.156 178.531 144.022 178.614C143.939 178.614 143.872 178.589 143.822 178.539C143.772 178.489 143.713 178.456 143.646 178.439C143.429 178.405 143.228 178.414 143.044 178.464C142.877 178.531 142.701 178.564 142.518 178.564C142.334 178.514 142.233 178.405 142.217 178.238C142.217 178.054 142.2 177.887 142.166 177.737C142.217 177.603 142.233 177.461 142.217 177.31C142.217 177.143 142.258 177.001 142.342 176.884C142.359 176.7 142.367 176.524 142.367 176.357C142.367 176.19 142.367 176.023 142.367 175.856C142.367 175.688 142.367 175.521 142.367 175.354C142.384 175.17 142.4 174.986 142.417 174.802C142.334 174.551 142.309 174.292 142.342 174.025C142.392 173.757 142.4 173.481 142.367 173.197C142.334 172.997 142.325 172.804 142.342 172.62C142.359 172.42 142.35 172.227 142.317 172.043C142.367 171.642 142.392 171.249 142.392 170.865V168.658C142.309 168.574 142.3 168.49 142.367 168.407C142.434 168.323 142.434 168.231 142.367 168.131C142.417 167.646 142.417 167.153 142.367 166.651C142.317 166.635 142.309 166.618 142.342 166.601C142.375 166.584 142.375 166.559 142.342 166.526C142.392 166.342 142.409 166.125 142.392 165.874C142.375 165.606 142.375 165.381 142.392 165.197C142.426 165.013 142.434 164.829 142.417 164.645C142.417 164.461 142.417 164.277 142.417 164.093C142.384 163.993 142.375 163.884 142.392 163.767C142.426 163.633 142.426 163.516 142.392 163.416C142.426 163.115 142.434 162.814 142.417 162.513C142.4 162.212 142.375 161.903 142.342 161.585C142.375 161.535 142.384 161.485 142.367 161.435C142.367 161.368 142.4 161.318 142.467 161.284C142.902 161.318 143.362 161.326 143.847 161.309C144.348 161.276 144.817 161.276 145.251 161.309H145.352ZM151.596 175.454V175.429C152.014 175.479 152.357 175.496 152.625 175.479C152.909 175.463 153.26 175.454 153.678 175.454C153.778 175.538 153.82 175.638 153.804 175.755C153.787 175.872 153.804 175.981 153.854 176.081C153.887 176.249 153.904 176.416 153.904 176.583C153.921 176.75 153.887 176.909 153.804 177.059C153.837 177.16 153.845 177.26 153.829 177.36C153.812 177.444 153.82 177.528 153.854 177.611C153.82 177.762 153.82 177.921 153.854 178.088C153.887 178.255 153.829 178.397 153.678 178.514C153.544 178.38 153.386 178.33 153.202 178.364C153.034 178.397 152.867 178.405 152.7 178.389C152.366 178.355 152.098 178.339 151.897 178.339C151.714 178.322 151.454 178.33 151.12 178.364C151.003 178.431 150.869 178.456 150.719 178.439C150.568 178.422 150.426 178.422 150.292 178.439C150.042 178.339 149.774 178.305 149.49 178.339C149.222 178.372 148.955 178.389 148.687 178.389C148.67 178.506 148.612 178.548 148.512 178.514C148.411 178.497 148.336 178.489 148.286 178.489C148.202 178.489 148.119 178.522 148.035 178.589C147.952 178.656 147.868 178.64 147.784 178.539C147.667 178.506 147.542 178.514 147.408 178.564C147.291 178.614 147.199 178.556 147.132 178.389C147.132 178.255 147.141 178.13 147.157 178.013C147.191 177.879 147.182 177.745 147.132 177.611C147.166 177.511 147.166 177.402 147.132 177.285C147.116 177.151 147.116 177.026 147.132 176.909C147.132 176.742 147.124 176.575 147.107 176.407C147.107 176.24 147.124 176.081 147.157 175.931C147.124 175.864 147.124 175.797 147.157 175.73C147.191 175.647 147.191 175.571 147.157 175.505C147.291 175.421 147.425 175.396 147.559 175.429C147.709 175.463 147.851 175.471 147.985 175.454C148.236 175.404 148.495 175.396 148.762 175.429C149.047 175.463 149.331 175.463 149.615 175.429C149.749 175.463 149.858 175.479 149.941 175.479C150.042 175.463 150.159 175.454 150.292 175.454C150.51 175.471 150.719 175.479 150.919 175.479C151.12 175.463 151.337 175.454 151.571 175.454H151.596ZM149.038 161.284C149.122 161.251 149.206 161.251 149.289 161.284C149.389 161.318 149.481 161.318 149.565 161.284H153.553C153.603 161.351 153.62 161.426 153.603 161.51C153.603 161.577 153.611 161.644 153.628 161.711C153.611 161.978 153.628 162.254 153.678 162.538C153.745 162.822 153.737 163.09 153.653 163.341C153.62 163.424 153.611 163.508 153.628 163.592C153.645 163.675 153.653 163.759 153.653 163.842C153.67 163.926 153.67 164.001 153.653 164.068C153.636 164.135 153.586 164.193 153.503 164.244C153.386 164.177 153.252 164.143 153.101 164.143C152.968 164.143 152.834 164.185 152.7 164.269C152.349 164.135 152.065 164.076 151.847 164.093C151.63 164.11 151.329 164.11 150.944 164.093C150.694 164.076 150.434 164.076 150.167 164.093C149.916 164.093 149.665 164.076 149.415 164.043C149.164 164.06 148.913 164.085 148.662 164.118C148.428 164.152 148.194 164.152 147.96 164.118C147.91 164.152 147.843 164.168 147.759 164.168C147.692 164.168 147.617 164.177 147.534 164.193C147.467 164.193 147.4 164.21 147.333 164.244C147.283 164.26 147.249 164.319 147.233 164.419C147.233 164.453 147.241 164.494 147.258 164.545C147.274 164.595 147.266 164.637 147.233 164.67C147.166 164.67 147.132 164.637 147.132 164.57C147.149 164.486 147.141 164.428 147.107 164.394C147.007 164.26 146.982 164.118 147.032 163.968C147.099 163.817 147.116 163.675 147.082 163.541C147.099 163.224 147.116 162.898 147.132 162.563C147.149 162.229 147.149 161.894 147.132 161.56C147.132 161.51 147.124 161.451 147.107 161.384C147.09 161.318 147.107 161.267 147.157 161.234C147.442 161.267 147.751 161.276 148.085 161.259C148.42 161.242 148.737 161.251 149.038 161.284ZM149.891 168.382C150.209 168.382 150.501 168.399 150.769 168.432C151.053 168.449 151.362 168.44 151.697 168.407C151.797 168.34 151.864 168.365 151.897 168.482C151.931 168.582 151.973 168.649 152.023 168.683C152.04 168.783 152.081 168.867 152.148 168.934C152.182 169.034 152.19 169.134 152.173 169.235C152.157 169.318 152.132 169.41 152.098 169.51C152.065 169.594 152.04 169.686 152.023 169.786C152.006 169.87 152.023 169.962 152.073 170.062C152.073 170.447 152.098 170.815 152.148 171.166C152.115 171.216 152.081 171.274 152.048 171.341C152.031 171.391 151.998 171.433 151.948 171.467C151.847 171.467 151.789 171.508 151.772 171.592C151.755 171.676 151.705 171.726 151.622 171.743C151.588 171.676 151.571 171.609 151.571 171.542C151.588 171.475 151.563 171.416 151.496 171.366C151.362 171.366 151.229 171.408 151.095 171.492C150.961 171.559 150.836 171.508 150.719 171.341C150.652 171.325 150.593 171.35 150.543 171.416C150.493 171.483 150.451 171.467 150.418 171.366C150.251 171.333 150.117 171.316 150.016 171.316C149.916 171.316 149.782 171.299 149.615 171.266C149.582 171.35 149.548 171.366 149.515 171.316C149.498 171.249 149.465 171.224 149.415 171.241C149.047 171.224 148.729 171.224 148.461 171.241C148.211 171.241 147.893 171.249 147.508 171.266C147.475 171.283 147.45 171.333 147.433 171.416C147.433 171.5 147.433 171.592 147.433 171.692C147.433 171.776 147.433 171.86 147.433 171.943C147.45 172.01 147.458 172.06 147.458 172.094C147.458 172.144 147.425 172.227 147.358 172.344C147.308 172.461 147.258 172.503 147.207 172.47C147.124 172.42 147.09 172.344 147.107 172.244C147.124 172.144 147.149 172.052 147.182 171.968C147.199 171.918 147.199 171.851 147.182 171.768C147.166 171.667 147.141 171.567 147.107 171.467C147.09 171.366 147.074 171.274 147.057 171.191C147.057 171.09 147.074 171.015 147.107 170.965C147.074 170.932 147.057 170.881 147.057 170.815C147.057 170.714 147.065 170.639 147.082 170.589C147.082 170.522 147.082 170.472 147.082 170.438C147.099 170.388 147.099 170.321 147.082 170.238L147.157 168.382C147.542 168.348 147.86 168.348 148.11 168.382C148.378 168.415 148.687 168.424 149.038 168.407C149.172 168.407 149.314 168.407 149.465 168.407C149.615 168.39 149.757 168.382 149.891 168.382ZM164.609 171.592C164.575 171.625 164.575 171.659 164.609 171.692C164.759 171.876 164.893 172.085 165.01 172.319C165.144 172.537 165.277 172.737 165.411 172.921C165.545 173.122 165.662 173.323 165.762 173.523C165.879 173.724 165.98 173.916 166.063 174.1C166.264 174.384 166.448 174.685 166.615 175.003C166.782 175.304 166.975 175.596 167.192 175.881C167.259 176.065 167.342 176.24 167.443 176.407C167.56 176.575 167.66 176.75 167.744 176.934C167.928 177.168 168.095 177.386 168.245 177.586C168.396 177.77 168.546 177.979 168.697 178.213C168.663 178.297 168.672 178.347 168.722 178.364C168.772 178.38 168.764 178.431 168.697 178.514C168.713 178.715 168.697 178.79 168.647 178.74C168.596 178.69 168.53 178.614 168.446 178.514C168.379 178.414 168.312 178.339 168.245 178.288C168.195 178.222 168.17 178.28 168.17 178.464C168.153 178.531 168.112 178.556 168.045 178.539C167.994 178.539 167.928 178.522 167.844 178.489C167.777 178.472 167.702 178.456 167.618 178.439C167.551 178.439 167.501 178.472 167.468 178.539C167.451 178.606 167.443 178.698 167.443 178.815C167.443 178.932 167.443 179.049 167.443 179.166C167.443 179.3 167.443 179.425 167.443 179.542C167.459 179.659 167.468 179.743 167.468 179.793C167.468 179.843 167.434 179.902 167.367 179.969C167.301 180.036 167.25 180.052 167.217 180.019C167.167 179.985 167.142 179.902 167.142 179.768C167.142 179.651 167.15 179.517 167.167 179.367C167.184 179.233 167.2 179.099 167.217 178.966C167.234 178.849 167.234 178.765 167.217 178.715C167.184 178.614 167.158 178.556 167.142 178.539C167.092 178.472 166.983 178.431 166.816 178.414C166.665 178.397 166.506 178.389 166.339 178.389C166.172 178.389 166.013 178.389 165.863 178.389C165.729 178.372 165.645 178.339 165.612 178.288C165.545 178.188 165.495 178.13 165.461 178.113C165.445 178.079 165.428 178.054 165.411 178.038C165.395 178.004 165.369 177.971 165.336 177.937C165.319 177.904 165.286 177.837 165.236 177.737C165.102 177.452 164.918 177.16 164.684 176.859C164.467 176.558 164.283 176.265 164.132 175.981C163.948 175.647 163.764 175.354 163.58 175.103C163.413 174.836 163.221 174.543 163.004 174.225C162.836 173.991 162.686 173.749 162.552 173.498C162.418 173.247 162.276 173.005 162.126 172.771C162.009 172.587 161.867 172.411 161.699 172.244C161.549 172.077 161.465 171.876 161.449 171.642C161.382 171.659 161.348 171.701 161.348 171.768C161.348 171.834 161.323 171.876 161.273 171.893C161.189 171.893 161.148 171.851 161.148 171.768V171.667C161.148 171.651 161.131 171.625 161.097 171.592C160.947 171.508 160.855 171.425 160.822 171.341C160.805 171.241 160.805 171.141 160.822 171.04C160.855 170.94 160.88 170.84 160.897 170.739C160.93 170.622 160.93 170.514 160.897 170.413C160.88 170.33 160.905 170.254 160.972 170.188C161.039 170.121 161.031 170.045 160.947 169.962C160.997 169.778 160.997 169.602 160.947 169.435C160.914 169.268 160.905 169.084 160.922 168.883C160.972 168.8 161.106 168.758 161.323 168.758C161.49 168.758 161.674 168.766 161.875 168.783C162.092 168.8 162.301 168.817 162.502 168.833C162.703 168.85 162.887 168.867 163.054 168.883C163.221 168.883 163.338 168.875 163.405 168.858C163.555 168.825 163.714 168.783 163.881 168.733C164.065 168.683 164.241 168.633 164.408 168.582C164.592 168.516 164.751 168.449 164.885 168.382C165.035 168.315 165.152 168.24 165.236 168.156C165.353 168.056 165.436 167.939 165.486 167.805C165.537 167.671 165.578 167.529 165.612 167.379C165.662 167.145 165.679 166.894 165.662 166.626C165.645 166.359 165.62 166.091 165.587 165.824C165.553 165.539 165.395 165.255 165.11 164.971C164.826 164.687 164.559 164.453 164.308 164.269C164.258 164.235 164.149 164.21 163.982 164.193C163.814 164.16 163.622 164.143 163.405 164.143C163.187 164.127 162.953 164.118 162.703 164.118C162.469 164.101 162.251 164.093 162.051 164.093H161.499C161.465 164.127 161.44 164.227 161.424 164.394C161.424 164.545 161.415 164.703 161.398 164.871C161.398 165.038 161.373 165.18 161.323 165.297C161.29 165.414 161.223 165.447 161.123 165.397C161.106 165.397 161.097 165.355 161.097 165.272V164.494C161.114 164.394 161.097 164.31 161.047 164.244C161.014 164.16 161.014 164.076 161.047 163.993C160.947 163.959 160.888 163.918 160.872 163.867C160.855 163.817 160.847 163.759 160.847 163.692C160.863 163.625 160.872 163.566 160.872 163.516C160.888 163.449 160.872 163.391 160.822 163.341C160.872 163.24 160.888 163.14 160.872 163.04C160.855 162.939 160.83 162.839 160.797 162.739C160.78 162.638 160.763 162.538 160.746 162.438C160.746 162.338 160.771 162.237 160.822 162.137C160.788 162.087 160.771 162.02 160.771 161.936C160.788 161.853 160.813 161.777 160.847 161.711C160.813 161.627 160.813 161.568 160.847 161.535C160.897 161.502 160.922 161.443 160.922 161.359C160.939 161.343 160.989 161.343 161.072 161.359C161.173 161.376 161.231 161.376 161.248 161.359C161.332 161.343 161.407 161.334 161.474 161.334C161.557 161.334 161.641 161.334 161.724 161.334C161.808 161.334 161.883 161.343 161.95 161.359C162.017 161.359 162.084 161.368 162.151 161.384C162.268 161.351 162.402 161.309 162.552 161.259C162.719 161.209 162.87 161.192 163.004 161.209C163.121 161.259 163.271 161.301 163.455 161.334C163.639 161.351 163.823 161.376 164.007 161.41C164.207 161.426 164.4 161.451 164.584 161.485C164.768 161.502 164.918 161.535 165.035 161.585C165.219 161.619 165.361 161.677 165.461 161.761C165.578 161.844 165.721 161.903 165.888 161.936C166.306 162.17 166.682 162.48 167.016 162.864C167.367 163.249 167.66 163.608 167.894 163.943C168.128 164.277 168.279 164.695 168.346 165.197C168.412 165.698 168.463 166.141 168.496 166.526C168.429 166.626 168.396 166.735 168.396 166.852C168.412 166.969 168.412 167.078 168.396 167.178C168.379 167.312 168.362 167.454 168.346 167.604C168.329 167.738 168.304 167.88 168.27 168.031L168.295 168.056C168.312 168.206 168.287 168.307 168.22 168.357C168.17 168.39 168.137 168.424 168.12 168.457C168.053 168.541 168.003 168.641 167.969 168.758C167.936 168.858 167.903 168.967 167.869 169.084C167.836 169.184 167.794 169.285 167.744 169.385C167.694 169.485 167.618 169.569 167.518 169.636C167.518 169.719 167.451 169.811 167.317 169.912C167.267 170.045 167.217 170.137 167.167 170.188C167.117 170.221 167.067 170.263 167.016 170.313C166.966 170.346 166.908 170.388 166.841 170.438C166.774 170.489 166.69 170.572 166.59 170.689C166.256 170.756 165.93 170.907 165.612 171.141C165.311 171.375 164.977 171.525 164.609 171.592ZM159.091 161.485C159.041 162.087 159.007 162.505 158.991 162.739C158.991 162.973 158.991 163.123 158.991 163.19C159.007 163.24 159.024 163.274 159.041 163.291C159.058 163.291 159.066 163.366 159.066 163.516C159.083 163.884 159.091 164.26 159.091 164.645C159.091 165.013 159.091 165.389 159.091 165.773V168.056C159.141 168.223 159.158 168.407 159.141 168.608C159.125 168.791 159.116 168.975 159.116 169.159C159.133 169.661 159.133 170.171 159.116 170.689C159.099 171.207 159.091 171.717 159.091 172.219C159.091 172.821 159.099 173.448 159.116 174.1C159.133 174.735 159.133 175.362 159.116 175.981C159.133 175.981 159.141 175.989 159.141 176.006C159.125 176.19 159.116 176.382 159.116 176.583C159.116 176.767 159.116 176.951 159.116 177.135C159.116 177.319 159.116 177.511 159.116 177.712C159.133 177.895 159.15 178.079 159.166 178.263C159.166 178.347 159.116 178.439 159.016 178.539C158.932 178.573 158.882 178.556 158.865 178.489C158.849 178.422 158.807 178.389 158.74 178.389C158.506 178.372 158.263 178.364 158.013 178.364C157.779 178.347 157.57 178.397 157.386 178.514C157.235 178.431 157.06 178.389 156.859 178.389C156.658 178.372 156.466 178.372 156.282 178.389C156.249 178.422 156.232 178.439 156.232 178.439C156.215 178.439 156.199 178.447 156.182 178.464C156.132 178.431 156.081 178.397 156.031 178.364C155.981 178.313 155.981 178.255 156.031 178.188C156.031 178.155 156.048 178.138 156.081 178.138C156.115 177.804 156.115 177.469 156.081 177.135C156.048 176.784 156.048 176.441 156.081 176.106C156.015 175.939 155.998 175.772 156.031 175.605C156.081 175.438 156.09 175.279 156.056 175.128C156.09 174.911 156.09 174.694 156.056 174.476C156.023 174.259 156.031 174.033 156.081 173.799C156.048 173.715 156.04 173.632 156.056 173.548C156.073 173.465 156.065 173.381 156.031 173.297C156.065 172.796 156.065 172.311 156.031 171.843C156.015 171.358 156.023 170.848 156.056 170.313C156.04 170.146 156.023 169.979 156.006 169.811C155.99 169.644 155.99 169.485 156.006 169.335C155.99 169.101 156.006 168.883 156.056 168.683C156.107 168.482 156.098 168.265 156.031 168.031C155.998 167.981 156.006 167.955 156.056 167.955C156.09 167.955 156.098 167.93 156.081 167.88C156.065 167.813 156.065 167.755 156.081 167.705C156.115 167.671 156.098 167.638 156.031 167.604C155.964 167.571 155.948 167.537 155.981 167.504C156.081 167.42 156.115 167.27 156.081 167.053C156.065 166.835 156.048 166.66 156.031 166.526C156.015 166.275 155.998 166.033 155.981 165.799C155.981 165.548 156.015 165.305 156.081 165.071C155.998 164.971 155.948 164.862 155.931 164.745C155.931 164.611 155.931 164.486 155.931 164.369C155.964 164.235 155.973 164.11 155.956 163.993C155.939 163.876 155.956 163.75 156.006 163.617C156.006 163.483 155.998 163.349 155.981 163.215C155.981 163.065 155.998 162.923 156.031 162.789C156.065 162.555 156.065 162.321 156.031 162.087C156.015 161.853 156.015 161.627 156.031 161.41C156.215 161.393 156.399 161.384 156.583 161.384C156.767 161.368 156.951 161.359 157.135 161.359C157.335 161.359 157.528 161.351 157.712 161.334C157.912 161.301 158.105 161.267 158.289 161.234C158.372 161.234 158.414 161.234 158.414 161.234C158.414 161.234 158.422 161.242 158.439 161.259C158.456 161.276 158.506 161.301 158.589 161.334C158.673 161.368 158.84 161.418 159.091 161.485ZM113.579 191.685C113.562 192.02 113.553 192.404 113.553 192.839C113.57 193.257 113.562 193.642 113.528 193.993C113.411 194.076 113.286 194.118 113.152 194.118C113.018 194.101 112.91 194.16 112.826 194.294C112.542 194.561 112.325 194.837 112.174 195.121C112.09 195.305 112.065 195.456 112.099 195.573C112.132 195.69 112.149 195.84 112.149 196.024C112.249 196.141 112.325 196.258 112.375 196.375C112.425 196.476 112.483 196.576 112.55 196.676C112.634 196.777 112.743 196.877 112.876 196.977C113.01 197.078 113.202 197.178 113.453 197.278C113.587 197.328 113.771 197.412 114.005 197.529C114.239 197.646 114.423 197.713 114.557 197.73C114.841 197.763 115.092 197.822 115.309 197.905C115.543 197.972 115.794 198.022 116.061 198.056C116.145 198.106 116.237 198.148 116.337 198.181C116.454 198.198 116.555 198.248 116.638 198.332C116.923 198.449 117.165 198.582 117.366 198.733C117.583 198.867 117.834 198.992 118.118 199.109C118.202 199.209 118.352 199.318 118.569 199.435C118.787 199.552 118.946 199.661 119.046 199.761C119.18 199.895 119.272 199.97 119.322 199.987C119.372 200.004 119.456 200.087 119.573 200.238C119.673 200.388 119.748 200.547 119.798 200.714C119.882 200.982 119.974 201.266 120.074 201.567C120.191 201.868 120.283 202.161 120.35 202.445C120.4 202.662 120.417 202.921 120.4 203.222C120.4 203.523 120.375 203.824 120.325 204.125C120.275 204.426 120.208 204.719 120.124 205.003C120.041 205.27 119.949 205.496 119.849 205.68C119.765 205.814 119.681 205.939 119.598 206.056C119.531 206.157 119.447 206.257 119.347 206.357C119.113 206.625 118.904 206.859 118.72 207.059C118.536 207.243 118.277 207.386 117.942 207.486C117.775 207.603 117.608 207.728 117.441 207.862C117.29 207.996 117.215 208.171 117.215 208.389C117.215 208.439 117.215 208.497 117.215 208.564C117.232 208.631 117.215 208.681 117.165 208.715C117.081 208.715 117.031 208.681 117.014 208.614C117.014 208.548 117.014 208.472 117.014 208.389C117.031 208.288 117.048 208.196 117.065 208.113C117.098 208.029 117.115 207.971 117.115 207.937C117.065 207.887 117.014 207.879 116.964 207.912C116.897 208.13 116.847 208.272 116.814 208.339C116.78 208.389 116.747 208.405 116.714 208.389C116.697 208.355 116.68 208.305 116.663 208.238C116.647 208.171 116.622 208.13 116.588 208.113C116.421 208.196 116.337 208.347 116.337 208.564C116.337 208.648 116.329 208.731 116.312 208.815C116.312 208.915 116.287 208.999 116.237 209.066C116.187 209.066 116.145 209.049 116.112 209.016C116.145 208.882 116.153 208.757 116.137 208.64C116.12 208.522 116.12 208.405 116.137 208.288C116.087 208.238 116.028 208.213 115.961 208.213C115.76 208.297 115.635 208.347 115.585 208.364C115.551 208.364 115.543 208.347 115.56 208.313C115.577 208.263 115.593 208.213 115.61 208.163C115.643 208.113 115.627 208.079 115.56 208.063C115.493 208.029 115.485 207.996 115.535 207.962C115.602 207.929 115.618 207.879 115.585 207.812C115.585 207.712 115.577 207.62 115.56 207.536C115.56 207.452 115.526 207.352 115.46 207.235C115.46 207.051 115.46 206.867 115.46 206.683C115.476 206.483 115.468 206.29 115.434 206.106C115.518 206.006 115.568 205.956 115.585 205.956C115.602 205.939 115.643 205.881 115.71 205.78C115.727 205.73 115.719 205.688 115.685 205.655C115.652 205.622 115.669 205.588 115.735 205.555C115.869 205.471 116.011 205.429 116.162 205.429C116.296 205.346 116.379 205.27 116.413 205.204C116.463 205.12 116.563 205.053 116.714 205.003C116.797 204.903 116.856 204.802 116.889 204.702C116.923 204.602 116.981 204.501 117.065 204.401C117.265 204.2 117.382 203.941 117.416 203.624C117.449 203.289 117.483 202.997 117.516 202.746C117.533 202.579 117.474 202.453 117.341 202.37C117.223 202.269 117.123 202.152 117.04 202.018C116.889 201.784 116.672 201.609 116.387 201.492C116.103 201.358 115.844 201.266 115.61 201.216C115.493 201.182 115.376 201.149 115.259 201.116C115.142 201.065 115.025 201.074 114.908 201.141C114.874 201.157 114.858 201.107 114.858 200.99C114.874 200.873 114.858 200.823 114.807 200.84C114.757 200.873 114.682 200.848 114.582 200.764C114.448 200.681 114.306 200.58 114.155 200.463C114.005 200.346 113.905 200.355 113.854 200.489C113.838 200.522 113.813 200.53 113.779 200.514C113.746 200.48 113.712 200.447 113.679 200.413C113.645 200.38 113.612 200.355 113.579 200.338C113.562 200.305 113.553 200.305 113.553 200.338C113.503 200.555 113.453 200.639 113.403 200.589C113.37 200.522 113.361 200.463 113.378 200.413C113.411 200.296 113.353 200.221 113.202 200.188C113.069 200.137 112.977 200.129 112.926 200.162C112.843 200.246 112.784 200.229 112.751 200.112C112.734 199.995 112.676 199.937 112.575 199.937C112.442 199.937 112.325 199.895 112.224 199.811C112.141 199.728 112.032 199.661 111.898 199.611C111.597 199.51 111.33 199.41 111.096 199.31C110.862 199.193 110.627 199.017 110.393 198.783C110.293 198.683 110.209 198.582 110.143 198.482C110.076 198.382 109.992 198.29 109.892 198.206C109.842 198.156 109.791 198.114 109.741 198.081C109.691 198.047 109.649 197.989 109.616 197.905C109.582 197.772 109.557 197.654 109.541 197.554C109.541 197.454 109.499 197.345 109.415 197.228C109.332 197.111 109.298 197.002 109.315 196.902C109.348 196.802 109.332 196.693 109.265 196.576C109.181 196.426 109.164 196.258 109.215 196.074C109.281 195.874 109.273 195.698 109.19 195.548C109.223 195.447 109.231 195.355 109.215 195.272C109.198 195.172 109.215 195.071 109.265 194.971C109.265 194.754 109.298 194.553 109.365 194.369C109.449 194.185 109.507 193.993 109.541 193.792C109.608 193.692 109.666 193.592 109.716 193.491C109.783 193.391 109.842 193.282 109.892 193.165C110.193 192.781 110.494 192.488 110.795 192.287C111.112 192.07 111.497 191.869 111.948 191.685C112.015 191.669 112.074 191.652 112.124 191.635C112.174 191.619 112.216 191.602 112.249 191.585C112.45 191.502 112.642 191.435 112.826 191.384C113.01 191.334 113.236 191.276 113.503 191.209C113.503 191.293 113.528 191.359 113.579 191.41C113.645 191.46 113.679 191.51 113.679 191.56C113.679 191.593 113.645 191.635 113.579 191.685ZM118.419 192.087C118.486 192.187 118.569 192.229 118.67 192.212C118.787 192.179 118.862 192.22 118.895 192.338C119.096 192.488 119.247 192.655 119.347 192.839C119.464 193.023 119.598 193.207 119.748 193.391C119.748 193.474 119.782 193.566 119.849 193.667C119.932 193.767 119.974 193.859 119.974 193.943C119.974 193.993 119.932 194.043 119.849 194.093C119.698 194.177 119.539 194.252 119.372 194.319C119.222 194.386 119.079 194.461 118.946 194.545C118.829 194.628 118.712 194.695 118.595 194.745C118.477 194.779 118.369 194.837 118.268 194.921C118.135 194.921 118.018 194.954 117.917 195.021C117.834 195.088 117.742 195.146 117.641 195.197C117.575 195.213 117.491 195.213 117.391 195.197C117.407 195.08 117.374 194.996 117.29 194.946C117.223 194.879 117.157 194.787 117.09 194.67C117.023 194.519 116.914 194.402 116.764 194.319C116.613 194.235 116.471 194.152 116.337 194.068C116.237 194.135 116.145 194.135 116.061 194.068C115.995 194.001 115.919 193.993 115.836 194.043C115.802 194.076 115.786 194.168 115.786 194.319C115.802 194.453 115.811 194.603 115.811 194.77C115.811 194.937 115.802 195.08 115.786 195.197C115.786 195.314 115.744 195.364 115.66 195.347C115.61 195.264 115.56 195.063 115.51 194.745C115.476 194.411 115.46 194.101 115.46 193.817C115.46 193.617 115.485 193.466 115.535 193.366C115.535 192.998 115.543 192.655 115.56 192.338C115.577 192.02 115.585 191.669 115.585 191.284C115.568 191.284 115.61 191.267 115.71 191.234C116.212 191.234 116.688 191.309 117.14 191.46C117.608 191.61 118.034 191.819 118.419 192.087ZM110.067 203.222C110.268 203.206 110.494 203.206 110.744 203.222C110.995 203.222 111.213 203.231 111.397 203.247C111.463 203.314 111.497 203.406 111.497 203.523C111.514 203.624 111.547 203.715 111.597 203.799C111.631 203.933 111.656 204.058 111.672 204.175C111.689 204.292 111.739 204.418 111.823 204.551C112.057 204.752 112.299 204.978 112.55 205.229C112.801 205.479 113.094 205.605 113.428 205.605C113.495 205.655 113.528 205.697 113.528 205.73C113.545 205.747 113.553 205.772 113.553 205.805V205.881C113.553 205.881 113.57 205.931 113.604 206.031C113.604 206.265 113.57 206.516 113.503 206.784C113.453 207.034 113.428 207.285 113.428 207.536C113.428 207.703 113.461 207.845 113.528 207.962C113.528 208.029 113.503 208.079 113.453 208.113C113.42 208.146 113.386 208.18 113.353 208.213C113.319 208.23 113.294 208.263 113.278 208.313C113.261 208.347 113.269 208.405 113.303 208.489C113.269 208.623 113.269 208.773 113.303 208.94C113.353 209.124 113.344 209.267 113.278 209.367C113.244 209.4 113.211 209.4 113.177 209.367C113.144 209.35 113.127 209.325 113.127 209.292C113.161 209.124 113.161 208.957 113.127 208.79C113.11 208.64 113.102 208.481 113.102 208.313C113.069 208.28 113.043 208.255 113.027 208.238C113.01 208.205 112.985 208.18 112.952 208.163C112.868 208.13 112.809 208.155 112.776 208.238C112.743 208.305 112.701 208.322 112.651 208.288C112.651 208.238 112.659 208.188 112.676 208.138C112.692 208.088 112.659 208.046 112.575 208.013C112.408 208.029 112.341 208.104 112.375 208.238C112.425 208.372 112.425 208.481 112.375 208.564C112.291 208.681 112.233 208.681 112.199 208.564C112.182 208.464 112.174 208.347 112.174 208.213C111.84 208.029 111.522 207.829 111.221 207.611C110.92 207.394 110.611 207.193 110.293 207.009C110.076 206.892 109.917 206.733 109.817 206.533C109.733 206.332 109.616 206.148 109.465 205.981C109.365 205.864 109.273 205.755 109.19 205.655C109.123 205.538 109.031 205.413 108.914 205.279C108.83 205.178 108.797 205.078 108.813 204.978C108.83 204.861 108.797 204.727 108.713 204.577C108.629 204.376 108.588 204.175 108.588 203.975C108.588 203.858 108.588 203.749 108.588 203.649C108.588 203.532 108.579 203.415 108.563 203.297C108.596 203.281 108.604 203.264 108.588 203.247C108.571 203.231 108.579 203.214 108.613 203.197C108.746 203.18 108.872 203.172 108.989 203.172C109.106 203.172 109.223 203.172 109.34 203.172C109.457 203.172 109.574 203.18 109.691 203.197C109.808 203.197 109.934 203.206 110.067 203.222ZM115.66 195.447C115.677 195.464 115.685 195.514 115.685 195.598V195.723C115.652 195.757 115.643 195.79 115.66 195.824C115.677 195.84 115.685 195.857 115.685 195.874C115.669 195.924 115.66 195.974 115.66 196.024C115.677 196.074 115.685 196.125 115.685 196.175C115.669 196.191 115.652 196.2 115.635 196.2C115.618 196.116 115.61 196.033 115.61 195.949C115.627 195.865 115.627 195.782 115.61 195.698C115.61 195.648 115.602 195.606 115.585 195.573C115.585 195.523 115.602 195.473 115.635 195.422L115.66 195.447ZM115.56 197.027C115.577 197.111 115.551 197.145 115.485 197.128C115.418 197.111 115.368 197.119 115.334 197.153C115.334 197.136 115.351 197.078 115.384 196.977C115.434 196.944 115.493 196.961 115.56 197.027ZM133.187 201.968C133.22 201.868 133.237 201.818 133.237 201.818C133.237 201.751 133.212 201.709 133.161 201.692C133.128 201.676 133.111 201.592 133.111 201.442C133.044 201.458 133.003 201.433 132.986 201.366C132.969 201.283 132.919 201.233 132.835 201.216C132.752 201.266 132.702 201.299 132.685 201.316C132.668 201.316 132.66 201.325 132.66 201.341C132.66 201.358 132.66 201.383 132.66 201.416C132.677 201.433 132.677 201.475 132.66 201.542C132.626 201.575 132.601 201.609 132.585 201.642C132.568 201.659 132.534 201.659 132.484 201.642C132.451 201.508 132.443 201.425 132.459 201.391C132.493 201.358 132.493 201.274 132.459 201.141C132.426 201.024 132.401 200.965 132.384 200.965C132.384 200.948 132.376 200.957 132.359 200.99C132.359 201.024 132.342 201.057 132.309 201.09C132.275 201.124 132.208 201.124 132.108 201.09C132.041 201.057 131.991 201.057 131.958 201.09C131.941 201.107 131.924 201.149 131.907 201.216C131.907 201.266 131.899 201.325 131.882 201.391C131.882 201.458 131.866 201.517 131.832 201.567C131.816 201.617 131.799 201.684 131.782 201.768C131.765 201.851 131.749 201.935 131.732 202.018C131.715 202.102 131.698 202.177 131.682 202.244C131.665 202.294 131.64 202.311 131.607 202.294C131.556 202.244 131.523 202.169 131.506 202.069C131.506 201.968 131.506 201.868 131.506 201.768C131.506 201.651 131.498 201.542 131.481 201.442C131.481 201.341 131.456 201.258 131.406 201.191C131.255 201.241 131.189 201.35 131.205 201.517C131.239 201.667 131.247 201.801 131.23 201.918C131.13 202.119 131.113 202.361 131.18 202.645C131.247 202.913 131.247 203.147 131.18 203.348C131.147 203.431 131.138 203.548 131.155 203.699C131.189 203.849 131.155 203.916 131.055 203.899C130.971 203.899 130.921 203.799 130.904 203.598C130.904 203.398 130.904 203.164 130.904 202.896C130.921 202.612 130.938 202.319 130.954 202.018C130.971 201.701 130.971 201.433 130.954 201.216C130.854 201.099 130.804 200.907 130.804 200.639C130.804 200.472 130.812 200.288 130.829 200.087C130.862 199.87 130.879 199.661 130.879 199.46C130.896 199.26 130.904 199.076 130.904 198.908C130.904 198.725 130.879 198.574 130.829 198.457C131.08 198.457 131.306 198.465 131.506 198.482C131.724 198.499 131.949 198.49 132.183 198.457C132.284 198.474 132.359 198.482 132.409 198.482C132.476 198.482 132.518 198.482 132.534 198.482C132.568 198.482 132.585 198.482 132.585 198.482C132.601 198.482 132.618 198.482 132.635 198.482C132.652 198.465 132.685 198.457 132.735 198.457C132.802 198.457 132.911 198.457 133.061 198.457C133.095 198.139 133.103 197.872 133.086 197.654C133.086 197.42 133.078 197.203 133.061 197.002C133.044 196.785 133.028 196.568 133.011 196.35C133.011 196.116 133.028 195.849 133.061 195.548C133.044 195.464 133.028 195.389 133.011 195.322C132.994 195.238 133.011 195.155 133.061 195.071C133.095 194.988 133.078 194.904 133.011 194.82C132.961 194.737 132.994 194.662 133.111 194.595C133.161 194.444 133.178 194.285 133.161 194.118C133.145 193.934 133.153 193.759 133.187 193.592C133.103 193.458 133.086 193.316 133.136 193.165C133.187 193.015 133.178 192.873 133.111 192.739C133.061 192.588 133.053 192.438 133.086 192.287C133.136 192.12 133.128 191.961 133.061 191.811C133.078 191.761 133.078 191.702 133.061 191.635C133.061 191.568 133.061 191.51 133.061 191.46C133.061 191.309 133.111 191.234 133.212 191.234C133.697 191.217 134.173 191.226 134.641 191.259C135.126 191.276 135.611 191.267 136.096 191.234L136.146 191.284C136.213 191.819 136.213 192.346 136.146 192.864C136.079 193.366 136.079 193.876 136.146 194.394C136.113 196.317 136.104 198.256 136.121 200.213C136.154 202.152 136.154 204.05 136.121 205.906C136.121 206.157 136.129 206.407 136.146 206.658C136.179 206.909 136.179 207.151 136.146 207.386C136.113 207.536 136.129 207.695 136.196 207.862C136.28 208.029 136.246 208.18 136.096 208.313C135.962 208.247 135.803 208.205 135.619 208.188C135.435 208.171 135.26 208.188 135.093 208.238C134.909 208.255 134.725 208.255 134.541 208.238C134.357 208.222 134.173 208.238 133.989 208.288C133.922 208.322 133.855 208.355 133.788 208.389C133.722 208.405 133.671 208.447 133.638 208.514C133.605 208.598 133.596 208.681 133.613 208.765C133.63 208.865 133.579 208.924 133.462 208.94C133.412 208.89 133.412 208.823 133.462 208.74C133.496 208.673 133.496 208.606 133.462 208.539C133.429 208.489 133.396 208.439 133.362 208.389C133.228 208.305 133.145 208.205 133.111 208.088C133.078 207.954 133.061 207.82 133.061 207.686C133.078 207.553 133.095 207.419 133.111 207.285C133.145 207.135 133.153 206.993 133.136 206.859C133.086 206.575 133.07 206.282 133.086 205.981C133.12 205.663 133.145 205.362 133.161 205.078C133.178 204.944 133.161 204.802 133.111 204.652C133.078 204.485 133.095 204.334 133.161 204.2C133.078 203.933 133.061 203.665 133.111 203.398C133.178 203.114 133.145 202.846 133.011 202.595C132.961 202.528 132.952 202.47 132.986 202.42C133.019 202.37 133.053 202.319 133.086 202.269C133.136 202.219 133.178 202.177 133.212 202.144C133.245 202.094 133.237 202.035 133.187 201.968ZM126.54 193.667C126.54 194.118 126.549 194.695 126.565 195.397C126.582 196.083 126.591 196.743 126.591 197.379V198.457C126.875 198.457 127.059 198.449 127.142 198.432C127.243 198.415 127.376 198.407 127.544 198.407C127.594 198.407 127.652 198.407 127.719 198.407C127.803 198.407 127.886 198.415 127.97 198.432C128.154 198.365 128.338 198.357 128.522 198.407C128.706 198.457 128.89 198.474 129.073 198.457C129.107 198.474 129.115 198.499 129.099 198.532C129.099 198.549 129.115 198.566 129.149 198.582C129.182 198.817 129.19 199.026 129.174 199.209C129.174 199.393 129.157 199.577 129.124 199.761C129.107 199.928 129.09 200.104 129.073 200.288C129.073 200.472 129.09 200.681 129.124 200.915C129.157 201.015 129.157 201.09 129.124 201.141C129.09 201.191 129.048 201.241 128.998 201.291C128.948 201.341 128.906 201.4 128.873 201.467C128.856 201.517 128.873 201.592 128.923 201.692C128.906 201.743 128.898 201.809 128.898 201.893C128.898 201.977 128.864 202.027 128.798 202.043C128.731 201.943 128.714 201.826 128.747 201.692C128.798 201.542 128.747 201.442 128.597 201.391C128.38 201.408 128.145 201.408 127.895 201.391C127.644 201.358 127.418 201.383 127.218 201.467C127.084 201.467 126.992 201.467 126.942 201.467C126.908 201.45 126.883 201.433 126.866 201.416C126.85 201.4 126.825 201.383 126.791 201.366C126.758 201.333 126.674 201.308 126.54 201.291C126.524 201.308 126.515 201.375 126.515 201.492C126.532 201.609 126.54 201.743 126.54 201.893C126.557 202.043 126.574 202.186 126.591 202.319C126.607 202.436 126.616 202.503 126.616 202.52C126.632 203.005 126.624 203.481 126.591 203.95C126.574 204.418 126.591 204.894 126.641 205.379C126.557 205.764 126.54 206.198 126.591 206.683C126.657 207.168 126.666 207.603 126.616 207.987C126.599 208.071 126.599 208.138 126.616 208.188C126.632 208.238 126.599 208.305 126.515 208.389C126.382 208.422 126.281 208.497 126.214 208.614C126.164 208.748 126.106 208.865 126.039 208.966C126.005 208.899 125.997 208.815 126.014 208.715C126.047 208.631 126.005 208.581 125.888 208.564C125.721 208.564 125.571 208.539 125.437 208.489C125.32 208.456 125.194 208.422 125.061 208.389C124.944 208.339 124.818 208.305 124.684 208.288C124.551 208.255 124.4 208.247 124.233 208.263C124.149 208.196 124.049 208.18 123.932 208.213C123.815 208.247 123.731 208.213 123.681 208.113C123.681 207.862 123.673 207.553 123.656 207.185C123.656 206.817 123.673 206.516 123.706 206.282C123.673 206.081 123.656 205.889 123.656 205.705C123.673 205.521 123.665 205.346 123.631 205.178C123.681 204.995 123.69 204.794 123.656 204.577C123.639 204.342 123.648 204.133 123.681 203.95C123.715 203.03 123.723 202.102 123.706 201.166C123.706 200.213 123.706 199.276 123.706 198.357C123.723 198.307 123.731 198.24 123.731 198.156C123.748 198.072 123.74 197.997 123.706 197.93C123.706 197.696 123.698 197.462 123.681 197.228C123.665 196.994 123.656 196.76 123.656 196.526C123.623 196.392 123.614 196.267 123.631 196.15C123.648 196.033 123.665 195.916 123.681 195.799C123.681 195.247 123.69 194.695 123.706 194.143C123.74 193.575 123.731 193.023 123.681 192.488C123.631 192.455 123.614 192.413 123.631 192.363C123.648 192.312 123.656 192.271 123.656 192.237C123.606 192.103 123.598 191.978 123.631 191.861C123.665 191.727 123.681 191.593 123.681 191.46C123.681 191.393 123.656 191.318 123.606 191.234C123.69 191.15 123.765 191.134 123.832 191.184C123.915 191.234 124.007 191.226 124.108 191.159C124.475 191.242 124.893 191.267 125.362 191.234C125.83 191.184 126.248 191.184 126.616 191.234C126.616 191.334 126.591 191.451 126.54 191.585C126.49 191.702 126.482 191.811 126.515 191.911C126.532 192.195 126.532 192.488 126.515 192.789C126.515 193.09 126.524 193.383 126.54 193.667ZM142.108 191.309C142.292 191.309 142.467 191.318 142.635 191.334C142.819 191.334 142.994 191.318 143.161 191.284C143.245 191.318 143.287 191.351 143.287 191.384C143.287 191.451 143.312 191.493 143.362 191.51C143.362 191.644 143.337 191.744 143.287 191.811C143.287 192.045 143.303 192.271 143.337 192.488C143.387 192.705 143.395 192.931 143.362 193.165C143.228 193.349 143.178 193.558 143.212 193.792C143.262 194.01 143.278 194.235 143.262 194.469C143.245 194.653 143.237 194.837 143.237 195.021C143.253 195.205 143.262 195.389 143.262 195.573C143.262 195.79 143.27 195.999 143.287 196.2C143.32 196.4 143.303 196.609 143.237 196.827C143.203 196.961 143.195 197.086 143.212 197.203C143.228 197.32 143.228 197.445 143.212 197.579C143.178 197.746 143.178 197.93 143.212 198.131C143.245 198.332 143.253 198.524 143.237 198.708C143.203 199.126 143.203 199.527 143.237 199.912C143.27 200.296 143.27 200.681 143.237 201.065C143.253 201.065 143.262 201.107 143.262 201.191C143.278 201.241 143.278 201.316 143.262 201.416C143.245 201.5 143.262 201.567 143.312 201.617C143.329 202.002 143.312 202.386 143.262 202.771C143.228 203.155 143.228 203.54 143.262 203.924C143.278 204.108 143.27 204.284 143.237 204.451C143.22 204.602 143.237 204.769 143.287 204.953C143.303 205.421 143.287 205.864 143.237 206.282C143.203 206.683 143.237 207.101 143.337 207.536C143.32 207.636 143.32 207.745 143.337 207.862C143.37 207.962 143.395 208.071 143.412 208.188C143.379 208.288 143.362 208.397 143.362 208.514C143.362 208.748 143.354 208.999 143.337 209.267C143.32 209.534 143.262 209.668 143.161 209.668C143.128 209.668 143.103 209.601 143.086 209.467C143.086 209.333 143.069 209.166 143.036 208.966C143.036 208.915 143.053 208.84 143.086 208.74C143.12 208.656 143.111 208.589 143.061 208.539C142.994 208.506 142.936 208.489 142.885 208.489C142.852 208.506 142.794 208.514 142.71 208.514C142.559 208.481 142.401 208.464 142.233 208.464C142.066 208.481 141.899 208.489 141.732 208.489C141.698 208.522 141.665 208.539 141.631 208.539C141.565 208.539 141.523 208.531 141.506 208.514C141.289 208.431 141.071 208.405 140.854 208.439C140.653 208.489 140.444 208.497 140.227 208.464C140.11 208.347 140.077 208.247 140.127 208.163C140.194 208.063 140.227 207.946 140.227 207.812C140.21 207.477 140.227 207.126 140.277 206.759C140.327 206.374 140.327 206.014 140.277 205.68C140.26 205.613 140.26 205.555 140.277 205.505C140.294 205.438 140.294 205.379 140.277 205.329V197.905C140.277 196.701 140.26 196.1 140.227 196.1V196.074C140.244 195.272 140.244 194.461 140.227 193.642C140.227 192.822 140.235 192.037 140.252 191.284C140.486 191.301 140.72 191.301 140.954 191.284C141.205 191.251 141.448 191.242 141.682 191.259C141.749 191.242 141.815 191.242 141.882 191.259C141.966 191.276 142.041 191.293 142.108 191.309ZM150.469 191.886C150.453 192.471 150.436 193.048 150.419 193.617C150.419 194.185 150.419 194.754 150.419 195.322C150.436 196.024 150.436 196.676 150.419 197.278C150.402 197.88 150.411 198.532 150.444 199.235C150.461 199.235 150.469 199.268 150.469 199.335C150.419 199.418 150.402 199.527 150.419 199.661C150.453 199.795 150.469 199.912 150.469 200.012C150.503 200.564 150.511 201.082 150.494 201.567C150.478 202.052 150.469 202.579 150.469 203.147C150.469 204 150.453 204.844 150.419 205.68C150.386 206.499 150.386 207.36 150.419 208.263C150.453 208.28 150.461 208.305 150.444 208.339C150.427 208.355 150.411 208.372 150.394 208.389C150.26 208.439 150.126 208.456 149.993 208.439C149.859 208.439 149.725 208.439 149.591 208.439H148.764C148.63 208.405 148.496 208.397 148.363 208.414C148.245 208.431 148.12 208.422 147.986 208.389H147.685C147.585 208.389 147.51 208.347 147.46 208.263C147.527 208.13 147.535 207.987 147.485 207.837C147.451 207.686 147.46 207.536 147.51 207.386C147.493 207.252 147.493 207.11 147.51 206.959C147.527 206.792 147.527 206.641 147.51 206.508C147.51 205.404 147.501 204.301 147.485 203.197C147.485 202.077 147.501 200.965 147.535 199.862C147.501 199.678 147.476 199.494 147.46 199.31C147.46 199.126 147.46 198.942 147.46 198.758C147.393 197.939 147.384 197.145 147.435 196.375C147.485 195.59 147.501 194.77 147.485 193.918C147.485 193.483 147.476 193.048 147.46 192.613C147.46 192.162 147.46 191.719 147.46 191.284L149.892 191.209C149.976 191.142 150.06 191.134 150.143 191.184C150.227 191.217 150.26 191.192 150.244 191.109C150.344 191.125 150.402 191.167 150.419 191.234C150.436 191.301 150.444 191.376 150.444 191.46C150.444 191.527 150.436 191.602 150.419 191.685C150.419 191.769 150.436 191.836 150.469 191.886ZM156.413 201.241C156.43 201.258 156.38 201.299 156.263 201.366C156.146 201.416 156.012 201.475 155.861 201.542C155.728 201.592 155.594 201.642 155.46 201.692C155.326 201.743 155.251 201.768 155.234 201.768C155.034 201.834 154.791 201.868 154.507 201.868C154.373 201.868 154.248 201.868 154.131 201.868C154.014 201.868 153.897 201.86 153.78 201.843C153.546 201.843 153.303 201.876 153.052 201.943C152.802 202.01 152.559 201.977 152.325 201.843C152.242 201.793 152.191 201.734 152.175 201.667C152.175 201.584 152.183 201.5 152.2 201.416C152.233 201.316 152.258 201.224 152.275 201.141C152.308 201.04 152.317 200.948 152.3 200.865C152.267 200.714 152.242 200.572 152.225 200.438C152.208 200.305 152.191 200.162 152.175 200.012C152.208 199.795 152.233 199.636 152.25 199.535C152.283 199.418 152.3 199.343 152.3 199.31C152.3 199.243 152.292 199.218 152.275 199.235C152.258 199.235 152.225 199.176 152.175 199.059C152.158 198.975 152.208 198.934 152.325 198.934C152.392 198.934 152.451 198.942 152.501 198.959C152.568 198.975 152.609 198.984 152.626 198.984C152.66 199 152.735 199.026 152.852 199.059C152.986 199.092 153.144 199.092 153.328 199.059C153.512 199.026 153.688 198.975 153.855 198.908C154.039 198.842 154.298 198.8 154.633 198.783C154.733 198.75 154.858 198.716 155.009 198.683C155.159 198.633 155.293 198.591 155.41 198.557C155.711 198.557 155.92 198.415 156.037 198.131C156.154 197.847 156.263 197.579 156.363 197.328C156.33 197.161 156.346 196.969 156.413 196.752C156.497 196.534 156.488 196.342 156.388 196.175C156.305 196.024 156.279 195.857 156.313 195.673C156.346 195.473 156.296 195.33 156.162 195.247C156.079 195.13 155.987 195.046 155.887 194.996C155.803 194.946 155.703 194.879 155.586 194.795C155.552 194.678 155.51 194.603 155.46 194.57C155.41 194.536 155.343 194.519 155.26 194.519C155.193 194.519 155.117 194.536 155.034 194.57C154.967 194.586 154.9 194.595 154.833 194.595C154.733 194.595 154.674 194.511 154.658 194.344C154.524 194.394 154.449 194.419 154.432 194.419C154.398 194.419 154.365 194.419 154.332 194.419C154.298 194.402 154.24 194.386 154.156 194.369C154.072 194.352 154.031 194.352 154.031 194.369C154.047 194.369 154.014 194.369 153.93 194.369C153.897 194.369 153.88 194.428 153.88 194.545C153.897 194.662 153.905 194.795 153.905 194.946C153.922 195.096 153.914 195.238 153.88 195.372C153.863 195.489 153.805 195.556 153.705 195.573C153.671 195.573 153.646 195.523 153.629 195.422C153.629 195.305 153.621 195.18 153.604 195.046C153.604 194.896 153.596 194.77 153.579 194.67C153.562 194.553 153.546 194.494 153.529 194.494C153.462 194.461 153.429 194.428 153.429 194.394C153.429 194.361 153.337 194.344 153.153 194.344C153.086 194.344 153.019 194.352 152.952 194.369C152.885 194.369 152.785 194.402 152.651 194.469C152.501 194.553 152.425 194.578 152.425 194.545C152.425 194.494 152.417 194.469 152.4 194.469C152.35 194.469 152.275 194.419 152.175 194.319C152.141 194.285 152.125 194.219 152.125 194.118C152.125 193.984 152.133 193.834 152.15 193.667C152.166 193.483 152.175 193.349 152.175 193.265V192.237C152.175 192.137 152.166 192.053 152.15 191.986C152.15 191.903 152.15 191.786 152.15 191.635C152.15 191.602 152.158 191.552 152.175 191.485C152.208 191.418 152.283 191.393 152.4 191.41L152.676 191.435L153.052 191.41L154.106 191.435L155.36 191.485C155.393 191.502 155.443 191.527 155.51 191.56C155.594 191.593 155.678 191.627 155.761 191.66C155.845 191.694 155.92 191.727 155.987 191.761C156.07 191.777 156.121 191.786 156.137 191.786C156.539 191.886 156.856 192.045 157.09 192.262C157.324 192.48 157.592 192.756 157.893 193.09C157.943 193.19 158.002 193.291 158.068 193.391C158.135 193.474 158.202 193.558 158.269 193.642C158.303 193.742 158.353 193.842 158.42 193.943C158.503 194.043 158.587 194.143 158.67 194.244C158.771 194.344 158.854 194.444 158.921 194.545C159.005 194.645 159.055 194.745 159.072 194.846C159.122 194.946 159.147 195.046 159.147 195.146C159.164 195.23 159.189 195.322 159.222 195.422C159.172 195.59 159.18 195.757 159.247 195.924C159.314 196.074 159.339 196.242 159.322 196.426C159.256 196.543 159.247 196.701 159.297 196.902C159.348 197.086 159.348 197.236 159.297 197.354C159.264 197.521 159.247 197.604 159.247 197.604V197.855C159.247 197.939 159.222 197.972 159.172 197.955C159.139 197.922 159.105 197.93 159.072 197.981L158.921 198.231C158.854 198.348 158.821 198.457 158.821 198.557C158.821 198.691 158.829 198.808 158.846 198.908C158.879 199.009 158.813 199.117 158.645 199.235C158.562 199.301 158.545 199.36 158.595 199.41C158.645 199.444 158.612 199.477 158.495 199.51C158.445 199.544 158.42 199.586 158.42 199.636C158.42 199.736 158.369 199.811 158.269 199.862C158.186 199.895 158.102 199.953 158.018 200.037C157.968 200.104 157.918 200.154 157.868 200.188C157.818 200.221 157.809 200.288 157.843 200.388C157.843 200.422 157.826 200.472 157.793 200.539C157.776 200.606 157.751 200.622 157.717 200.589C157.667 200.572 157.65 200.539 157.667 200.489C157.701 200.422 157.701 200.363 157.667 200.313C157.667 200.246 157.634 200.288 157.567 200.438C157.5 200.572 157.483 200.672 157.517 200.739L157.065 200.915C157.065 200.915 157.023 200.932 156.94 200.965C156.873 200.982 156.798 201.015 156.714 201.065C156.631 201.099 156.555 201.132 156.488 201.166C156.422 201.199 156.396 201.224 156.413 201.241ZM153.629 207.661C153.629 207.712 153.621 207.787 153.604 207.887C153.604 207.971 153.621 208.046 153.654 208.113C153.604 208.431 153.596 208.765 153.629 209.116C153.679 209.467 153.671 209.802 153.604 210.119C153.521 210.086 153.479 210.027 153.479 209.944C153.479 209.877 153.462 209.793 153.429 209.693C153.479 209.509 153.487 209.317 153.454 209.116C153.437 208.932 153.412 208.74 153.379 208.539C153.362 208.355 153.345 208.171 153.328 207.987C153.328 207.787 153.37 207.595 153.454 207.411C153.521 207.427 153.562 207.461 153.579 207.511C153.596 207.561 153.613 207.611 153.629 207.661Z" fill="white"/>
<line x1="5.32004" y1="224.2" x2="259.14" y2="224.2" stroke="white" stroke-width="4.56" stroke-linecap="round" stroke-linejoin="round"/>
<line x1="3.72503" y1="224.31" x2="131.405" y2="3.16216" stroke="white" stroke-width="4.56" stroke-linecap="round" stroke-linejoin="round"/>
<line x1="2.28" y1="-2.28" x2="257.64" y2="-2.28" transform="matrix(-0.5 -0.866025 -0.866025 0.5 258.4 227.61)" stroke="white" stroke-width="4.56" stroke-linecap="round" stroke-linejoin="round"/>
</svg>
