<svg width="228" height="228" viewBox="0 0 228 228" fill="none" xmlns="http://www.w3.org/2000/svg">
<path d="M114.41 227.906C84.1055 227.906 55.5742 216.113 34.1641 194.656C12.707 173.246 0.910156 144.711 0.910156 114.41C0.910156 84.1055 12.707 55.5742 34.1641 34.1641C55.5742 12.707 84.1055 0.910156 114.41 0.910156C144.711 0.910156 173.246 12.707 194.656 34.1641C216.113 55.6211 227.906 84.1055 227.906 114.41C227.906 144.711 216.113 173.246 194.656 194.656C173.246 216.113 144.711 227.906 114.41 227.906ZM114.41 7.71484C85.9219 7.71484 59.1133 18.8281 38.9727 38.9727C18.832 59.1133 7.71484 85.9219 7.71484 114.41C7.71484 142.898 18.832 169.707 38.9727 189.848C59.1133 209.988 85.9219 221.102 114.41 221.102C142.898 221.102 169.707 209.988 189.848 189.848C209.988 169.707 221.102 142.898 221.102 114.41C221.102 85.9219 209.988 59.1133 189.848 38.9727C169.707 18.8281 142.898 7.71484 114.41 7.71484Z" fill="white"/>
<path d="M123.496 110.723C122.992 110.723 122.504 110.801 122.027 110.957C121.547 111.109 121.105 111.332 120.695 111.621C120.285 111.91 119.93 112.258 119.629 112.656C119.328 113.059 119.09 113.496 118.926 113.969H115.082C114.914 113.492 114.684 113.055 114.379 112.652C114.078 112.254 113.723 111.906 113.312 111.613C112.902 111.324 112.461 111.102 111.98 110.949C111.504 110.797 111.012 110.719 110.512 110.719C110.008 110.719 109.516 110.797 109.039 110.949C108.559 111.102 108.117 111.324 107.707 111.613C107.297 111.906 106.941 112.254 106.641 112.652C106.34 113.055 106.105 113.492 105.941 113.969H102.098C101.93 113.492 101.699 113.055 101.395 112.652C101.094 112.254 100.738 111.906 100.328 111.613C99.918 111.324 99.4766 111.102 98.9961 110.949C98.5195 110.797 98.0273 110.719 97.5273 110.719C97.0234 110.719 96.5312 110.797 96.0547 110.949C95.5742 111.102 95.1328 111.324 94.7227 111.613C94.3125 111.906 93.957 112.254 93.6562 112.652C93.3555 113.055 93.1211 113.492 92.957 113.969H89.4102V117.215H92.957C93.1211 117.688 93.3555 118.125 93.6562 118.527C93.957 118.93 94.3125 119.277 94.7227 119.566C95.1328 119.859 95.5742 120.082 96.0547 120.234C96.5312 120.387 97.0234 120.461 97.5273 120.461C98.0273 120.461 98.5195 120.387 98.9961 120.234C99.4766 120.082 99.918 119.859 100.328 119.566C100.738 119.277 101.094 118.93 101.395 118.527C101.699 118.125 101.93 117.688 102.098 117.215H105.941C106.105 117.688 106.34 118.125 106.641 118.527C106.941 118.93 107.297 119.277 107.707 119.566C108.117 119.859 108.559 120.082 109.039 120.234C109.516 120.387 110.008 120.461 110.512 120.461C111.012 120.461 111.504 120.387 111.98 120.234C112.461 120.082 112.902 119.859 113.312 119.566C113.723 119.277 114.078 118.93 114.379 118.527C114.684 118.125 114.914 117.688 115.082 117.215H118.926C119.09 117.688 119.324 118.125 119.625 118.527C119.926 118.93 120.281 119.277 120.691 119.566C121.102 119.859 121.547 120.082 122.023 120.234C122.504 120.387 122.992 120.461 123.496 120.461C123.996 120.461 124.488 120.387 124.965 120.234C125.445 120.082 125.891 119.859 126.297 119.566C126.707 119.277 127.062 118.93 127.363 118.527C127.668 118.125 127.898 117.688 128.066 117.215H133.234V113.969H128.066C127.898 113.496 127.664 113.059 127.359 112.656C127.059 112.258 126.703 111.91 126.293 111.621C125.887 111.332 125.441 111.109 124.965 110.957C124.488 110.801 123.996 110.723 123.496 110.723ZM97.5273 117.215C97.3125 117.215 97.1016 117.172 96.9062 117.09C96.707 117.008 96.5313 116.891 96.3789 116.738C96.2266 116.586 96.1094 116.41 96.0273 116.211C95.9453 116.012 95.9023 115.805 95.9023 115.59C95.9023 115.375 95.9453 115.168 96.0273 114.969C96.1094 114.77 96.2266 114.598 96.3789 114.445C96.5313 114.293 96.707 114.176 96.9062 114.09C97.1016 114.008 97.3125 113.969 97.5273 113.969C97.7422 113.969 97.9492 114.008 98.1484 114.09C98.3477 114.176 98.5195 114.293 98.6719 114.445C98.8242 114.598 98.9414 114.77 99.0234 114.969C99.1094 115.168 99.1484 115.375 99.1484 115.59C99.1484 115.805 99.1094 116.012 99.0234 116.211C98.9414 116.41 98.8242 116.586 98.6719 116.738C98.5195 116.891 98.3477 117.008 98.1484 117.09C97.9492 117.172 97.7422 117.215 97.5273 117.215ZM110.512 117.215C110.297 117.215 110.09 117.172 109.891 117.09C109.691 117.008 109.516 116.891 109.363 116.738C109.211 116.586 109.094 116.41 109.012 116.211C108.93 116.012 108.887 115.805 108.887 115.59C108.887 115.375 108.93 115.168 109.012 114.969C109.094 114.77 109.211 114.598 109.363 114.445C109.516 114.293 109.691 114.176 109.891 114.09C110.09 114.008 110.297 113.969 110.512 113.969C110.727 113.969 110.934 114.008 111.133 114.09C111.332 114.176 111.504 114.293 111.656 114.445C111.809 114.598 111.926 114.77 112.012 114.969C112.094 115.168 112.133 115.375 112.133 115.59C112.133 115.805 112.094 116.012 112.012 116.211C111.926 116.41 111.809 116.586 111.656 116.738C111.504 116.891 111.332 117.008 111.133 117.09C110.934 117.172 110.727 117.215 110.512 117.215ZM123.496 117.215C123.281 117.215 123.074 117.172 122.875 117.09C122.676 117.008 122.5 116.891 122.348 116.738C122.195 116.586 122.078 116.41 121.996 116.211C121.914 116.012 121.871 115.805 121.871 115.59C121.871 115.375 121.914 115.168 121.996 114.969C122.078 114.77 122.195 114.598 122.348 114.445C122.5 114.293 122.676 114.176 122.875 114.09C123.074 114.008 123.281 113.969 123.496 113.969C123.711 113.969 123.918 114.008 124.117 114.09C124.316 114.176 124.492 114.293 124.641 114.445C124.793 114.598 124.91 114.77 124.996 114.969C125.078 115.168 125.117 115.375 125.117 115.59C125.117 115.805 125.078 116.012 124.996 116.211C124.91 116.41 124.793 116.586 124.641 116.738C124.492 116.891 124.316 117.008 124.117 117.09C123.918 117.172 123.711 117.215 123.496 117.215Z" fill="white"/>
<path d="M100.773 122.082H104.02V125.328H100.773V122.082Z" fill="white"/>
<path d="M113.758 122.082H117.004V125.328H113.758V122.082Z" fill="white"/>
<path d="M154.332 71.7695V58.7851C154.332 58.5703 154.293 58.3633 154.211 58.1641C154.129 57.9648 154.012 57.7891 153.859 57.6367C153.707 57.4844 153.531 57.3672 153.332 57.2851C153.133 57.2031 152.926 57.1601 152.711 57.1601C151.809 57.1875 150.969 56.9766 150.188 56.5195C149.574 56.1953 148.934 55.9531 148.258 55.7851C147.586 55.6211 146.902 55.5351 146.211 55.5351C145.52 55.5351 144.836 55.6211 144.164 55.7851C143.492 55.9531 142.848 56.1953 142.234 56.5195C141.461 56.9726 140.625 57.1875 139.727 57.1601C139.512 57.1601 139.305 57.2031 139.105 57.2851C138.906 57.3672 138.73 57.4844 138.578 57.6367C138.426 57.7891 138.309 57.9648 138.227 58.1641C138.145 58.3633 138.102 58.5703 138.102 58.7851V66.8984C138.102 67.1133 138.145 67.3203 138.227 67.5195C138.309 67.7187 138.426 67.8945 138.578 68.0469C138.73 68.1992 138.906 68.3164 139.105 68.3984C139.305 68.4805 139.512 68.5234 139.727 68.5234C141.137 68.5469 142.457 68.2226 143.691 67.5391C144.477 67.1133 145.32 66.8984 146.215 66.8984C147.109 66.8984 147.949 67.1133 148.738 67.5391C149.48 67.9336 150.262 68.2109 151.086 68.3672V71.7695H136.48V75.0156H140.258C141 77.1172 141.363 79.2812 141.348 81.5078C141.379 84.0703 140.891 86.5351 139.887 88.8984C139.824 89.0195 139.781 89.1523 139.75 89.2851C139.723 89.4219 139.711 89.5586 139.719 89.6992C139.727 89.8359 139.75 89.9726 139.789 90.1055C139.832 90.2383 139.887 90.3633 139.961 90.4805C140.035 90.5976 140.121 90.7031 140.223 90.8008C140.324 90.8945 140.434 90.9766 140.555 91.043C140.676 91.1094 140.805 91.1601 140.938 91.1953C141.074 91.2305 141.211 91.2461 141.348 91.2461H151.086V99.6836L141.363 100.996C141.047 101.039 140.762 101.164 140.52 101.375C140.277 101.586 140.109 101.848 140.02 102.156L139.43 104.23H117.004V100.984H128.363C128.734 100.984 129.07 100.871 129.363 100.641C129.656 100.41 129.848 100.117 129.938 99.7539C131.055 94.8242 131.609 89.8242 131.609 84.7539C131.641 80.9258 131.258 77.1367 130.465 73.3906H133.234V70.1445H117.004V66.8984H126.742C127.188 66.8984 127.57 66.7422 127.887 66.4219C128.238 66.0742 129.988 64.0586 129.988 58.7851C130.016 57.1289 129.801 55.5039 129.34 53.9141H131.609V50.668H117.004V37.6836C117.004 37.4687 116.961 37.2617 116.879 37.0625C116.797 36.8633 116.68 36.6875 116.527 36.5351C116.375 36.3828 116.199 36.2656 116 36.1836C115.801 36.1016 115.594 36.0625 115.379 36.0625C114.477 36.0898 113.637 35.875 112.855 35.418C112.246 35.0976 111.602 34.8516 110.93 34.6875C110.258 34.5195 109.574 34.4375 108.879 34.4375C108.188 34.4375 107.504 34.5195 106.832 34.6875C106.16 34.8516 105.516 35.0976 104.902 35.418C104.129 35.8711 103.293 36.0859 102.395 36.0625C101.496 36.0898 100.656 35.875 99.8789 35.4219C98.6406 34.7383 97.3164 34.4101 95.9023 34.4375C95.6875 34.4375 95.4805 34.4805 95.2812 34.5625C95.082 34.6445 94.9062 34.7617 94.7539 34.9141C94.6016 35.0664 94.4844 35.2422 94.4023 35.4414C94.3203 35.6406 94.2812 35.8476 94.2812 36.0625V44.1758C94.2812 44.3906 94.3203 44.5976 94.4023 44.7969C94.4844 44.9961 94.6016 45.1719 94.7539 45.3242C94.9062 45.4766 95.082 45.5937 95.2812 45.6758C95.4805 45.7578 95.6875 45.8008 95.9023 45.8008C96.8008 45.7734 97.6406 45.9844 98.418 46.4375C99.0312 46.7617 99.6719 47.0078 100.344 47.1719C101.016 47.3398 101.699 47.4219 102.391 47.4219C103.082 47.4219 103.762 47.3398 104.434 47.1719C105.105 47.0078 105.75 46.7617 106.359 46.4375C107.148 46.0117 107.988 45.7969 108.883 45.7969C109.777 45.7969 110.621 46.0117 111.406 46.4375C112.148 46.8281 112.934 47.1016 113.758 47.2617V50.668H99.1484V53.9141H103.137C103.809 55.4687 104.102 57.0937 104.02 58.7851C104.203 60.6875 103.82 62.4687 102.867 64.1289C102.637 64.3594 102.488 64.6367 102.426 64.9609C102.359 65.2812 102.391 65.5937 102.516 65.8984C102.645 66.2031 102.844 66.4453 103.117 66.625C103.391 66.8086 103.691 66.8984 104.02 66.8984H113.758V70.1445H97.5273V73.3906H99.5352C100.398 77.1289 100.809 80.918 100.773 84.7539C100.762 89.5469 100.238 94.2851 99.1992 98.9687C99.1367 99.2109 99.1328 99.4531 99.1836 99.6992C99.2383 99.9414 99.3398 100.164 99.4922 100.359C99.6484 100.555 99.8359 100.711 100.059 100.82C100.285 100.93 100.523 100.984 100.773 100.984H113.758V104.23H86.1641V92.8672H94.2812C94.5859 92.8672 94.8711 92.7891 95.1328 92.625C95.3945 92.4648 95.5938 92.2461 95.7305 91.9726C96.9688 89.1523 97.5664 86.207 97.5273 83.1289C97.5703 80.0547 96.9727 77.1055 95.7422 74.2891C95.6016 74.0117 95.4023 73.793 95.1367 73.6328C94.875 73.4687 94.5898 73.3906 94.2812 73.3906H86.1641V68.5234H87.7891C88.1602 68.5234 88.4922 68.4062 88.7852 68.1797C89.0781 67.9492 89.2695 67.6562 89.3633 67.293L90.9844 60.8008C91.0469 60.5586 91.0508 60.3164 91 60.0703C90.9453 59.8281 90.8438 59.6055 90.6914 59.4101C90.5352 59.2109 90.3477 59.0586 90.1211 58.9492C89.8984 58.8398 89.6602 58.7851 89.4102 58.7851H86.1641V45.8008C86.1641 45.5859 86.125 45.3789 86.0391 45.1797C85.957 44.9805 85.8398 44.8047 85.6875 44.6523C85.5352 44.5 85.3594 44.3828 85.1641 44.3008C84.9648 44.2187 84.7578 44.1758 84.543 44.1758C83.6406 44.2031 82.7969 43.9922 82.0195 43.5351C80.7852 42.8555 79.4609 42.5273 78.0508 42.5547C76.6367 42.5234 75.3125 42.8516 74.0742 43.5351C73.2969 43.9883 72.457 44.2031 71.5586 44.1758C71.3398 44.1758 71.1328 44.2187 70.9375 44.3008C70.7383 44.3828 70.5625 44.5 70.4102 44.6523C70.2578 44.8047 70.1406 44.9805 70.0586 45.1797C69.9766 45.3789 69.9336 45.5859 69.9336 45.8008V53.9141C69.9336 54.1289 69.9766 54.3359 70.0586 54.5351C70.1406 54.7344 70.2578 54.9101 70.4102 55.0625C70.5625 55.2148 70.7383 55.332 70.9375 55.4141C71.1328 55.4961 71.3398 55.5391 71.5586 55.5391C72.9648 55.5664 74.2852 55.2422 75.5234 54.5625C76.3008 54.1055 77.1445 53.8906 78.0508 53.9141C78.9531 53.8867 79.793 54.1016 80.5703 54.5547C81.3125 54.9492 82.0977 55.2226 82.9219 55.3828V58.7851H79.6719C79.4219 58.7851 79.1836 58.8398 78.9609 58.9492C78.7344 59.0586 78.5469 59.2109 78.3906 59.4101C78.2383 59.6055 78.1367 59.8281 78.0859 60.0703C78.0312 60.3164 78.0352 60.5586 78.0977 60.8008L79.7227 67.293C79.8125 67.6562 80.0039 67.9492 80.2969 68.1797C80.5898 68.4062 80.9219 68.5234 81.2969 68.5234H82.918V73.3906H73.1797C73.043 73.3906 72.9063 73.4101 72.7695 73.4453C72.6367 73.4766 72.5117 73.5312 72.3906 73.5976C72.2695 73.6641 72.1562 73.7461 72.0586 73.8398C71.957 73.9375 71.8711 74.043 71.7969 74.1601C71.7266 74.2773 71.668 74.4023 71.6289 74.5351C71.5859 74.668 71.5625 74.8047 71.5586 74.9414C71.5508 75.0781 71.5625 75.2148 71.5898 75.3516C71.6211 75.4883 71.6641 75.6172 71.7266 75.7383C72.7383 78.1016 73.2227 80.5625 73.1797 83.1289C73.2109 85.6953 72.7266 88.1562 71.7266 90.5195C71.6641 90.6445 71.6211 90.7734 71.5898 90.9101C71.5625 91.043 71.5508 91.1797 71.5586 91.3203C71.5625 91.457 71.5859 91.5937 71.6289 91.7226C71.668 91.8555 71.7266 91.9805 71.7969 92.0976C71.8711 92.2148 71.957 92.3242 72.0586 92.418C72.1562 92.5156 72.2695 92.5976 72.3906 92.6641C72.5117 92.7305 72.6367 92.7812 72.7695 92.8164C72.9063 92.8516 73.043 92.8672 73.1797 92.8672H82.918V100.984H73.1797C72.8086 100.984 72.4766 101.098 72.1797 101.328C71.8867 101.555 71.6953 101.852 71.6055 102.211L69.9805 108.703C69.9492 108.836 69.9336 108.965 69.9336 109.098C69.9336 109.824 70.0547 110.527 70.2891 111.211C70.5273 111.898 70.8672 112.523 71.3125 113.098C71.7617 113.668 72.2852 114.148 72.8945 114.543C73.5 114.937 74.1562 115.223 74.8594 115.398C74.9492 116.508 75.1406 117.598 75.4375 118.672C75.7305 119.742 76.1211 120.777 76.6055 121.777C77.0938 122.777 77.668 123.723 78.332 124.613C78.9961 125.508 79.7383 126.328 80.5547 127.082C81.3711 127.836 82.25 128.508 83.1914 129.098C84.1367 129.687 85.125 130.187 86.1602 130.59C87.1953 130.996 88.2578 131.305 89.3516 131.512C90.4414 131.715 91.543 131.82 92.6562 131.82H133.234C133.988 131.781 134.734 131.68 135.477 131.516C136.215 131.355 136.934 131.137 137.637 130.855C138.34 130.578 139.02 130.246 139.668 129.855C140.316 129.469 140.93 129.031 141.508 128.543C142.09 128.059 142.625 127.527 143.117 126.953C143.609 126.379 144.055 125.77 144.449 125.125C144.844 124.477 145.184 123.805 145.469 123.105C145.754 122.402 145.98 121.684 146.148 120.949L149.105 113.555L166.367 105.707C166.656 105.574 166.887 105.375 167.059 105.109C167.23 104.84 167.316 104.547 167.316 104.23V99.3594C167.316 99.125 167.27 98.9023 167.172 98.6914C167.074 98.4766 166.938 98.293 166.762 98.1406C166.586 97.9844 166.387 97.875 166.164 97.8086C165.938 97.7383 165.711 97.7226 165.48 97.7539L154.332 99.25V91.2461H162.449C162.758 91.2461 163.043 91.168 163.309 91.0039C163.57 90.8437 163.77 90.625 163.91 90.3476C165.141 87.5312 165.738 84.582 165.695 81.5078C165.699 79.2969 165.391 77.1328 164.77 75.0156H167.316V71.7695H154.332ZM150.188 64.6367C149.574 64.3125 148.934 64.0664 148.258 63.9023C147.586 63.7344 146.902 63.6523 146.211 63.6523C145.52 63.6523 144.836 63.7344 144.164 63.9023C143.492 64.0664 142.848 64.3125 142.234 64.6367C141.945 64.7891 141.648 64.9219 141.344 65.0351V60.2656C142.164 60.1055 142.945 59.8242 143.684 59.4258C144.473 58.9961 145.312 58.7851 146.207 58.7851C147.102 58.7851 147.945 58.9961 148.73 59.4258C149.469 59.8281 150.254 60.1094 151.082 60.2695V65.0391C150.773 64.9219 150.477 64.7891 150.188 64.6367ZM112.855 43.5351C112.246 43.2109 111.602 42.9687 110.93 42.8008C110.258 42.6367 109.574 42.5508 108.879 42.5508C108.188 42.5508 107.504 42.6367 106.832 42.8008C106.16 42.9687 105.516 43.2109 104.902 43.5351C104.121 43.9609 103.281 44.1758 102.387 44.1758C101.496 44.1758 100.656 43.9609 99.8711 43.5351C99.1328 43.1328 98.3516 42.8516 97.5273 42.6914V37.9219C97.832 38.0351 98.1289 38.1719 98.418 38.3242C99.0312 38.6445 99.6719 38.8906 100.344 39.0586C101.016 39.2226 101.699 39.3047 102.391 39.3047C103.082 39.3047 103.762 39.2226 104.434 39.0586C105.105 38.8906 105.75 38.6445 106.359 38.3242C107.148 37.8945 107.988 37.6836 108.883 37.6836C109.777 37.6836 110.621 37.8945 111.406 38.3242C112.145 38.7266 112.93 39.0078 113.758 39.168V43.9375C113.449 43.8242 113.148 43.6875 112.855 43.5351ZM106.625 63.6523C107.082 62.0625 107.293 60.4375 107.266 58.7851C107.293 57.1289 107.082 55.5039 106.625 53.9141H125.863C126.531 55.4687 126.82 57.0937 126.742 58.7851C126.82 60.4726 126.531 62.0976 125.863 63.6523H106.625ZM102.777 97.7383C103.594 93.4492 104.008 89.1211 104.02 84.7539C104.047 80.9258 103.664 77.1367 102.871 73.3906H127.129C127.988 77.1289 128.402 80.918 128.363 84.7539C128.352 89.1211 127.918 93.4531 127.066 97.7383H102.777ZM82.0195 51.6523C80.7852 50.9687 79.4609 50.6406 78.0508 50.668C76.6367 50.6406 75.3125 50.9687 74.0742 51.6523C73.7852 51.8047 73.4883 51.9375 73.1836 52.0508V47.2812C74.0039 47.125 74.7852 46.8476 75.5234 46.4492C76.3008 45.9883 77.1445 45.7734 78.0508 45.8008C78.9492 45.7734 79.7891 45.9922 80.5664 46.4492C81.3086 46.8476 82.0898 47.125 82.918 47.2851V52.0547C82.6094 51.9375 82.3086 51.8047 82.0195 51.6523ZM82.5625 65.2773L81.75 62.0312H87.332L86.5195 65.2773H82.5625ZM75.5039 89.6211C76.1211 87.5039 76.4297 85.3398 76.4258 83.1289C76.4297 80.9219 76.1211 78.7578 75.5039 76.6367H93.1953C93.9297 78.7383 94.2891 80.9023 94.2812 83.1289C94.2852 85.3555 93.9219 87.5195 93.1914 89.6211H75.5039ZM164.07 101.219V103.184L147.34 110.789L139.402 112.379L140.039 115.559L145.215 114.523C145.215 114.523 142.93 120.344 142.898 120.461H133.234V123.707H141.438C140.996 124.41 140.48 125.055 139.891 125.637C139.297 126.215 138.645 126.719 137.93 127.141C137.215 127.566 136.461 127.898 135.668 128.141C134.875 128.383 134.062 128.527 133.234 128.574H92.6562C91.6328 128.574 90.6172 128.469 89.6133 128.254C88.6133 128.039 87.6445 127.719 86.707 127.301C85.7734 126.883 84.8906 126.367 84.0625 125.762C83.2383 125.156 82.4805 124.473 81.8008 123.707H87.7891V120.461H79.5898C78.8203 118.922 78.3359 117.301 78.1445 115.59H82.918V112.344H76.4258C76.0117 112.348 75.6094 112.27 75.2227 112.117C74.8359 111.965 74.4922 111.742 74.1914 111.457C73.8906 111.172 73.6523 110.844 73.4766 110.465C73.3008 110.09 73.2031 109.695 73.1797 109.277L74.4492 104.23H82.918V105.852C82.918 106.066 82.9609 106.273 83.043 106.473C83.125 106.672 83.2422 106.848 83.3945 107C83.5469 107.152 83.7227 107.27 83.9219 107.352C84.1172 107.434 84.3242 107.477 84.543 107.477H140.652C141.016 107.477 141.34 107.367 141.629 107.148C141.918 106.93 142.113 106.648 142.215 106.301L142.852 104.074L164.07 101.219ZM161.359 88H143.668C144.281 85.8789 144.59 83.7148 144.59 81.5078C144.59 79.3008 144.281 77.1367 143.668 75.0156H161.359C162.086 77.1172 162.445 79.2812 162.445 81.5078C162.445 83.7305 162.086 85.8945 161.359 88Z" fill="white"/>
<path d="M112.133 57.1602H115.379V60.4062H112.133V57.1602Z" fill="white"/>
<path d="M118.625 57.1602H121.871V60.4062H118.625V57.1602Z" fill="white"/>
<path d="M123.496 83.1289C123.496 79.5508 119.855 76.6367 115.379 76.6367C110.906 76.6367 107.266 79.5508 107.266 83.1289C107.309 84.2344 107.586 85.2734 108.098 86.25C108.609 87.2305 109.305 88.0508 110.188 88.7148L108.973 92.3555C108.891 92.6016 108.871 92.8555 108.91 93.1133C108.949 93.3711 109.043 93.6055 109.195 93.8164C109.348 94.0273 109.539 94.1914 109.773 94.3125C110.004 94.4297 110.25 94.4922 110.512 94.4922H120.25C120.508 94.4922 120.758 94.4336 120.988 94.3125C121.219 94.1953 121.414 94.0273 121.566 93.8164C121.719 93.6055 121.812 93.3711 121.855 93.1133C121.895 92.8555 121.871 92.6016 121.789 92.3555L120.574 88.7148C121.453 88.0508 122.152 87.2305 122.66 86.25C123.172 85.2734 123.453 84.2344 123.496 83.1289ZM117.977 86.5117C117.789 86.5898 117.625 86.7031 117.48 86.8477C117.34 86.9883 117.227 87.1523 117.141 87.3398C117.059 87.5234 117.016 87.7188 117.004 87.918C116.992 88.1211 117.02 88.3203 117.086 88.5117L117.996 91.2461H112.762L113.672 88.5117C113.738 88.3203 113.766 88.1211 113.754 87.918C113.746 87.7188 113.699 87.5234 113.617 87.3398C113.535 87.1523 113.422 86.9883 113.277 86.8477C113.133 86.7031 112.969 86.5898 112.781 86.5117C112.137 86.1836 111.609 85.7188 111.203 85.1172C110.801 84.5156 110.57 83.8516 110.512 83.1289C110.512 81.3711 112.742 79.8828 115.379 79.8828C118.02 79.8828 120.25 81.3711 120.25 83.1289C120.191 83.8516 119.961 84.5156 119.555 85.1172C119.148 85.7188 118.625 86.1836 117.977 86.5117Z" fill="white"/>
<path d="M73.1852 144.527C73.3172 144.703 73.3392 144.89 73.2512 145.088C73.1852 145.264 73.1632 145.451 73.1852 145.649C73.1852 146.111 73.1742 146.606 73.1522 147.134C73.1522 147.64 73.1742 148.124 73.2182 148.586C73.1522 148.674 73.1412 148.795 73.1852 148.949C73.1632 149.059 73.1522 149.224 73.1522 149.444C73.1522 149.598 73.1742 149.741 73.2182 149.873C73.1742 150.181 73.1632 150.511 73.1852 150.863C73.2072 151.215 73.2072 151.567 73.1852 151.919V153.107C73.1412 153.679 73.1302 154.24 73.1522 154.79C73.1742 155.318 73.1632 155.857 73.1192 156.407C73.1632 156.429 73.1742 156.451 73.1522 156.473C73.1302 156.495 73.1412 156.506 73.1852 156.506C73.1852 157.628 73.1522 158.728 73.0862 159.806C73.0642 160.114 73.0642 160.411 73.0862 160.697C73.1302 160.961 73.1302 161.247 73.0862 161.555C73.1302 161.621 73.1302 161.698 73.0862 161.786C73.0642 161.852 73.0752 161.918 73.1192 161.984C73.0972 162.402 73.0752 162.809 73.0532 163.205C73.0312 163.579 73.0422 163.964 73.0862 164.36C73.0862 164.47 73.0862 164.58 73.0862 164.69C73.1082 164.8 73.0972 164.921 73.0532 165.053C73.0752 165.405 73.1082 165.735 73.1522 166.043C73.1962 166.351 73.1632 166.67 73.0532 167L72.6572 167.231C72.4812 167.165 72.2722 167.132 72.0302 167.132C71.8102 167.132 71.6122 167.187 71.4362 167.297C71.3262 167.297 71.2382 167.264 71.1722 167.198C71.1062 167.132 71.0292 167.088 70.9412 167.066C70.6552 167.022 70.3912 167.033 70.1492 167.099C69.9292 167.187 69.6982 167.231 69.4562 167.231C69.2142 167.165 69.0822 167.022 69.0602 166.802C69.0602 166.56 69.0382 166.34 68.9942 166.142C69.0602 165.966 69.0822 165.779 69.0602 165.581C69.0602 165.361 69.1152 165.174 69.2252 165.02C69.2472 164.778 69.2582 164.547 69.2582 164.327C69.2582 164.107 69.2582 163.887 69.2582 163.667C69.2582 163.447 69.2582 163.227 69.2582 163.007C69.2802 162.765 69.3022 162.523 69.3242 162.281C69.2142 161.951 69.1812 161.61 69.2252 161.258C69.2912 160.906 69.3022 160.543 69.2582 160.169C69.2142 159.905 69.2032 159.652 69.2252 159.41C69.2472 159.146 69.2362 158.893 69.1922 158.651C69.2582 158.123 69.2912 157.606 69.2912 157.1V154.196C69.1812 154.086 69.1702 153.976 69.2582 153.866C69.3462 153.756 69.3462 153.635 69.2582 153.503C69.3242 152.865 69.3242 152.216 69.2582 151.556C69.1922 151.534 69.1812 151.512 69.2252 151.49C69.2692 151.468 69.2692 151.435 69.2252 151.391C69.2912 151.149 69.3132 150.863 69.2912 150.533C69.2692 150.181 69.2692 149.884 69.2912 149.642C69.3352 149.4 69.3462 149.158 69.3242 148.916C69.3242 148.674 69.3242 148.432 69.3242 148.19C69.2802 148.058 69.2692 147.915 69.2912 147.761C69.3352 147.585 69.3352 147.431 69.2912 147.299C69.3352 146.903 69.3462 146.507 69.3242 146.111C69.3022 145.715 69.2692 145.308 69.2252 144.89C69.2692 144.824 69.2802 144.758 69.2582 144.692C69.2582 144.604 69.3022 144.538 69.3902 144.494C69.9622 144.538 70.5672 144.549 71.2052 144.527C71.8652 144.483 72.4812 144.483 73.0532 144.527H73.1852ZM81.4022 163.139V163.106C81.9522 163.172 82.4032 163.194 82.7552 163.172C83.1292 163.15 83.5912 163.139 84.1412 163.139C84.2732 163.249 84.3282 163.381 84.3062 163.535C84.2842 163.689 84.3062 163.832 84.3722 163.964C84.4162 164.184 84.4382 164.404 84.4382 164.624C84.4602 164.844 84.4162 165.053 84.3062 165.251C84.3502 165.383 84.3612 165.515 84.3392 165.647C84.3172 165.757 84.3282 165.867 84.3722 165.977C84.3282 166.175 84.3282 166.384 84.3722 166.604C84.4162 166.824 84.3392 167.011 84.1412 167.165C83.9652 166.989 83.7562 166.923 83.5142 166.967C83.2942 167.011 83.0742 167.022 82.8542 167C82.4142 166.956 82.0622 166.934 81.7982 166.934C81.5562 166.912 81.2152 166.923 80.7752 166.967C80.6212 167.055 80.4452 167.088 80.2472 167.066C80.0492 167.044 79.8622 167.044 79.6862 167.066C79.3562 166.934 79.0042 166.89 78.6302 166.934C78.2782 166.978 77.9262 167 77.5742 167C77.5522 167.154 77.4752 167.209 77.3432 167.165C77.2112 167.143 77.1122 167.132 77.0462 167.132C76.9362 167.132 76.8262 167.176 76.7162 167.264C76.6062 167.352 76.4962 167.33 76.3862 167.198C76.2322 167.154 76.0672 167.165 75.8912 167.231C75.7372 167.297 75.6162 167.22 75.5282 167C75.5282 166.824 75.5392 166.659 75.5612 166.505C75.6052 166.329 75.5942 166.153 75.5282 165.977C75.5722 165.845 75.5722 165.702 75.5282 165.548C75.5062 165.372 75.5062 165.207 75.5282 165.053C75.5282 164.833 75.5172 164.613 75.4952 164.393C75.4952 164.173 75.5172 163.964 75.5612 163.766C75.5172 163.678 75.5172 163.59 75.5612 163.502C75.6052 163.392 75.6052 163.293 75.5612 163.205C75.7372 163.095 75.9132 163.062 76.0892 163.106C76.2872 163.15 76.4742 163.161 76.6502 163.139C76.9802 163.073 77.3212 163.062 77.6732 163.106C78.0472 163.15 78.4212 163.15 78.7952 163.106C78.9712 163.15 79.1142 163.172 79.2242 163.172C79.3562 163.15 79.5102 163.139 79.6862 163.139C79.9722 163.161 80.2472 163.172 80.5112 163.172C80.7752 163.15 81.0612 163.139 81.3692 163.139H81.4022ZM78.0362 144.494C78.1462 144.45 78.2562 144.45 78.3662 144.494C78.4982 144.538 78.6192 144.538 78.7292 144.494H83.9762C84.0422 144.582 84.0642 144.681 84.0422 144.791C84.0422 144.879 84.0532 144.967 84.0752 145.055C84.0532 145.407 84.0752 145.77 84.1412 146.144C84.2292 146.518 84.2182 146.87 84.1082 147.2C84.0642 147.31 84.0532 147.42 84.0752 147.53C84.0972 147.64 84.1082 147.75 84.1082 147.86C84.1302 147.97 84.1302 148.069 84.1082 148.157C84.0862 148.245 84.0202 148.322 83.9102 148.388C83.7562 148.3 83.5802 148.256 83.3822 148.256C83.2062 148.256 83.0302 148.311 82.8542 148.421C82.3922 148.245 82.0182 148.168 81.7322 148.19C81.4462 148.212 81.0502 148.212 80.5442 148.19C80.2142 148.168 79.8732 148.168 79.5212 148.19C79.1912 148.19 78.8612 148.168 78.5312 148.124C78.2012 148.146 77.8712 148.179 77.5412 148.223C77.2332 148.267 76.9252 148.267 76.6172 148.223C76.5512 148.267 76.4632 148.289 76.3532 148.289C76.2652 148.289 76.1662 148.3 76.0562 148.322C75.9682 148.322 75.8802 148.344 75.7922 148.388C75.7262 148.41 75.6822 148.487 75.6602 148.619C75.6602 148.663 75.6712 148.718 75.6932 148.784C75.7152 148.85 75.7042 148.905 75.6602 148.949C75.5722 148.949 75.5282 148.905 75.5282 148.817C75.5502 148.707 75.5392 148.63 75.4952 148.586C75.3632 148.41 75.3302 148.223 75.3962 148.025C75.4842 147.827 75.5062 147.64 75.4622 147.464C75.4842 147.046 75.5062 146.617 75.5282 146.177C75.5502 145.737 75.5502 145.297 75.5282 144.857C75.5282 144.791 75.5172 144.714 75.4952 144.626C75.4732 144.538 75.4952 144.472 75.5612 144.428C75.9352 144.472 76.3422 144.483 76.7822 144.461C77.2222 144.439 77.6402 144.45 78.0362 144.494ZM79.1582 153.833C79.5762 153.833 79.9612 153.855 80.3132 153.899C80.6872 153.921 81.0942 153.91 81.5342 153.866C81.6662 153.778 81.7542 153.811 81.7982 153.965C81.8422 154.097 81.8972 154.185 81.9632 154.229C81.9852 154.361 82.0402 154.471 82.1282 154.559C82.1722 154.691 82.1832 154.823 82.1612 154.955C82.1392 155.065 82.1062 155.186 82.0622 155.318C82.0182 155.428 81.9852 155.549 81.9632 155.681C81.9412 155.791 81.9632 155.912 82.0292 156.044C82.0292 156.55 82.0622 157.034 82.1282 157.496C82.0842 157.562 82.0402 157.639 81.9962 157.727C81.9742 157.793 81.9302 157.848 81.8642 157.892C81.7322 157.892 81.6552 157.947 81.6332 158.057C81.6112 158.167 81.5452 158.233 81.4352 158.255C81.3912 158.167 81.3692 158.079 81.3692 157.991C81.3912 157.903 81.3582 157.826 81.2702 157.76C81.0942 157.76 80.9182 157.815 80.7422 157.925C80.5662 158.013 80.4012 157.947 80.2472 157.727C80.1592 157.705 80.0822 157.738 80.0162 157.826C79.9502 157.914 79.8952 157.892 79.8512 157.76C79.6312 157.716 79.4552 157.694 79.3232 157.694C79.1912 157.694 79.0152 157.672 78.7952 157.628C78.7512 157.738 78.7072 157.76 78.6632 157.694C78.6412 157.606 78.5972 157.573 78.5312 157.595C78.0472 157.573 77.6292 157.573 77.2772 157.595C76.9472 157.595 76.5292 157.606 76.0232 157.628C75.9792 157.65 75.9462 157.716 75.9242 157.826C75.9242 157.936 75.9242 158.057 75.9242 158.189C75.9242 158.299 75.9242 158.409 75.9242 158.519C75.9462 158.607 75.9572 158.673 75.9572 158.717C75.9572 158.783 75.9132 158.893 75.8252 159.047C75.7592 159.201 75.6932 159.256 75.6272 159.212C75.5172 159.146 75.4732 159.047 75.4952 158.915C75.5172 158.783 75.5502 158.662 75.5942 158.552C75.6162 158.486 75.6162 158.398 75.5942 158.288C75.5722 158.156 75.5392 158.024 75.4952 157.892C75.4732 157.76 75.4512 157.639 75.4292 157.529C75.4292 157.397 75.4512 157.298 75.4952 157.232C75.4512 157.188 75.4292 157.122 75.4292 157.034C75.4292 156.902 75.4402 156.803 75.4622 156.737C75.4622 156.649 75.4622 156.583 75.4622 156.539C75.4842 156.473 75.4842 156.385 75.4622 156.275L75.5612 153.833C76.0672 153.789 76.4852 153.789 76.8152 153.833C77.1672 153.877 77.5742 153.888 78.0362 153.866C78.2122 153.866 78.3992 153.866 78.5972 153.866C78.7952 153.844 78.9822 153.833 79.1582 153.833ZM103.44 162.578C103.55 162.798 103.649 162.974 103.737 163.106C103.825 163.238 103.913 163.37 104.001 163.502C104.089 163.612 104.177 163.722 104.265 163.832C104.375 163.942 104.507 164.096 104.661 164.294C104.705 164.074 104.749 163.777 104.793 163.403C104.837 163.029 104.793 162.754 104.661 162.578C104.595 162.512 104.54 162.391 104.496 162.215C104.474 162.039 104.452 161.852 104.43 161.654C104.408 161.456 104.386 161.269 104.364 161.093C104.342 160.917 104.309 160.785 104.265 160.697C104.155 160.477 104.012 160.224 103.836 159.938C103.682 159.63 103.55 159.355 103.44 159.113C103.44 159.091 103.429 159.102 103.407 159.146C103.407 159.19 103.396 159.245 103.374 159.311C103.352 159.377 103.33 159.432 103.308 159.476C103.308 159.52 103.308 159.542 103.308 159.542C103.264 159.432 103.242 159.3 103.242 159.146C103.264 158.97 103.253 158.827 103.209 158.717C103.121 158.497 102.978 158.299 102.78 158.123C102.582 157.947 102.428 157.76 102.318 157.562L101.955 156.968C101.801 156.792 101.68 156.616 101.592 156.44C101.504 156.264 101.394 156.077 101.262 155.879C101.196 155.769 101.141 155.648 101.097 155.516C101.053 155.384 100.998 155.263 100.932 155.153C100.888 154.823 100.877 154.515 100.899 154.229C100.943 153.943 100.943 153.646 100.899 153.338C101.009 152.766 101.042 152.161 100.998 151.523C100.976 150.885 100.987 150.28 101.031 149.708C100.965 149.62 100.954 149.51 100.998 149.378C101.064 149.246 101.053 149.125 100.965 149.015C101.009 148.883 101.009 148.751 100.965 148.619C100.943 148.465 100.932 148.322 100.932 148.19C101.02 147.992 101.042 147.805 100.998 147.629C100.954 147.431 100.932 147.233 100.932 147.035C100.954 147.013 100.965 146.958 100.965 146.87L100.932 146.837C100.954 146.507 100.965 146.199 100.965 145.913C100.987 145.627 100.954 145.341 100.866 145.055C100.822 144.945 100.855 144.857 100.965 144.791C101.185 144.747 101.372 144.725 101.526 144.725C101.636 144.725 101.746 144.725 101.856 144.725C101.966 144.703 102.076 144.681 102.186 144.659C102.406 144.681 102.615 144.681 102.813 144.659C103.011 144.615 103.209 144.626 103.407 144.692C103.649 144.67 103.858 144.659 104.034 144.659C104.232 144.637 104.452 144.604 104.694 144.56C104.804 144.582 104.848 144.637 104.826 144.725C104.826 144.791 104.848 144.846 104.892 144.89C104.936 145.396 104.925 145.891 104.859 146.375C104.815 146.837 104.826 147.321 104.892 147.827C104.87 147.827 104.859 147.838 104.859 147.86C104.881 148.058 104.903 148.256 104.925 148.454C104.947 148.63 104.936 148.828 104.892 149.048C105.046 149.158 105.046 149.257 104.892 149.345C104.848 149.477 104.881 149.598 104.991 149.708C105.101 149.818 105.09 149.939 104.958 150.071C104.98 150.225 104.98 150.379 104.958 150.533C104.958 150.687 105.002 150.83 105.09 150.962C105.002 151.116 104.958 151.292 104.958 151.49C104.958 151.578 104.947 151.666 104.925 151.754C104.925 151.82 104.914 151.908 104.892 152.018C104.914 152.128 104.914 152.249 104.892 152.381C104.892 152.513 104.881 152.645 104.859 152.777C104.859 153.195 104.881 153.602 104.925 153.998C104.991 154.394 105.002 154.801 104.958 155.219C104.98 155.395 104.991 155.582 104.991 155.78C105.013 155.978 105.024 156.176 105.024 156.374C105.024 156.572 105.024 156.77 105.024 156.968C105.046 157.166 105.068 157.375 105.09 157.595C105.024 157.771 105.002 157.947 105.024 158.123C105.068 158.277 105.046 158.442 104.958 158.618C104.958 158.75 104.936 158.893 104.892 159.047C104.87 159.179 104.892 159.3 104.958 159.41C104.936 159.63 104.947 159.85 104.991 160.07C105.035 160.268 105.035 160.455 104.991 160.631C105.013 160.939 105.035 161.335 105.057 161.819C105.079 162.303 105.068 162.699 105.024 163.007C105.002 163.095 104.991 163.227 104.991 163.403C105.013 163.557 105.024 163.722 105.024 163.898C105.024 164.052 105.013 164.206 104.991 164.36C104.969 164.514 104.925 164.624 104.859 164.69C104.837 164.756 104.826 164.888 104.826 165.086C104.848 165.284 104.859 165.504 104.859 165.746V166.373C104.859 166.549 104.837 166.681 104.793 166.769C104.771 166.813 104.76 166.923 104.76 167.099C104.782 167.275 104.793 167.451 104.793 167.627C104.815 167.803 104.815 167.957 104.793 168.089C104.793 168.243 104.749 168.309 104.661 168.287C104.595 168.265 104.54 168.155 104.496 167.957C104.452 167.759 104.452 167.594 104.496 167.462C104.54 167.352 104.496 167.231 104.364 167.099C104.232 167.055 104.111 167.088 104.001 167.198C103.979 167.242 103.979 167.396 104.001 167.66C104.023 167.946 104.034 168.232 104.034 168.518C104.056 168.804 104.045 169.046 104.001 169.244C103.979 169.464 103.902 169.53 103.77 169.442C103.704 169.42 103.671 169.288 103.671 169.046C103.671 168.76 103.682 168.408 103.704 167.99C103.726 167.594 103.649 167.308 103.473 167.132H103.242C103.176 167.132 103.143 167.165 103.143 167.231C103.143 167.253 103.154 167.319 103.176 167.429C103.198 167.539 103.209 167.649 103.209 167.759C103.209 167.891 103.198 168.001 103.176 168.089C103.154 168.199 103.11 168.254 103.044 168.254C102.934 168.254 102.857 168.188 102.813 168.056C102.791 167.924 102.78 167.77 102.78 167.594C102.78 167.484 102.78 167.385 102.78 167.297C102.802 167.209 102.813 167.143 102.813 167.099C102.769 167.143 102.681 167.165 102.549 167.165C102.439 167.165 102.362 167.154 102.318 167.132C102.252 167.11 102.131 167.099 101.955 167.099H101.592C101.438 167.099 101.372 167.088 101.394 167.066C101.394 167.066 101.383 167.077 101.361 167.099L99.8105 165.02L99.1835 164.162C99.0735 163.898 98.9195 163.667 98.7215 163.469C98.5895 163.249 98.4465 163.04 98.2925 162.842C98.1605 162.644 98.0395 162.435 97.9295 162.215C97.7755 162.171 97.6875 162.094 97.6655 161.984C97.6435 161.874 97.5775 161.786 97.4675 161.72C97.4895 161.654 97.4675 161.61 97.4015 161.588C97.3575 161.544 97.3135 161.5 97.2695 161.456C97.2255 161.434 97.1925 161.434 97.1705 161.456C97.1485 161.478 97.1265 161.467 97.1045 161.423C97.1045 161.247 97.0385 161.082 96.9065 160.928C96.7745 160.752 96.6535 160.576 96.5435 160.4C96.4335 160.158 96.2795 159.927 96.0815 159.707C95.8835 159.487 95.7295 159.256 95.6195 159.014C95.3555 158.706 95.1135 158.387 94.8935 158.057C94.6955 157.727 94.4425 157.408 94.1345 157.1C93.8705 156.682 93.6175 156.264 93.3755 155.846C93.1555 155.428 92.8915 155.021 92.5835 154.625C92.5835 154.515 92.5175 154.427 92.3855 154.361C92.2755 154.295 92.2315 154.207 92.2535 154.097C92.0115 153.811 91.7915 153.525 91.5935 153.239C91.4175 152.931 91.2085 152.634 90.9665 152.348C90.8345 152.172 90.6585 152.007 90.4385 151.853C90.2405 151.677 90.1085 151.49 90.0425 151.292C89.8885 151.072 89.7565 150.863 89.6465 150.665C89.5585 150.445 89.4595 150.214 89.3495 149.972C89.0415 149.62 88.7775 149.257 88.5575 148.883C88.3595 148.509 88.1065 148.168 87.7985 147.86C87.6665 147.75 87.5785 147.629 87.5345 147.497C87.5125 147.365 87.4465 147.244 87.3365 147.134C87.2705 147.068 87.2375 147.013 87.2375 146.969C87.2595 146.925 87.2815 146.881 87.3035 146.837C87.3475 146.793 87.3695 146.749 87.3695 146.705C87.3915 146.639 87.3695 146.551 87.3035 146.441C87.2375 146.353 87.2155 146.254 87.2375 146.144C87.2595 146.034 87.2815 145.924 87.3035 145.814C87.3475 145.682 87.3805 145.561 87.4025 145.451C87.4245 145.319 87.4025 145.209 87.3365 145.121C87.2705 145.033 87.2375 144.923 87.2375 144.791C87.2375 144.659 87.2925 144.571 87.4025 144.527C87.6885 144.417 87.8315 144.362 87.8315 144.362C87.8755 144.362 87.8865 144.373 87.8645 144.395C87.8425 144.417 87.8315 144.439 87.8315 144.461C87.8315 144.483 87.8535 144.494 87.8975 144.494C87.9635 144.494 88.0955 144.472 88.2935 144.428C88.6015 144.494 88.9315 144.483 89.2835 144.395C89.6575 144.307 89.9875 144.296 90.2735 144.362C90.4495 144.428 90.5815 144.516 90.6695 144.626C90.7795 144.714 90.8675 144.813 90.9335 144.923C90.9995 145.033 91.0765 145.143 91.1645 145.253C91.2525 145.363 91.3625 145.462 91.4945 145.55C91.6045 145.638 91.7145 145.715 91.8245 145.781C91.9345 145.847 91.9455 145.935 91.8575 146.045C91.8575 146.155 91.8905 146.243 91.9565 146.309C92.0445 146.353 92.0885 146.419 92.0885 146.507C92.2645 146.617 92.3745 146.76 92.4185 146.936C92.4845 147.09 92.5945 147.233 92.7485 147.365C92.8585 147.629 93.0235 147.871 93.2435 148.091C93.4855 148.289 93.6505 148.542 93.7385 148.85C93.9365 149.004 94.0685 149.191 94.1345 149.411C94.2005 149.609 94.3215 149.774 94.4975 149.906C94.6075 150.104 94.7175 150.313 94.8275 150.533C94.9595 150.731 95.1245 150.918 95.3225 151.094C95.3225 151.182 95.3555 151.259 95.4215 151.325C95.5095 151.369 95.5535 151.435 95.5535 151.523C95.7955 151.721 95.9715 151.941 96.0815 152.183C96.1915 152.425 96.3235 152.667 96.4775 152.909C96.5875 152.975 96.6425 153.063 96.6425 153.173C96.6645 153.261 96.7415 153.327 96.8735 153.371C97.0275 153.679 97.2145 153.965 97.4345 154.229C97.6765 154.471 97.8525 154.746 97.9625 155.054C98.0505 155.164 98.1385 155.285 98.2265 155.417C98.3365 155.527 98.4245 155.637 98.4905 155.747C98.6445 156.055 98.8315 156.341 99.0515 156.605C99.2935 156.847 99.4695 157.122 99.5795 157.43C99.7555 157.54 99.8655 157.683 99.9095 157.859C99.9535 158.013 100.074 158.145 100.272 158.255C100.294 158.387 100.36 158.497 100.47 158.585C100.602 158.673 100.69 158.772 100.734 158.882C100.888 158.97 100.976 159.069 100.998 159.179C101.042 159.289 101.13 159.388 101.262 159.476C101.306 159.542 101.35 159.619 101.394 159.707C101.46 159.773 101.482 159.839 101.46 159.905C101.504 160.059 101.592 160.169 101.724 160.235C101.856 160.301 101.933 160.411 101.955 160.565C102.197 160.917 102.428 161.269 102.648 161.621C102.868 161.951 103.132 162.27 103.44 162.578ZM87.6005 151.193C87.6005 151.413 87.6885 151.589 87.8645 151.721C88.0625 151.831 88.1615 151.996 88.1615 152.216C88.2935 152.326 88.3815 152.447 88.4255 152.579C88.4695 152.711 88.5465 152.832 88.6565 152.942C88.7445 153.052 88.8105 153.173 88.8545 153.305C88.9205 153.437 88.9975 153.558 89.0855 153.668C89.1955 153.734 89.2615 153.822 89.2835 153.932C89.3055 154.02 89.3715 154.097 89.4815 154.163C89.5035 154.273 89.5585 154.361 89.6465 154.427C89.7565 154.493 89.8115 154.581 89.8115 154.691C89.9215 154.889 90.0425 155.087 90.1745 155.285C90.3285 155.483 90.4275 155.703 90.4715 155.945C90.5595 156.165 90.6915 156.341 90.8675 156.473C91.0655 156.605 91.1865 156.792 91.2305 157.034C91.3405 157.166 91.3735 157.364 91.3295 157.628C91.2855 157.892 91.2635 158.101 91.2635 158.255V158.981C91.2635 159.091 91.2635 159.212 91.2635 159.344C91.2855 159.454 91.3075 159.575 91.3295 159.707C91.3075 159.861 91.2965 160.015 91.2965 160.169C91.2965 160.323 91.2965 160.477 91.2965 160.631C91.2965 160.785 91.2855 160.939 91.2635 161.093C91.2635 161.225 91.2525 161.368 91.2305 161.522C91.2965 161.632 91.2965 161.753 91.2305 161.885C91.1645 161.995 91.1535 162.105 91.1975 162.215C91.1535 162.457 91.1535 162.677 91.1975 162.875C91.2415 163.073 91.2305 163.293 91.1645 163.535C91.2525 163.887 91.2855 164.261 91.2635 164.657C91.2415 165.053 91.1975 165.438 91.1315 165.812C91.1975 165.988 91.2195 166.164 91.1975 166.34C91.1975 166.494 91.1975 166.659 91.1975 166.835C90.9775 166.923 90.7685 166.912 90.5705 166.802C90.3945 166.67 90.1745 166.648 89.9105 166.736C89.8665 166.846 89.7785 166.901 89.6465 166.901C89.5145 166.879 89.4155 166.923 89.3495 167.033C89.2175 166.857 89.0525 166.78 88.8545 166.802C88.6565 166.824 88.4475 166.835 88.2275 166.835C88.0955 166.879 87.9855 166.901 87.8975 166.901C87.7875 166.901 87.6995 166.934 87.6335 167C87.5895 167.154 87.5565 167.319 87.5345 167.495C87.5125 167.693 87.4795 167.869 87.4355 168.023C87.4135 168.089 87.3695 168.089 87.3035 168.023C87.2595 167.979 87.2375 167.935 87.2375 167.891C87.2155 167.847 87.2045 167.792 87.2045 167.726C87.2265 167.66 87.2375 167.605 87.2375 167.561C87.1935 167.385 87.1715 167.242 87.1715 167.132C87.1715 167 87.1165 166.879 87.0065 166.769C87.1385 166.549 87.2045 166.296 87.2045 166.01C87.3145 165.636 87.3585 165.262 87.3365 164.888C87.3145 164.492 87.3255 164.085 87.3695 163.667C87.2595 163.337 87.2265 163.007 87.2705 162.677C87.3365 162.347 87.3365 161.995 87.2705 161.621C87.3145 160.411 87.3035 159.256 87.2375 158.156C87.1935 157.056 87.1935 155.901 87.2375 154.691C87.2155 154.625 87.2045 154.504 87.2045 154.328C87.1605 154.02 87.1495 153.701 87.1715 153.371C87.1935 153.041 87.1935 152.711 87.1715 152.381C87.1715 152.315 87.1715 152.238 87.1715 152.15C87.1935 152.062 87.2045 151.985 87.2045 151.919C87.2265 151.721 87.2265 151.534 87.2045 151.358C87.1825 151.182 87.1605 150.995 87.1385 150.797C87.1605 150.753 87.1825 150.742 87.2045 150.764C87.2485 150.764 87.2815 150.775 87.3035 150.797C87.2375 150.907 87.2595 150.984 87.3695 151.028C87.4795 151.072 87.5565 151.127 87.6005 151.193ZM101.427 167.033H101.46C101.504 167.033 101.537 167.022 101.559 167H101.46L101.427 167.033ZM122.815 144.725C122.705 145.209 122.65 145.66 122.65 146.078C122.65 146.32 122.65 146.562 122.65 146.804C122.65 147.024 122.661 147.255 122.683 147.497C122.793 147.893 122.826 148.311 122.782 148.751C122.716 148.817 122.639 148.85 122.551 148.85C122.485 148.828 122.408 148.795 122.32 148.751C122.254 148.707 122.177 148.674 122.089 148.652C122.001 148.63 121.913 148.652 121.825 148.718C121.715 148.718 121.605 148.685 121.495 148.619C121.407 148.553 121.308 148.52 121.198 148.52C121.088 148.542 121.033 148.63 121.033 148.784C121.055 148.916 121.011 148.971 120.901 148.949C120.791 148.905 120.692 148.817 120.604 148.685C120.538 148.553 120.45 148.465 120.34 148.421C119.878 148.377 119.438 148.366 119.02 148.388C118.624 148.41 118.162 148.421 117.634 148.421C117.524 148.487 117.469 148.597 117.469 148.751C117.491 148.905 117.436 148.96 117.304 148.916C117.238 148.872 117.172 148.828 117.106 148.784C117.062 148.718 116.996 148.663 116.908 148.619C116.864 148.663 116.831 148.729 116.809 148.817C116.809 148.905 116.787 148.938 116.743 148.916C116.655 148.872 116.622 148.773 116.644 148.619C116.666 148.465 116.6 148.377 116.446 148.355C116.38 148.399 116.314 148.443 116.248 148.487C116.204 148.509 116.16 148.575 116.116 148.685C116.138 148.773 116.127 148.894 116.083 149.048H116.017C115.973 148.938 115.951 148.828 115.951 148.718C115.973 148.586 115.918 148.498 115.786 148.454C115.522 148.388 115.313 148.366 115.159 148.388L114.961 148.586C114.917 148.454 114.829 148.366 114.697 148.322L111.397 148.355C111.177 148.421 111.045 148.564 111.001 148.784C110.979 149.004 110.968 149.202 110.968 149.378H110.935C110.935 148.982 110.836 148.685 110.638 148.487C110.594 148.465 110.539 148.487 110.473 148.553C110.429 148.619 110.385 148.663 110.341 148.685C110.319 148.795 110.319 148.938 110.341 149.114C110.363 149.268 110.319 149.312 110.209 149.246C110.099 149.202 110.066 149.114 110.11 148.982C110.176 148.85 110.154 148.729 110.044 148.619C109.978 148.575 109.912 148.575 109.846 148.619C109.802 148.663 109.758 148.707 109.714 148.751C109.67 148.905 109.681 149.103 109.747 149.345C109.813 149.565 109.78 149.653 109.648 149.609C109.56 149.565 109.516 149.488 109.516 149.378C109.516 149.268 109.516 149.158 109.516 149.048C109.516 148.938 109.505 148.828 109.483 148.718C109.461 148.608 109.384 148.531 109.252 148.487C109.032 148.333 108.79 148.278 108.526 148.322C108.284 148.344 108.042 148.322 107.8 148.256C107.756 148.102 107.767 147.97 107.833 147.86C107.899 147.75 107.899 147.618 107.833 147.464C107.833 147.002 107.822 146.529 107.8 146.045C107.778 145.539 107.8 145.033 107.866 144.527L107.998 144.428C108.438 144.516 108.889 144.549 109.351 144.527C109.813 144.483 110.264 144.505 110.704 144.593C111.166 144.483 111.65 144.45 112.156 144.494C112.684 144.538 113.201 144.538 113.707 144.494C113.795 144.406 113.894 144.362 114.004 144.362C114.18 144.362 114.356 144.395 114.532 144.461C114.708 144.505 114.873 144.472 115.027 144.362C116.347 144.34 117.612 144.373 118.822 144.461C120.032 144.527 121.319 144.549 122.683 144.527L122.815 144.725ZM117.337 150.731C117.227 151.281 117.183 151.864 117.205 152.48C117.227 153.074 117.216 153.668 117.172 154.262C117.128 155.01 117.139 155.769 117.205 156.539C117.293 157.309 117.315 158.079 117.271 158.849C117.315 159.091 117.315 159.322 117.271 159.542C117.249 159.762 117.227 159.993 117.205 160.235C117.227 160.411 117.238 160.565 117.238 160.697C117.238 160.807 117.238 160.906 117.238 160.994C117.238 161.236 117.227 161.434 117.205 161.588C117.205 161.72 117.227 162.028 117.271 162.512C117.293 162.754 117.293 162.985 117.271 163.205C117.271 163.403 117.326 163.59 117.436 163.766L117.403 164.162C117.315 164.25 117.271 164.349 117.271 164.459C117.271 164.635 117.293 164.789 117.337 164.921C117.381 165.053 117.37 165.207 117.304 165.383C117.304 165.471 117.293 165.57 117.271 165.68C117.271 165.768 117.26 165.867 117.238 165.977H117.205C117.073 166.329 117.062 166.659 117.172 166.967C117.282 167.253 117.315 167.583 117.271 167.957C117.315 168.155 117.282 168.364 117.172 168.584C117.084 168.804 117.095 169.013 117.205 169.211C117.249 169.277 117.26 169.365 117.238 169.475C117.238 169.585 117.183 169.662 117.073 169.706C116.963 169.75 116.908 169.728 116.908 169.64C116.908 169.552 116.897 169.497 116.875 169.475L116.578 167.528C116.512 167.418 116.424 167.33 116.314 167.264C116.226 167.198 116.127 167.198 116.017 167.264C115.885 167.352 115.742 167.385 115.588 167.363C115.456 167.341 115.335 167.319 115.225 167.297C115.137 167.297 115.071 167.33 115.027 167.396C115.005 167.462 115.027 167.638 115.093 167.924C115.005 167.858 114.961 167.748 114.961 167.594C114.983 167.44 114.906 167.341 114.73 167.297C114.598 167.363 114.499 167.352 114.433 167.264C114.367 167.176 114.279 167.121 114.169 167.099C113.993 167.055 113.817 167.055 113.641 167.099C113.487 167.143 113.355 167.132 113.245 167.066C113.245 166.956 113.256 166.846 113.278 166.736C113.322 166.604 113.322 166.483 113.278 166.373C113.278 165.537 113.289 164.833 113.311 164.261C113.333 163.667 113.344 163.106 113.344 162.578C113.344 162.05 113.333 161.5 113.311 160.928C113.311 160.334 113.278 159.63 113.212 158.816C113.322 158.728 113.333 158.651 113.245 158.585C113.179 158.519 113.179 158.464 113.245 158.42C113.201 158.024 113.19 157.628 113.212 157.232C113.256 156.814 113.267 156.396 113.245 155.978H113.278C113.344 155.846 113.344 155.714 113.278 155.582H113.245C113.355 155.538 113.377 155.494 113.311 155.45C113.245 155.384 113.256 155.329 113.344 155.285C113.388 155.021 113.377 154.823 113.311 154.691C113.245 154.537 113.267 154.35 113.377 154.13C113.267 153.976 113.234 153.8 113.278 153.602C113.344 153.404 113.311 153.239 113.179 153.107C113.201 152.689 113.19 152.293 113.146 151.919C113.102 151.523 113.146 151.127 113.278 150.731C113.432 150.709 113.586 150.698 113.74 150.698C113.916 150.698 114.092 150.698 114.268 150.698C114.642 150.698 114.994 150.665 115.324 150.599C115.588 150.687 115.907 150.731 116.281 150.731C116.677 150.709 117.029 150.709 117.337 150.731ZM120.274 163.502C120.318 163.612 120.285 163.678 120.175 163.7C120.087 163.722 120.043 163.788 120.043 163.898H119.218C119.438 163.788 119.625 163.711 119.779 163.667C119.933 163.601 120.098 163.546 120.274 163.502ZM120.637 152.48C120.659 152.37 120.681 152.26 120.703 152.15C120.725 152.018 120.758 151.93 120.802 151.886C120.824 152.106 120.835 152.337 120.835 152.579C120.857 152.799 120.868 153.03 120.868 153.272C120.868 153.514 120.868 153.756 120.868 153.998C120.868 154.218 120.857 154.438 120.835 154.658C120.835 155.098 120.824 155.549 120.802 156.011C120.78 156.451 120.791 156.869 120.835 157.265C120.791 157.441 120.769 157.65 120.769 157.892C120.791 158.134 120.758 158.266 120.67 158.288C120.604 157.562 120.582 156.792 120.604 155.978C120.648 155.142 120.648 154.339 120.604 153.569C120.648 153.415 120.659 153.239 120.637 153.041C120.637 152.821 120.637 152.634 120.637 152.48ZM130.162 144.527C130.294 144.703 130.316 144.89 130.228 145.088C130.162 145.264 130.14 145.451 130.162 145.649C130.162 146.111 130.151 146.606 130.129 147.134C130.129 147.64 130.151 148.124 130.195 148.586C130.129 148.674 130.118 148.795 130.162 148.949C130.14 149.059 130.129 149.224 130.129 149.444C130.129 149.598 130.151 149.741 130.195 149.873C130.151 150.181 130.14 150.511 130.162 150.863C130.184 151.215 130.184 151.567 130.162 151.919V153.107C130.118 153.679 130.107 154.24 130.129 154.79C130.151 155.318 130.14 155.857 130.096 156.407C130.14 156.429 130.151 156.451 130.129 156.473C130.107 156.495 130.118 156.506 130.162 156.506C130.162 157.628 130.129 158.728 130.063 159.806C130.041 160.114 130.041 160.411 130.063 160.697C130.107 160.961 130.107 161.247 130.063 161.555C130.107 161.621 130.107 161.698 130.063 161.786C130.041 161.852 130.052 161.918 130.096 161.984C130.074 162.402 130.052 162.809 130.03 163.205C130.008 163.579 130.019 163.964 130.063 164.36C130.063 164.47 130.063 164.58 130.063 164.69C130.085 164.8 130.074 164.921 130.03 165.053C130.052 165.405 130.085 165.735 130.129 166.043C130.173 166.351 130.14 166.67 130.03 167L129.634 167.231C129.458 167.165 129.249 167.132 129.007 167.132C128.787 167.132 128.589 167.187 128.413 167.297C128.303 167.297 128.215 167.264 128.149 167.198C128.083 167.132 128.006 167.088 127.918 167.066C127.632 167.022 127.368 167.033 127.126 167.099C126.906 167.187 126.675 167.231 126.433 167.231C126.191 167.165 126.059 167.022 126.037 166.802C126.037 166.56 126.015 166.34 125.971 166.142C126.037 165.966 126.059 165.779 126.037 165.581C126.037 165.361 126.092 165.174 126.202 165.02C126.224 164.778 126.235 164.547 126.235 164.327C126.235 164.107 126.235 163.887 126.235 163.667C126.235 163.447 126.235 163.227 126.235 163.007C126.257 162.765 126.279 162.523 126.301 162.281C126.191 161.951 126.158 161.61 126.202 161.258C126.268 160.906 126.279 160.543 126.235 160.169C126.191 159.905 126.18 159.652 126.202 159.41C126.224 159.146 126.213 158.893 126.169 158.651C126.235 158.123 126.268 157.606 126.268 157.1V154.196C126.158 154.086 126.147 153.976 126.235 153.866C126.323 153.756 126.323 153.635 126.235 153.503C126.301 152.865 126.301 152.216 126.235 151.556C126.169 151.534 126.158 151.512 126.202 151.49C126.246 151.468 126.246 151.435 126.202 151.391C126.268 151.149 126.29 150.863 126.268 150.533C126.246 150.181 126.246 149.884 126.268 149.642C126.312 149.4 126.323 149.158 126.301 148.916C126.301 148.674 126.301 148.432 126.301 148.19C126.257 148.058 126.246 147.915 126.268 147.761C126.312 147.585 126.312 147.431 126.268 147.299C126.312 146.903 126.323 146.507 126.301 146.111C126.279 145.715 126.246 145.308 126.202 144.89C126.246 144.824 126.257 144.758 126.235 144.692C126.235 144.604 126.279 144.538 126.367 144.494C126.939 144.538 127.544 144.549 128.182 144.527C128.842 144.483 129.458 144.483 130.03 144.527H130.162ZM138.379 163.139V163.106C138.929 163.172 139.38 163.194 139.732 163.172C140.106 163.15 140.568 163.139 141.118 163.139C141.25 163.249 141.305 163.381 141.283 163.535C141.261 163.689 141.283 163.832 141.349 163.964C141.393 164.184 141.415 164.404 141.415 164.624C141.437 164.844 141.393 165.053 141.283 165.251C141.327 165.383 141.338 165.515 141.316 165.647C141.294 165.757 141.305 165.867 141.349 165.977C141.305 166.175 141.305 166.384 141.349 166.604C141.393 166.824 141.316 167.011 141.118 167.165C140.942 166.989 140.733 166.923 140.491 166.967C140.271 167.011 140.051 167.022 139.831 167C139.391 166.956 139.039 166.934 138.775 166.934C138.533 166.912 138.192 166.923 137.752 166.967C137.598 167.055 137.422 167.088 137.224 167.066C137.026 167.044 136.839 167.044 136.663 167.066C136.333 166.934 135.981 166.89 135.607 166.934C135.255 166.978 134.903 167 134.551 167C134.529 167.154 134.452 167.209 134.32 167.165C134.188 167.143 134.089 167.132 134.023 167.132C133.913 167.132 133.803 167.176 133.693 167.264C133.583 167.352 133.473 167.33 133.363 167.198C133.209 167.154 133.044 167.165 132.868 167.231C132.714 167.297 132.593 167.22 132.505 167C132.505 166.824 132.516 166.659 132.538 166.505C132.582 166.329 132.571 166.153 132.505 165.977C132.549 165.845 132.549 165.702 132.505 165.548C132.483 165.372 132.483 165.207 132.505 165.053C132.505 164.833 132.494 164.613 132.472 164.393C132.472 164.173 132.494 163.964 132.538 163.766C132.494 163.678 132.494 163.59 132.538 163.502C132.582 163.392 132.582 163.293 132.538 163.205C132.714 163.095 132.89 163.062 133.066 163.106C133.264 163.15 133.451 163.161 133.627 163.139C133.957 163.073 134.298 163.062 134.65 163.106C135.024 163.15 135.398 163.15 135.772 163.106C135.948 163.15 136.091 163.172 136.201 163.172C136.333 163.15 136.487 163.139 136.663 163.139C136.949 163.161 137.224 163.172 137.488 163.172C137.752 163.15 138.038 163.139 138.346 163.139H138.379ZM135.013 144.494C135.123 144.45 135.233 144.45 135.343 144.494C135.475 144.538 135.596 144.538 135.706 144.494H140.953C141.019 144.582 141.041 144.681 141.019 144.791C141.019 144.879 141.03 144.967 141.052 145.055C141.03 145.407 141.052 145.77 141.118 146.144C141.206 146.518 141.195 146.87 141.085 147.2C141.041 147.31 141.03 147.42 141.052 147.53C141.074 147.64 141.085 147.75 141.085 147.86C141.107 147.97 141.107 148.069 141.085 148.157C141.063 148.245 140.997 148.322 140.887 148.388C140.733 148.3 140.557 148.256 140.359 148.256C140.183 148.256 140.007 148.311 139.831 148.421C139.369 148.245 138.995 148.168 138.709 148.19C138.423 148.212 138.027 148.212 137.521 148.19C137.191 148.168 136.85 148.168 136.498 148.19C136.168 148.19 135.838 148.168 135.508 148.124C135.178 148.146 134.848 148.179 134.518 148.223C134.21 148.267 133.902 148.267 133.594 148.223C133.528 148.267 133.44 148.289 133.33 148.289C133.242 148.289 133.143 148.3 133.033 148.322C132.945 148.322 132.857 148.344 132.769 148.388C132.703 148.41 132.659 148.487 132.637 148.619C132.637 148.663 132.648 148.718 132.67 148.784C132.692 148.85 132.681 148.905 132.637 148.949C132.549 148.949 132.505 148.905 132.505 148.817C132.527 148.707 132.516 148.63 132.472 148.586C132.34 148.41 132.307 148.223 132.373 148.025C132.461 147.827 132.483 147.64 132.439 147.464C132.461 147.046 132.483 146.617 132.505 146.177C132.527 145.737 132.527 145.297 132.505 144.857C132.505 144.791 132.494 144.714 132.472 144.626C132.45 144.538 132.472 144.472 132.538 144.428C132.912 144.472 133.319 144.483 133.759 144.461C134.199 144.439 134.617 144.45 135.013 144.494ZM136.135 153.833C136.553 153.833 136.938 153.855 137.29 153.899C137.664 153.921 138.071 153.91 138.511 153.866C138.643 153.778 138.731 153.811 138.775 153.965C138.819 154.097 138.874 154.185 138.94 154.229C138.962 154.361 139.017 154.471 139.105 154.559C139.149 154.691 139.16 154.823 139.138 154.955C139.116 155.065 139.083 155.186 139.039 155.318C138.995 155.428 138.962 155.549 138.94 155.681C138.918 155.791 138.94 155.912 139.006 156.044C139.006 156.55 139.039 157.034 139.105 157.496C139.061 157.562 139.017 157.639 138.973 157.727C138.951 157.793 138.907 157.848 138.841 157.892C138.709 157.892 138.632 157.947 138.61 158.057C138.588 158.167 138.522 158.233 138.412 158.255C138.368 158.167 138.346 158.079 138.346 157.991C138.368 157.903 138.335 157.826 138.247 157.76C138.071 157.76 137.895 157.815 137.719 157.925C137.543 158.013 137.378 157.947 137.224 157.727C137.136 157.705 137.059 157.738 136.993 157.826C136.927 157.914 136.872 157.892 136.828 157.76C136.608 157.716 136.432 157.694 136.3 157.694C136.168 157.694 135.992 157.672 135.772 157.628C135.728 157.738 135.684 157.76 135.64 157.694C135.618 157.606 135.574 157.573 135.508 157.595C135.024 157.573 134.606 157.573 134.254 157.595C133.924 157.595 133.506 157.606 133 157.628C132.956 157.65 132.923 157.716 132.901 157.826C132.901 157.936 132.901 158.057 132.901 158.189C132.901 158.299 132.901 158.409 132.901 158.519C132.923 158.607 132.934 158.673 132.934 158.717C132.934 158.783 132.89 158.893 132.802 159.047C132.736 159.201 132.67 159.256 132.604 159.212C132.494 159.146 132.45 159.047 132.472 158.915C132.494 158.783 132.527 158.662 132.571 158.552C132.593 158.486 132.593 158.398 132.571 158.288C132.549 158.156 132.516 158.024 132.472 157.892C132.45 157.76 132.428 157.639 132.406 157.529C132.406 157.397 132.428 157.298 132.472 157.232C132.428 157.188 132.406 157.122 132.406 157.034C132.406 156.902 132.417 156.803 132.439 156.737C132.439 156.649 132.439 156.583 132.439 156.539C132.461 156.473 132.461 156.385 132.439 156.275L132.538 153.833C133.044 153.789 133.462 153.789 133.792 153.833C134.144 153.877 134.551 153.888 135.013 153.866C135.189 153.866 135.376 153.866 135.574 153.866C135.772 153.844 135.959 153.833 136.135 153.833ZM155.5 158.057C155.456 158.101 155.456 158.145 155.5 158.189C155.698 158.431 155.874 158.706 156.028 159.014C156.204 159.3 156.38 159.564 156.556 159.806C156.732 160.07 156.886 160.334 157.018 160.598C157.172 160.862 157.304 161.115 157.414 161.357C157.678 161.731 157.92 162.127 158.14 162.545C158.36 162.941 158.613 163.326 158.899 163.7C158.987 163.942 159.097 164.173 159.229 164.393C159.383 164.613 159.515 164.844 159.625 165.086C159.867 165.394 160.087 165.68 160.285 165.944C160.483 166.186 160.681 166.461 160.879 166.769C160.835 166.879 160.846 166.945 160.912 166.967C160.978 166.989 160.967 167.055 160.879 167.165C160.901 167.429 160.879 167.528 160.813 167.462C160.747 167.396 160.659 167.297 160.549 167.165C160.461 167.033 160.373 166.934 160.285 166.868C160.219 166.78 160.186 166.857 160.186 167.099C160.164 167.187 160.109 167.22 160.021 167.198C159.955 167.198 159.867 167.176 159.757 167.132C159.669 167.11 159.57 167.088 159.46 167.066C159.372 167.066 159.306 167.11 159.262 167.198C159.24 167.286 159.229 167.407 159.229 167.561C159.229 167.715 159.229 167.869 159.229 168.023C159.229 168.199 159.229 168.364 159.229 168.518C159.251 168.672 159.262 168.782 159.262 168.848C159.262 168.914 159.218 168.991 159.13 169.079C159.042 169.167 158.976 169.189 158.932 169.145C158.866 169.101 158.833 168.991 158.833 168.815C158.833 168.661 158.844 168.485 158.866 168.287C158.888 168.111 158.91 167.935 158.932 167.759C158.954 167.605 158.954 167.495 158.932 167.429C158.888 167.297 158.855 167.22 158.833 167.198C158.767 167.11 158.624 167.055 158.404 167.033C158.206 167.011 157.997 167 157.777 167C157.557 167 157.348 167 157.15 167C156.974 166.978 156.864 166.934 156.82 166.868C156.732 166.736 156.666 166.659 156.622 166.637C156.6 166.593 156.578 166.56 156.556 166.538C156.534 166.494 156.501 166.45 156.457 166.406C156.435 166.362 156.391 166.274 156.325 166.142C156.149 165.768 155.907 165.383 155.599 164.987C155.313 164.591 155.071 164.206 154.873 163.832C154.631 163.392 154.389 163.007 154.147 162.677C153.927 162.325 153.674 161.94 153.388 161.522C153.168 161.214 152.97 160.895 152.794 160.565C152.618 160.235 152.431 159.916 152.233 159.608C152.079 159.366 151.892 159.135 151.672 158.915C151.474 158.695 151.364 158.431 151.342 158.123C151.254 158.145 151.21 158.2 151.21 158.288C151.21 158.376 151.177 158.431 151.111 158.453C151.001 158.453 150.946 158.398 150.946 158.288V158.156C150.946 158.134 150.924 158.101 150.88 158.057C150.682 157.947 150.561 157.837 150.517 157.727C150.495 157.595 150.495 157.463 150.517 157.331C150.561 157.199 150.594 157.067 150.616 156.935C150.66 156.781 150.66 156.638 150.616 156.506C150.594 156.396 150.627 156.297 150.715 156.209C150.803 156.121 150.792 156.022 150.682 155.912C150.748 155.67 150.748 155.439 150.682 155.219C150.638 154.999 150.627 154.757 150.649 154.493C150.715 154.383 150.891 154.328 151.177 154.328C151.397 154.328 151.639 154.339 151.903 154.361C152.189 154.383 152.464 154.405 152.728 154.427C152.992 154.449 153.234 154.471 153.454 154.493C153.674 154.493 153.828 154.482 153.916 154.46C154.114 154.416 154.323 154.361 154.543 154.295C154.785 154.229 155.016 154.163 155.236 154.097C155.478 154.009 155.687 153.921 155.863 153.833C156.061 153.745 156.215 153.646 156.325 153.536C156.479 153.404 156.589 153.25 156.655 153.074C156.721 152.898 156.776 152.711 156.82 152.513C156.886 152.205 156.908 151.875 156.886 151.523C156.864 151.171 156.831 150.819 156.787 150.467C156.743 150.093 156.534 149.719 156.16 149.345C155.786 148.971 155.434 148.663 155.104 148.421C155.038 148.377 154.895 148.344 154.675 148.322C154.455 148.278 154.202 148.256 153.916 148.256C153.63 148.234 153.322 148.223 152.992 148.223C152.684 148.201 152.398 148.19 152.134 148.19H151.408C151.364 148.234 151.331 148.366 151.309 148.586C151.309 148.784 151.298 148.993 151.276 149.213C151.276 149.433 151.243 149.62 151.177 149.774C151.133 149.928 151.045 149.972 150.913 149.906C150.891 149.906 150.88 149.851 150.88 149.741V148.718C150.902 148.586 150.88 148.476 150.814 148.388C150.77 148.278 150.77 148.168 150.814 148.058C150.682 148.014 150.605 147.959 150.583 147.893C150.561 147.827 150.55 147.75 150.55 147.662C150.572 147.574 150.583 147.497 150.583 147.431C150.605 147.343 150.583 147.266 150.517 147.2C150.583 147.068 150.605 146.936 150.583 146.804C150.561 146.672 150.528 146.54 150.484 146.408C150.462 146.276 150.44 146.144 150.418 146.012C150.418 145.88 150.451 145.748 150.517 145.616C150.473 145.55 150.451 145.462 150.451 145.352C150.473 145.242 150.506 145.143 150.55 145.055C150.506 144.945 150.506 144.868 150.55 144.824C150.616 144.78 150.649 144.703 150.649 144.593C150.671 144.571 150.737 144.571 150.847 144.593C150.979 144.615 151.056 144.615 151.078 144.593C151.188 144.571 151.287 144.56 151.375 144.56C151.485 144.56 151.595 144.56 151.705 144.56C151.815 144.56 151.914 144.571 152.002 144.593C152.09 144.593 152.178 144.604 152.266 144.626C152.42 144.582 152.596 144.527 152.794 144.461C153.014 144.395 153.212 144.373 153.388 144.395C153.542 144.461 153.74 144.516 153.982 144.56C154.224 144.582 154.466 144.615 154.708 144.659C154.972 144.681 155.225 144.714 155.467 144.758C155.709 144.78 155.907 144.824 156.061 144.89C156.303 144.934 156.49 145.011 156.622 145.121C156.776 145.231 156.963 145.308 157.183 145.352C157.733 145.66 158.228 146.067 158.668 146.573C159.13 147.079 159.515 147.552 159.823 147.992C160.131 148.432 160.329 148.982 160.417 149.642C160.505 150.302 160.571 150.885 160.615 151.391C160.527 151.523 160.483 151.666 160.483 151.82C160.505 151.974 160.505 152.117 160.483 152.249C160.461 152.425 160.439 152.612 160.417 152.81C160.395 152.986 160.362 153.173 160.318 153.371L160.351 153.404C160.373 153.602 160.34 153.734 160.252 153.8C160.186 153.844 160.142 153.888 160.12 153.932C160.032 154.042 159.966 154.174 159.922 154.328C159.878 154.46 159.834 154.603 159.79 154.757C159.746 154.889 159.691 155.021 159.625 155.153C159.559 155.285 159.46 155.395 159.328 155.483C159.328 155.593 159.24 155.714 159.064 155.846C158.998 156.022 158.932 156.143 158.866 156.209C158.8 156.253 158.734 156.308 158.668 156.374C158.602 156.418 158.525 156.473 158.437 156.539C158.349 156.605 158.239 156.715 158.107 156.869C157.667 156.957 157.238 157.155 156.82 157.463C156.424 157.771 155.984 157.969 155.5 158.057ZM148.24 144.758C148.174 145.55 148.13 146.1 148.108 146.408C148.108 146.716 148.108 146.914 148.108 147.002C148.13 147.068 148.152 147.112 148.174 147.134C148.196 147.134 148.207 147.233 148.207 147.431C148.229 147.915 148.24 148.41 148.24 148.916C148.24 149.4 148.24 149.895 148.24 150.401V153.404C148.306 153.624 148.328 153.866 148.306 154.13C148.284 154.372 148.273 154.614 148.273 154.856C148.295 155.516 148.295 156.187 148.273 156.869C148.251 157.551 148.24 158.222 148.24 158.882C148.24 159.674 148.251 160.499 148.273 161.357C148.295 162.193 148.295 163.018 148.273 163.832C148.295 163.832 148.306 163.843 148.306 163.865C148.284 164.107 148.273 164.36 148.273 164.624C148.273 164.866 148.273 165.108 148.273 165.35C148.273 165.592 148.273 165.845 148.273 166.109C148.295 166.351 148.317 166.593 148.339 166.835C148.339 166.945 148.273 167.066 148.141 167.198C148.031 167.242 147.965 167.22 147.943 167.132C147.921 167.044 147.866 167 147.778 167C147.47 166.978 147.151 166.967 146.821 166.967C146.513 166.945 146.238 167.011 145.996 167.165C145.798 167.055 145.567 167 145.303 167C145.039 166.978 144.786 166.978 144.544 167C144.5 167.044 144.478 167.066 144.478 167.066C144.456 167.066 144.434 167.077 144.412 167.099C144.346 167.055 144.28 167.011 144.214 166.967C144.148 166.901 144.148 166.824 144.214 166.736C144.214 166.692 144.236 166.67 144.28 166.67C144.324 166.23 144.324 165.79 144.28 165.35C144.236 164.888 144.236 164.437 144.28 163.997C144.192 163.777 144.17 163.557 144.214 163.337C144.28 163.117 144.291 162.908 144.247 162.71C144.291 162.424 144.291 162.138 144.247 161.852C144.203 161.566 144.214 161.269 144.28 160.961C144.236 160.851 144.225 160.741 144.247 160.631C144.269 160.521 144.258 160.411 144.214 160.301C144.258 159.641 144.258 159.003 144.214 158.387C144.192 157.749 144.203 157.078 144.247 156.374C144.225 156.154 144.203 155.934 144.181 155.714C144.159 155.494 144.159 155.285 144.181 155.087C144.159 154.779 144.181 154.493 144.247 154.229C144.313 153.965 144.302 153.679 144.214 153.371C144.17 153.305 144.181 153.272 144.247 153.272C144.291 153.272 144.302 153.239 144.28 153.173C144.258 153.085 144.258 153.008 144.28 152.942C144.324 152.898 144.302 152.854 144.214 152.81C144.126 152.766 144.104 152.722 144.148 152.678C144.28 152.568 144.324 152.37 144.28 152.084C144.258 151.798 144.236 151.567 144.214 151.391C144.192 151.061 144.17 150.742 144.148 150.434C144.148 150.104 144.192 149.785 144.28 149.477C144.17 149.345 144.104 149.202 144.082 149.048C144.082 148.872 144.082 148.707 144.082 148.553C144.126 148.377 144.137 148.212 144.115 148.058C144.093 147.904 144.115 147.739 144.181 147.563C144.181 147.387 144.17 147.211 144.148 147.035C144.148 146.837 144.17 146.65 144.214 146.474C144.258 146.166 144.258 145.858 144.214 145.55C144.192 145.242 144.192 144.945 144.214 144.659C144.456 144.637 144.698 144.626 144.94 144.626C145.182 144.604 145.424 144.593 145.666 144.593C145.93 144.593 146.183 144.582 146.425 144.56C146.689 144.516 146.942 144.472 147.184 144.428C147.294 144.428 147.349 144.428 147.349 144.428C147.349 144.428 147.36 144.439 147.382 144.461C147.404 144.483 147.47 144.516 147.58 144.56C147.69 144.604 147.91 144.67 148.24 144.758ZM88.3551 185.022C88.3331 185.462 88.3221 185.968 88.3221 186.54C88.3441 187.09 88.3331 187.596 88.2891 188.058C88.1351 188.168 87.9701 188.223 87.7941 188.223C87.6181 188.201 87.4751 188.278 87.3651 188.454C86.9911 188.806 86.7051 189.169 86.5071 189.543C86.3971 189.785 86.3641 189.983 86.4081 190.137C86.4521 190.291 86.4741 190.489 86.4741 190.731C86.6061 190.885 86.7051 191.039 86.7711 191.193C86.8371 191.325 86.9141 191.457 87.0021 191.589C87.1121 191.721 87.2551 191.853 87.4311 191.985C87.6071 192.117 87.8601 192.249 88.1901 192.381C88.3661 192.447 88.6081 192.557 88.9161 192.711C89.2241 192.865 89.4661 192.953 89.6421 192.975C90.0161 193.019 90.3461 193.096 90.6321 193.206C90.9401 193.294 91.2701 193.36 91.6221 193.404C91.7321 193.47 91.8531 193.525 91.9851 193.569C92.1391 193.591 92.2711 193.657 92.3811 193.767C92.7551 193.921 93.0741 194.097 93.3381 194.295C93.6241 194.471 93.9541 194.636 94.3281 194.79C94.4381 194.922 94.6361 195.065 94.9221 195.219C95.2081 195.373 95.4171 195.516 95.5491 195.648C95.7251 195.824 95.8461 195.923 95.9121 195.945C95.9781 195.967 96.0881 196.077 96.2421 196.275C96.3741 196.473 96.4731 196.682 96.5391 196.902C96.6491 197.254 96.7701 197.628 96.9021 198.024C97.0561 198.42 97.1771 198.805 97.2651 199.179C97.3311 199.465 97.3531 199.806 97.3311 200.202C97.3311 200.598 97.2981 200.994 97.2321 201.39C97.1661 201.786 97.0781 202.171 96.9681 202.545C96.8581 202.897 96.7371 203.194 96.6051 203.436C96.4951 203.612 96.3851 203.777 96.2751 203.931C96.1871 204.063 96.0771 204.195 95.9451 204.327C95.6371 204.679 95.3621 204.987 95.1201 205.251C94.8781 205.493 94.5371 205.68 94.0971 205.812C93.8771 205.966 93.6571 206.131 93.4371 206.307C93.2391 206.483 93.1401 206.714 93.1401 207C93.1401 207.066 93.1401 207.143 93.1401 207.231C93.1621 207.319 93.1401 207.385 93.0741 207.429C92.9641 207.429 92.8981 207.385 92.8761 207.297C92.8761 207.209 92.8761 207.11 92.8761 207C92.8981 206.868 92.9201 206.747 92.9421 206.637C92.9861 206.527 93.0081 206.45 93.0081 206.406C92.9421 206.34 92.8761 206.329 92.8101 206.373C92.7221 206.659 92.6561 206.846 92.6121 206.934C92.5681 207 92.5241 207.022 92.4801 207C92.4581 206.956 92.4361 206.89 92.4141 206.802C92.3921 206.714 92.3591 206.659 92.3151 206.637C92.0951 206.747 91.9851 206.945 91.9851 207.231C91.9851 207.341 91.9741 207.451 91.9521 207.561C91.9521 207.693 91.9191 207.803 91.8531 207.891C91.7871 207.891 91.7321 207.869 91.6881 207.825C91.7321 207.649 91.7431 207.484 91.7211 207.33C91.6991 207.176 91.6991 207.022 91.7211 206.868C91.6551 206.802 91.5781 206.769 91.4901 206.769C91.2261 206.879 91.0611 206.945 90.9951 206.967C90.9511 206.967 90.9401 206.945 90.9621 206.901C90.9841 206.835 91.0061 206.769 91.0281 206.703C91.0721 206.637 91.0501 206.593 90.9621 206.571C90.8741 206.527 90.8631 206.483 90.9291 206.439C91.0171 206.395 91.0391 206.329 90.9951 206.241C90.9951 206.109 90.9841 205.988 90.9621 205.878C90.9621 205.768 90.9181 205.636 90.8301 205.482C90.8301 205.24 90.8301 204.998 90.8301 204.756C90.8521 204.492 90.8411 204.239 90.7971 203.997C90.9071 203.865 90.9731 203.799 90.9951 203.799C91.0171 203.777 91.0721 203.7 91.1601 203.568C91.1821 203.502 91.1711 203.447 91.1271 203.403C91.0831 203.359 91.1051 203.315 91.1931 203.271C91.3691 203.161 91.5561 203.106 91.7541 203.106C91.9301 202.996 92.0401 202.897 92.0841 202.809C92.1501 202.699 92.2821 202.611 92.4801 202.545C92.5901 202.413 92.6671 202.281 92.7111 202.149C92.7551 202.017 92.8321 201.885 92.9421 201.753C93.2061 201.489 93.3601 201.148 93.4041 200.73C93.4481 200.29 93.4921 199.905 93.5361 199.575C93.5581 199.355 93.4811 199.19 93.3051 199.08C93.1511 198.948 93.0191 198.794 92.9091 198.618C92.7111 198.31 92.4251 198.079 92.0511 197.925C91.6771 197.749 91.3361 197.628 91.0281 197.562C90.8741 197.518 90.7201 197.474 90.5661 197.43C90.4121 197.364 90.2581 197.375 90.1041 197.463C90.0601 197.485 90.0381 197.419 90.0381 197.265C90.0601 197.111 90.0381 197.045 89.9721 197.067C89.9061 197.111 89.8071 197.078 89.6751 196.968C89.4991 196.858 89.3121 196.726 89.1141 196.572C88.9161 196.418 88.7841 196.429 88.7181 196.605C88.6961 196.649 88.6631 196.66 88.6191 196.638C88.5751 196.594 88.5311 196.55 88.4871 196.506C88.4431 196.462 88.3991 196.429 88.3551 196.407C88.3331 196.363 88.3221 196.363 88.3221 196.407C88.2561 196.693 88.1901 196.803 88.1241 196.737C88.0801 196.649 88.0691 196.572 88.0911 196.506C88.1351 196.352 88.0581 196.253 87.8601 196.209C87.6841 196.143 87.5631 196.132 87.4971 196.176C87.3871 196.286 87.3101 196.264 87.2661 196.11C87.2441 195.956 87.1671 195.879 87.0351 195.879C86.8591 195.879 86.7051 195.824 86.5731 195.714C86.4631 195.604 86.3201 195.516 86.1441 195.45C85.7481 195.318 85.3961 195.186 85.0881 195.054C84.7801 194.9 84.4721 194.669 84.1641 194.361C84.0321 194.229 83.9221 194.097 83.8341 193.965C83.7461 193.833 83.6361 193.712 83.5041 193.602C83.4381 193.536 83.3721 193.481 83.3061 193.437C83.2401 193.393 83.1851 193.316 83.1411 193.206C83.0971 193.03 83.0641 192.876 83.0421 192.744C83.0421 192.612 82.9871 192.469 82.8771 192.315C82.7671 192.161 82.7231 192.018 82.7451 191.886C82.7891 191.754 82.7671 191.611 82.6791 191.457C82.5691 191.259 82.5471 191.039 82.6131 190.797C82.7011 190.533 82.6901 190.302 82.5801 190.104C82.6241 189.972 82.6351 189.851 82.6131 189.741C82.5911 189.609 82.6131 189.477 82.6791 189.345C82.6791 189.059 82.7231 188.795 82.8111 188.553C82.9211 188.311 82.9981 188.058 83.0421 187.794C83.1301 187.662 83.2071 187.53 83.2731 187.398C83.3611 187.266 83.4381 187.123 83.5041 186.969C83.9001 186.463 84.2961 186.078 84.6921 185.814C85.1101 185.528 85.6161 185.264 86.2101 185.022C86.2981 185 86.3751 184.978 86.4411 184.956C86.5071 184.934 86.5621 184.912 86.6061 184.89C86.8701 184.78 87.1231 184.692 87.3651 184.626C87.6071 184.56 87.9041 184.483 88.2561 184.395C88.2561 184.505 88.2891 184.593 88.3551 184.659C88.4431 184.725 88.4871 184.791 88.4871 184.857C88.4871 184.901 88.4431 184.956 88.3551 185.022ZM94.7241 185.55C94.8121 185.682 94.9221 185.737 95.0541 185.715C95.2081 185.671 95.3071 185.726 95.3511 185.88C95.6151 186.078 95.8131 186.298 95.9451 186.54C96.0991 186.782 96.2751 187.024 96.4731 187.266C96.4731 187.376 96.5171 187.497 96.6051 187.629C96.7151 187.761 96.7701 187.882 96.7701 187.992C96.7701 188.058 96.7151 188.124 96.6051 188.19C96.4071 188.3 96.1981 188.399 95.9781 188.487C95.7801 188.575 95.5931 188.674 95.4171 188.784C95.2631 188.894 95.1091 188.982 94.9551 189.048C94.8011 189.092 94.6581 189.169 94.5261 189.279C94.3501 189.279 94.1961 189.323 94.0641 189.411C93.9541 189.499 93.8331 189.576 93.7011 189.642C93.6131 189.664 93.5031 189.664 93.3711 189.642C93.3931 189.488 93.3491 189.378 93.2391 189.312C93.1511 189.224 93.0631 189.103 92.9751 188.949C92.8871 188.751 92.7441 188.597 92.5461 188.487C92.3481 188.377 92.1611 188.267 91.9851 188.157C91.8531 188.245 91.7321 188.245 91.6221 188.157C91.5341 188.069 91.4351 188.058 91.3251 188.124C91.2811 188.168 91.2591 188.289 91.2591 188.487C91.2811 188.663 91.2921 188.861 91.2921 189.081C91.2921 189.301 91.2811 189.488 91.2591 189.642C91.2591 189.796 91.2041 189.862 91.0941 189.84C91.0281 189.73 90.9621 189.466 90.8961 189.048C90.8521 188.608 90.8301 188.201 90.8301 187.827C90.8301 187.563 90.8631 187.365 90.9291 187.233C90.9291 186.749 90.9401 186.298 90.9621 185.88C90.9841 185.462 90.9951 185 90.9951 184.494C90.9731 184.494 91.0281 184.472 91.1601 184.428C91.8201 184.428 92.4471 184.527 93.0411 184.725C93.6571 184.923 94.2181 185.198 94.7241 185.55ZM83.7351 200.202C83.9991 200.18 84.2961 200.18 84.6261 200.202C84.9561 200.202 85.2421 200.213 85.4841 200.235C85.5721 200.323 85.6161 200.444 85.6161 200.598C85.6381 200.73 85.6821 200.851 85.7481 200.961C85.7921 201.137 85.8251 201.302 85.8471 201.456C85.8691 201.61 85.9351 201.775 86.0451 201.951C86.3531 202.215 86.6721 202.512 87.0021 202.842C87.3321 203.172 87.7171 203.337 88.1571 203.337C88.2451 203.403 88.2891 203.458 88.2891 203.502C88.3111 203.524 88.3221 203.557 88.3221 203.601V203.7C88.3221 203.7 88.3441 203.766 88.3881 203.898C88.3881 204.206 88.3441 204.536 88.2561 204.888C88.1901 205.218 88.1571 205.548 88.1571 205.878C88.1571 206.098 88.2011 206.285 88.2891 206.439C88.2891 206.527 88.2561 206.593 88.1901 206.637C88.1461 206.681 88.1021 206.725 88.0581 206.769C88.0141 206.791 87.9811 206.835 87.9591 206.901C87.9371 206.945 87.9481 207.022 87.9921 207.132C87.9481 207.308 87.9481 207.506 87.9921 207.726C88.0581 207.968 88.0471 208.155 87.9591 208.287C87.9151 208.331 87.8711 208.331 87.8271 208.287C87.7831 208.265 87.7611 208.232 87.7611 208.188C87.8051 207.968 87.8051 207.748 87.7611 207.528C87.7391 207.33 87.7281 207.121 87.7281 206.901C87.6841 206.857 87.6511 206.824 87.6291 206.802C87.6071 206.758 87.5741 206.725 87.5301 206.703C87.4201 206.659 87.3431 206.692 87.2991 206.802C87.2551 206.89 87.2001 206.912 87.1341 206.868C87.1341 206.802 87.1451 206.736 87.1671 206.67C87.1891 206.604 87.1451 206.549 87.0351 206.505C86.8151 206.527 86.7271 206.626 86.7711 206.802C86.8371 206.978 86.8371 207.121 86.7711 207.231C86.6611 207.385 86.5841 207.385 86.5401 207.231C86.5181 207.099 86.5071 206.945 86.5071 206.769C86.0671 206.527 85.6491 206.263 85.2531 205.977C84.8571 205.691 84.4501 205.427 84.0321 205.185C83.7461 205.031 83.5371 204.822 83.4051 204.558C83.2951 204.294 83.1411 204.052 82.9431 203.832C82.8111 203.678 82.6901 203.535 82.5801 203.403C82.4921 203.249 82.3711 203.084 82.2171 202.908C82.1071 202.776 82.0631 202.644 82.0851 202.512C82.1071 202.358 82.0631 202.182 81.9531 201.984C81.8431 201.72 81.7881 201.456 81.7881 201.192C81.7881 201.038 81.7881 200.895 81.7881 200.763C81.7881 200.609 81.7771 200.455 81.7551 200.301C81.7991 200.279 81.8101 200.257 81.7881 200.235C81.7661 200.213 81.7771 200.191 81.8211 200.169C81.9971 200.147 82.1621 200.136 82.3161 200.136C82.4701 200.136 82.6241 200.136 82.7781 200.136C82.9321 200.136 83.0861 200.147 83.2401 200.169C83.3941 200.169 83.5591 200.18 83.7351 200.202ZM91.0941 189.972C91.1161 189.994 91.1271 190.06 91.1271 190.17V190.335C91.0831 190.379 91.0721 190.423 91.0941 190.467C91.1161 190.489 91.1271 190.511 91.1271 190.533C91.1051 190.599 91.0941 190.665 91.0941 190.731C91.1161 190.797 91.1271 190.863 91.1271 190.929C91.1051 190.951 91.0831 190.962 91.0611 190.962C91.0391 190.852 91.0281 190.742 91.0281 190.632C91.0501 190.522 91.0501 190.412 91.0281 190.302C91.0281 190.236 91.0171 190.181 90.9951 190.137C90.9951 190.071 91.0171 190.005 91.0611 189.939L91.0941 189.972ZM90.9621 192.051C90.9841 192.161 90.9511 192.205 90.8631 192.183C90.7751 192.161 90.7091 192.172 90.6651 192.216C90.6651 192.194 90.6871 192.117 90.7311 191.985C90.7971 191.941 90.8741 191.963 90.9621 192.051ZM114.155 198.552C114.199 198.42 114.221 198.354 114.221 198.354C114.221 198.266 114.188 198.211 114.122 198.189C114.078 198.167 114.056 198.057 114.056 197.859C113.968 197.881 113.913 197.848 113.891 197.76C113.869 197.65 113.803 197.584 113.693 197.562C113.583 197.628 113.517 197.672 113.495 197.694C113.473 197.694 113.462 197.705 113.462 197.727C113.462 197.749 113.462 197.782 113.462 197.826C113.484 197.848 113.484 197.903 113.462 197.991C113.418 198.035 113.385 198.079 113.363 198.123C113.341 198.145 113.297 198.145 113.231 198.123C113.187 197.947 113.176 197.837 113.198 197.793C113.242 197.749 113.242 197.639 113.198 197.463C113.154 197.309 113.121 197.232 113.099 197.232C113.099 197.21 113.088 197.221 113.066 197.265C113.066 197.309 113.044 197.353 113 197.397C112.956 197.441 112.868 197.441 112.736 197.397C112.648 197.353 112.582 197.353 112.538 197.397C112.516 197.419 112.494 197.474 112.472 197.562C112.472 197.628 112.461 197.705 112.439 197.793C112.439 197.881 112.417 197.958 112.373 198.024C112.351 198.09 112.329 198.178 112.307 198.288C112.285 198.398 112.263 198.508 112.241 198.618C112.219 198.728 112.197 198.827 112.175 198.915C112.153 198.981 112.12 199.003 112.076 198.981C112.01 198.915 111.966 198.816 111.944 198.684C111.944 198.552 111.944 198.42 111.944 198.288C111.944 198.134 111.933 197.991 111.911 197.859C111.911 197.727 111.878 197.617 111.812 197.529C111.614 197.595 111.526 197.738 111.548 197.958C111.592 198.156 111.603 198.332 111.581 198.486C111.449 198.75 111.427 199.069 111.515 199.443C111.603 199.795 111.603 200.103 111.515 200.367C111.471 200.477 111.46 200.631 111.482 200.829C111.526 201.027 111.482 201.115 111.35 201.093C111.24 201.093 111.174 200.961 111.152 200.697C111.152 200.433 111.152 200.125 111.152 199.773C111.174 199.399 111.196 199.014 111.218 198.618C111.24 198.2 111.24 197.848 111.218 197.562C111.086 197.408 111.02 197.155 111.02 196.803C111.02 196.583 111.031 196.341 111.053 196.077C111.097 195.791 111.119 195.516 111.119 195.252C111.141 194.988 111.152 194.746 111.152 194.526C111.152 194.284 111.119 194.086 111.053 193.932C111.383 193.932 111.68 193.943 111.944 193.965C112.23 193.987 112.527 193.976 112.835 193.932C112.967 193.954 113.066 193.965 113.132 193.965C113.22 193.965 113.275 193.965 113.297 193.965C113.341 193.965 113.363 193.965 113.363 193.965C113.385 193.965 113.407 193.965 113.429 193.965C113.451 193.943 113.495 193.932 113.561 193.932C113.649 193.932 113.792 193.932 113.99 193.932C114.034 193.514 114.045 193.162 114.023 192.876C114.023 192.568 114.012 192.282 113.99 192.018C113.968 191.732 113.946 191.446 113.924 191.16C113.924 190.852 113.946 190.5 113.99 190.104C113.968 189.994 113.946 189.895 113.924 189.807C113.902 189.697 113.924 189.587 113.99 189.477C114.034 189.367 114.012 189.257 113.924 189.147C113.858 189.037 113.902 188.938 114.056 188.85C114.122 188.652 114.144 188.443 114.122 188.223C114.1 187.981 114.111 187.75 114.155 187.53C114.045 187.354 114.023 187.167 114.089 186.969C114.155 186.771 114.144 186.584 114.056 186.408C113.99 186.21 113.979 186.012 114.023 185.814C114.089 185.594 114.078 185.385 113.99 185.187C114.012 185.121 114.012 185.044 113.99 184.956C113.99 184.868 113.99 184.791 113.99 184.725C113.99 184.527 114.056 184.428 114.188 184.428C114.826 184.406 115.453 184.417 116.069 184.461C116.707 184.483 117.345 184.472 117.983 184.428L118.049 184.494C118.137 185.198 118.137 185.891 118.049 186.573C117.961 187.233 117.961 187.904 118.049 188.586C118.005 191.116 117.994 193.668 118.016 196.242C118.06 198.794 118.06 201.291 118.016 203.733C118.016 204.063 118.027 204.393 118.049 204.723C118.093 205.053 118.093 205.372 118.049 205.68C118.005 205.878 118.027 206.087 118.115 206.307C118.225 206.527 118.181 206.725 117.983 206.901C117.807 206.813 117.598 206.758 117.356 206.736C117.114 206.714 116.883 206.736 116.663 206.802C116.421 206.824 116.179 206.824 115.937 206.802C115.695 206.78 115.453 206.802 115.211 206.868C115.123 206.912 115.035 206.956 114.947 207C114.859 207.022 114.793 207.077 114.749 207.165C114.705 207.275 114.694 207.385 114.716 207.495C114.738 207.627 114.672 207.704 114.518 207.726C114.452 207.66 114.452 207.572 114.518 207.462C114.562 207.374 114.562 207.286 114.518 207.198C114.474 207.132 114.43 207.066 114.386 207C114.21 206.89 114.1 206.758 114.056 206.604C114.012 206.428 113.99 206.252 113.99 206.076C114.012 205.9 114.034 205.724 114.056 205.548C114.1 205.35 114.111 205.163 114.089 204.987C114.023 204.613 114.001 204.228 114.023 203.832C114.067 203.414 114.1 203.018 114.122 202.644C114.144 202.468 114.122 202.281 114.056 202.083C114.012 201.863 114.034 201.665 114.122 201.489C114.012 201.137 113.99 200.785 114.056 200.433C114.144 200.059 114.1 199.707 113.924 199.377C113.858 199.289 113.847 199.212 113.891 199.146C113.935 199.08 113.979 199.014 114.023 198.948C114.089 198.882 114.144 198.827 114.188 198.783C114.232 198.717 114.221 198.64 114.155 198.552ZM105.41 187.629C105.41 188.223 105.421 188.982 105.443 189.906C105.465 190.808 105.476 191.677 105.476 192.513V193.932C105.85 193.932 106.092 193.921 106.202 193.899C106.334 193.877 106.51 193.866 106.73 193.866C106.796 193.866 106.873 193.866 106.961 193.866C107.071 193.866 107.181 193.877 107.291 193.899C107.533 193.811 107.775 193.8 108.017 193.866C108.259 193.932 108.501 193.954 108.743 193.932C108.787 193.954 108.798 193.987 108.776 194.031C108.776 194.053 108.798 194.075 108.842 194.097C108.886 194.405 108.897 194.68 108.875 194.922C108.875 195.164 108.853 195.406 108.809 195.648C108.787 195.868 108.765 196.099 108.743 196.341C108.743 196.583 108.765 196.858 108.809 197.166C108.853 197.298 108.853 197.397 108.809 197.463C108.765 197.529 108.71 197.595 108.644 197.661C108.578 197.727 108.523 197.804 108.479 197.892C108.457 197.958 108.479 198.057 108.545 198.189C108.523 198.255 108.512 198.343 108.512 198.453C108.512 198.563 108.468 198.629 108.38 198.651C108.292 198.519 108.27 198.365 108.314 198.189C108.38 197.991 108.314 197.859 108.116 197.793C107.83 197.815 107.522 197.815 107.192 197.793C106.862 197.749 106.565 197.782 106.301 197.892C106.125 197.892 106.004 197.892 105.938 197.892C105.894 197.87 105.861 197.848 105.839 197.826C105.817 197.804 105.784 197.782 105.74 197.76C105.696 197.716 105.586 197.683 105.41 197.661C105.388 197.683 105.377 197.771 105.377 197.925C105.399 198.079 105.41 198.255 105.41 198.453C105.432 198.651 105.454 198.838 105.476 199.014C105.498 199.168 105.509 199.256 105.509 199.278C105.531 199.916 105.52 200.543 105.476 201.159C105.454 201.775 105.476 202.402 105.542 203.04C105.432 203.546 105.41 204.118 105.476 204.756C105.564 205.394 105.575 205.966 105.509 206.472C105.487 206.582 105.487 206.67 105.509 206.736C105.531 206.802 105.487 206.89 105.377 207C105.201 207.044 105.069 207.143 104.981 207.297C104.915 207.473 104.838 207.627 104.75 207.759C104.706 207.671 104.695 207.561 104.717 207.429C104.761 207.319 104.706 207.253 104.552 207.231C104.332 207.231 104.134 207.198 103.958 207.132C103.804 207.088 103.639 207.044 103.463 207C103.309 206.934 103.144 206.89 102.968 206.868C102.792 206.824 102.594 206.813 102.374 206.835C102.264 206.747 102.132 206.725 101.978 206.769C101.824 206.813 101.714 206.769 101.648 206.637C101.648 206.307 101.637 205.9 101.615 205.416C101.615 204.932 101.637 204.536 101.681 204.228C101.637 203.964 101.615 203.711 101.615 203.469C101.637 203.227 101.626 202.996 101.582 202.776C101.648 202.534 101.659 202.27 101.615 201.984C101.593 201.676 101.604 201.401 101.648 201.159C101.692 199.949 101.703 198.728 101.681 197.496C101.681 196.242 101.681 195.01 101.681 193.8C101.703 193.734 101.714 193.646 101.714 193.536C101.736 193.426 101.725 193.327 101.681 193.239C101.681 192.931 101.67 192.623 101.648 192.315C101.626 192.007 101.615 191.699 101.615 191.391C101.571 191.215 101.56 191.05 101.582 190.896C101.604 190.742 101.626 190.588 101.648 190.434C101.648 189.708 101.659 188.982 101.681 188.256C101.725 187.508 101.714 186.782 101.648 186.078C101.582 186.034 101.56 185.979 101.582 185.913C101.604 185.847 101.615 185.792 101.615 185.748C101.549 185.572 101.538 185.407 101.582 185.253C101.626 185.077 101.648 184.901 101.648 184.725C101.648 184.637 101.615 184.538 101.549 184.428C101.659 184.318 101.758 184.296 101.846 184.362C101.956 184.428 102.077 184.417 102.209 184.329C102.693 184.439 103.243 184.472 103.859 184.428C104.475 184.362 105.025 184.362 105.509 184.428C105.509 184.56 105.476 184.714 105.41 184.89C105.344 185.044 105.333 185.187 105.377 185.319C105.399 185.693 105.399 186.078 105.377 186.474C105.377 186.87 105.388 187.255 105.41 187.629ZM125.894 184.527C126.136 184.527 126.367 184.538 126.587 184.56C126.829 184.56 127.06 184.538 127.28 184.494C127.39 184.538 127.445 184.582 127.445 184.626C127.445 184.714 127.478 184.769 127.544 184.791C127.544 184.967 127.511 185.099 127.445 185.187C127.445 185.495 127.467 185.792 127.511 186.078C127.577 186.364 127.588 186.661 127.544 186.969C127.368 187.211 127.302 187.486 127.346 187.794C127.412 188.08 127.434 188.377 127.412 188.685C127.39 188.927 127.379 189.169 127.379 189.411C127.401 189.653 127.412 189.895 127.412 190.137C127.412 190.423 127.423 190.698 127.445 190.962C127.489 191.226 127.467 191.501 127.379 191.787C127.335 191.963 127.324 192.128 127.346 192.282C127.368 192.436 127.368 192.601 127.346 192.777C127.302 192.997 127.302 193.239 127.346 193.503C127.39 193.767 127.401 194.02 127.379 194.262C127.335 194.812 127.335 195.34 127.379 195.846C127.423 196.352 127.423 196.858 127.379 197.364C127.401 197.364 127.412 197.419 127.412 197.529C127.434 197.595 127.434 197.694 127.412 197.826C127.39 197.936 127.412 198.024 127.478 198.09C127.5 198.596 127.478 199.102 127.412 199.608C127.368 200.114 127.368 200.62 127.412 201.126C127.434 201.368 127.423 201.599 127.379 201.819C127.357 202.017 127.379 202.237 127.445 202.479C127.467 203.095 127.445 203.678 127.379 204.228C127.335 204.756 127.379 205.306 127.511 205.878C127.489 206.01 127.489 206.153 127.511 206.307C127.555 206.439 127.588 206.582 127.61 206.736C127.566 206.868 127.544 207.011 127.544 207.165C127.544 207.473 127.533 207.803 127.511 208.155C127.489 208.507 127.412 208.683 127.28 208.683C127.236 208.683 127.203 208.595 127.181 208.419C127.181 208.243 127.159 208.023 127.115 207.759C127.115 207.693 127.137 207.594 127.181 207.462C127.225 207.352 127.214 207.264 127.148 207.198C127.06 207.154 126.983 207.132 126.917 207.132C126.873 207.154 126.796 207.165 126.686 207.165C126.488 207.121 126.279 207.099 126.059 207.099C125.839 207.121 125.619 207.132 125.399 207.132C125.355 207.176 125.311 207.198 125.267 207.198C125.179 207.198 125.124 207.187 125.102 207.165C124.816 207.055 124.53 207.022 124.244 207.066C123.98 207.132 123.705 207.143 123.419 207.099C123.265 206.945 123.221 206.813 123.287 206.703C123.375 206.571 123.419 206.417 123.419 206.241C123.397 205.801 123.419 205.339 123.485 204.855C123.551 204.349 123.551 203.876 123.485 203.436C123.463 203.348 123.463 203.271 123.485 203.205C123.507 203.117 123.507 203.04 123.485 202.974V193.206C123.485 191.622 123.463 190.83 123.419 190.83V190.797C123.441 189.741 123.441 188.674 123.419 187.596C123.419 186.518 123.43 185.484 123.452 184.494C123.76 184.516 124.068 184.516 124.376 184.494C124.706 184.45 125.025 184.439 125.333 184.461C125.421 184.439 125.509 184.439 125.597 184.461C125.707 184.483 125.806 184.505 125.894 184.527ZM136.896 185.286C136.874 186.056 136.852 186.815 136.83 187.563C136.83 188.311 136.83 189.059 136.83 189.807C136.852 190.731 136.852 191.589 136.83 192.381C136.808 193.173 136.819 194.031 136.863 194.955C136.885 194.955 136.896 194.999 136.896 195.087C136.83 195.197 136.808 195.34 136.83 195.516C136.874 195.692 136.896 195.846 136.896 195.978C136.94 196.704 136.951 197.386 136.929 198.024C136.907 198.662 136.896 199.355 136.896 200.103C136.896 201.225 136.874 202.336 136.83 203.436C136.786 204.514 136.786 205.647 136.83 206.835C136.874 206.857 136.885 206.89 136.863 206.934C136.841 206.956 136.819 206.978 136.797 207C136.621 207.066 136.445 207.088 136.269 207.066C136.093 207.066 135.917 207.066 135.741 207.066H134.652C134.476 207.022 134.3 207.011 134.124 207.033C133.97 207.055 133.805 207.044 133.629 207H133.233C133.101 207 133.002 206.945 132.936 206.835C133.024 206.659 133.035 206.472 132.969 206.274C132.925 206.076 132.936 205.878 133.002 205.68C132.98 205.504 132.98 205.317 133.002 205.119C133.024 204.899 133.024 204.701 133.002 204.525C133.002 203.073 132.991 201.621 132.969 200.169C132.969 198.695 132.991 197.232 133.035 195.78C132.991 195.538 132.958 195.296 132.936 195.054C132.936 194.812 132.936 194.57 132.936 194.328C132.848 193.25 132.837 192.205 132.903 191.193C132.969 190.159 132.991 189.081 132.969 187.959C132.969 187.387 132.958 186.815 132.936 186.243C132.936 185.649 132.936 185.066 132.936 184.494L136.137 184.395C136.247 184.307 136.357 184.296 136.467 184.362C136.577 184.406 136.621 184.373 136.599 184.263C136.731 184.285 136.808 184.34 136.83 184.428C136.852 184.516 136.863 184.615 136.863 184.725C136.863 184.813 136.852 184.912 136.83 185.022C136.83 185.132 136.852 185.22 136.896 185.286ZM144.717 197.595C144.739 197.617 144.673 197.672 144.519 197.76C144.365 197.826 144.189 197.903 143.991 197.991C143.815 198.057 143.639 198.123 143.463 198.189C143.287 198.255 143.188 198.288 143.166 198.288C142.902 198.376 142.583 198.42 142.209 198.42C142.033 198.42 141.868 198.42 141.714 198.42C141.56 198.42 141.406 198.409 141.252 198.387C140.944 198.387 140.625 198.431 140.295 198.519C139.965 198.607 139.646 198.563 139.338 198.387C139.228 198.321 139.162 198.244 139.14 198.156C139.14 198.046 139.151 197.936 139.173 197.826C139.217 197.694 139.25 197.573 139.272 197.463C139.316 197.331 139.327 197.21 139.305 197.1C139.261 196.902 139.228 196.715 139.206 196.539C139.184 196.363 139.162 196.176 139.14 195.978C139.184 195.692 139.217 195.483 139.239 195.351C139.283 195.197 139.305 195.098 139.305 195.054C139.305 194.966 139.294 194.933 139.272 194.955C139.25 194.955 139.206 194.878 139.14 194.724C139.118 194.614 139.184 194.559 139.338 194.559C139.426 194.559 139.503 194.57 139.569 194.592C139.657 194.614 139.712 194.625 139.734 194.625C139.778 194.647 139.877 194.68 140.031 194.724C140.207 194.768 140.416 194.768 140.658 194.724C140.9 194.68 141.131 194.614 141.351 194.526C141.593 194.438 141.934 194.383 142.374 194.361C142.506 194.317 142.671 194.273 142.869 194.229C143.067 194.163 143.243 194.108 143.397 194.064C143.793 194.064 144.068 193.877 144.222 193.503C144.376 193.129 144.519 192.777 144.651 192.447C144.607 192.227 144.629 191.974 144.717 191.688C144.827 191.402 144.816 191.149 144.684 190.929C144.574 190.731 144.541 190.511 144.585 190.269C144.629 190.005 144.563 189.818 144.387 189.708C144.277 189.554 144.156 189.444 144.024 189.378C143.914 189.312 143.782 189.224 143.628 189.114C143.584 188.96 143.529 188.861 143.463 188.817C143.397 188.773 143.309 188.751 143.199 188.751C143.111 188.751 143.012 188.773 142.902 188.817C142.814 188.839 142.726 188.85 142.638 188.85C142.506 188.85 142.429 188.74 142.407 188.52C142.231 188.586 142.132 188.619 142.11 188.619C142.066 188.619 142.022 188.619 141.978 188.619C141.934 188.597 141.857 188.575 141.747 188.553C141.637 188.531 141.582 188.531 141.582 188.553C141.604 188.553 141.56 188.553 141.45 188.553C141.406 188.553 141.384 188.63 141.384 188.784C141.406 188.938 141.417 189.114 141.417 189.312C141.439 189.51 141.428 189.697 141.384 189.873C141.362 190.027 141.285 190.115 141.153 190.137C141.109 190.137 141.076 190.071 141.054 189.939C141.054 189.785 141.043 189.62 141.021 189.444C141.021 189.246 141.01 189.081 140.988 188.949C140.966 188.795 140.944 188.718 140.922 188.718C140.834 188.674 140.79 188.63 140.79 188.586C140.79 188.542 140.669 188.52 140.427 188.52C140.339 188.52 140.251 188.531 140.163 188.553C140.075 188.553 139.943 188.597 139.767 188.685C139.569 188.795 139.47 188.828 139.47 188.784C139.47 188.718 139.459 188.685 139.437 188.685C139.371 188.685 139.272 188.619 139.14 188.487C139.096 188.443 139.074 188.355 139.074 188.223C139.074 188.047 139.085 187.849 139.107 187.629C139.129 187.387 139.14 187.211 139.14 187.101V185.748C139.14 185.616 139.129 185.506 139.107 185.418C139.107 185.308 139.107 185.154 139.107 184.956C139.107 184.912 139.118 184.846 139.14 184.758C139.184 184.67 139.283 184.637 139.437 184.659L139.8 184.692L140.295 184.659L141.681 184.692L143.331 184.758C143.375 184.78 143.441 184.813 143.529 184.857C143.639 184.901 143.749 184.945 143.859 184.989C143.969 185.033 144.068 185.077 144.156 185.121C144.266 185.143 144.332 185.154 144.354 185.154C144.882 185.286 145.3 185.495 145.608 185.781C145.916 186.067 146.268 186.43 146.664 186.87C146.73 187.002 146.807 187.134 146.895 187.266C146.983 187.376 147.071 187.486 147.159 187.596C147.203 187.728 147.269 187.86 147.357 187.992C147.467 188.124 147.577 188.256 147.687 188.388C147.819 188.52 147.929 188.652 148.017 188.784C148.127 188.916 148.193 189.048 148.215 189.18C148.281 189.312 148.314 189.444 148.314 189.576C148.336 189.686 148.369 189.807 148.413 189.939C148.347 190.159 148.358 190.379 148.446 190.599C148.534 190.797 148.567 191.017 148.545 191.259C148.457 191.413 148.446 191.622 148.512 191.886C148.578 192.128 148.578 192.326 148.512 192.48C148.468 192.7 148.446 192.81 148.446 192.81V193.14C148.446 193.25 148.413 193.294 148.347 193.272C148.303 193.228 148.259 193.239 148.215 193.305L148.017 193.635C147.929 193.789 147.885 193.932 147.885 194.064C147.885 194.24 147.896 194.394 147.918 194.526C147.962 194.658 147.874 194.801 147.654 194.955C147.544 195.043 147.522 195.12 147.588 195.186C147.654 195.23 147.61 195.274 147.456 195.318C147.39 195.362 147.357 195.417 147.357 195.483C147.357 195.615 147.291 195.714 147.159 195.78C147.049 195.824 146.939 195.901 146.829 196.011C146.763 196.099 146.697 196.165 146.631 196.209C146.565 196.253 146.554 196.341 146.598 196.473C146.598 196.517 146.576 196.583 146.532 196.671C146.51 196.759 146.477 196.781 146.433 196.737C146.367 196.715 146.345 196.671 146.367 196.605C146.411 196.517 146.411 196.44 146.367 196.374C146.367 196.286 146.323 196.341 146.235 196.539C146.147 196.715 146.125 196.847 146.169 196.935L145.575 197.166C145.575 197.166 145.52 197.188 145.41 197.232C145.322 197.254 145.223 197.298 145.113 197.364C145.003 197.408 144.904 197.452 144.816 197.496C144.728 197.54 144.695 197.573 144.717 197.595ZM141.054 206.043C141.054 206.109 141.043 206.208 141.021 206.34C141.021 206.45 141.043 206.549 141.087 206.637C141.021 207.055 141.01 207.495 141.054 207.957C141.12 208.419 141.109 208.859 141.021 209.277C140.911 209.233 140.856 209.156 140.856 209.046C140.856 208.958 140.834 208.848 140.79 208.716C140.856 208.474 140.867 208.221 140.823 207.957C140.801 207.715 140.768 207.462 140.724 207.198C140.702 206.956 140.68 206.714 140.658 206.472C140.658 206.208 140.713 205.955 140.823 205.713C140.911 205.735 140.966 205.779 140.988 205.845C141.01 205.911 141.032 205.977 141.054 206.043Z" fill="white"/>
</svg>
