<svg width="18" height="17" viewBox="0 0 18 17" fill="none" xmlns="http://www.w3.org/2000/svg" id="icon-telegram">
<path d="M17.4548 0.62077C17.1548 0.36637 16.6836 0.32997 16.1964 0.52557H16.1956C15.6832 0.73117 1.69123 6.73277 1.12163 6.97797C1.01803 7.01397 0.113231 7.35157 0.206431 8.10357C0.289631 8.78157 1.01683 9.06237 1.10563 9.09477L4.66283 10.3128C4.89883 11.0984 5.76883 13.9968 5.96123 14.616C6.08123 15.002 6.27683 15.5092 6.61963 15.6136C6.92043 15.7296 7.21963 15.6236 7.41323 15.4716L9.58803 13.4544L13.0988 16.1924L13.1824 16.2424C13.4208 16.348 13.6492 16.4008 13.8672 16.4008C14.0356 16.4008 14.1972 16.3692 14.3516 16.306C14.8776 16.09 15.088 15.5888 15.11 15.532L17.7324 1.90117C17.8924 1.17317 17.67 0.80277 17.4548 0.62077ZM7.80003 10.8L6.60003 14L5.40003 9.99997L14.6 3.19997L7.80003 10.8Z" fill="white"/>
</svg>
