<svg width="20" height="12" viewBox="0 0 20 12" fill="none" xmlns="http://www.w3.org/2000/svg">
<path d="M19.0677 10.6675C18.319 9.32 16.3902 7.70084 15.594 6.99626C15.3761 6.80334 15.3527 6.46959 15.5511 6.25626C17.0707 4.62334 18.2861 2.74709 18.7044 1.61334C18.889 1.11251 18.5069 0.58334 17.9686 0.58334H16.4048C15.8894 0.58334 15.5878 0.76834 15.444 1.06292C14.1811 3.65084 13.0977 4.77084 12.3394 5.42542C11.9148 5.79209 11.2527 5.48834 11.2527 4.93042C11.2527 3.85542 11.2527 2.46584 11.2527 1.48042C11.2527 1.00251 10.8619 0.61584 10.3798 0.61584L7.52316 0.58334C7.16358 0.58334 6.95816 0.990423 7.174 1.27584L7.64566 1.95292C7.82316 2.18751 7.919 2.47292 7.919 2.76584L7.9165 5.81501C7.9165 6.34542 7.27358 6.60459 6.89191 6.23292C5.60066 4.97542 4.48025 2.40751 4.07691 1.17959C3.96025 0.824173 3.62733 0.584173 3.24983 0.58334L1.70941 0.57959C1.1315 0.57959 0.708998 1.12751 0.866081 1.67917C2.27358 6.61959 5.1615 11.3196 10.3082 11.8292C10.8152 11.8792 11.2527 11.4708 11.2527 10.9654V9.36292C11.2527 8.90334 11.6132 8.50834 12.0765 8.49667C12.0927 8.49625 12.109 8.49626 12.1252 8.49626C13.4865 8.49626 15.0111 10.4775 15.5444 11.4042C15.6977 11.6708 15.9844 11.8333 16.2944 11.8333H18.3665C18.9711 11.8333 19.359 11.1921 19.0677 10.6675Z" fill="white"/>
</svg>
