<svg xmlns="http://www.w3.org/2000/svg" id="logo" viewBox="0 0 96 106">
<path id="ship" d="M85.332 37.7695V24.7851C85.332 24.5703 85.293 24.3633 85.2109 24.1641C85.1289 23.9648 85.0117 23.7891 84.8594 23.6367C84.707 23.4844 84.5312 23.3672 84.332 23.2851C84.1328 23.2031 83.9258 23.1601 83.7109 23.1601C82.8086 23.1875 81.9688 22.9766 81.1875 22.5195C80.5742 22.1953 79.9336 21.9531 79.2578 21.7851C78.5859 21.6211 77.9023 21.5351 77.2109 21.5351C76.5195 21.5351 75.8359 21.6211 75.1641 21.7851C74.4922 21.9531 73.8477 22.1953 73.2344 22.5195C72.4609 22.9726 71.625 23.1875 70.7266 23.1601C70.5117 23.1601 70.3047 23.2031 70.1055 23.2851C69.9062 23.3672 69.7305 23.4844 69.5781 23.6367C69.4258 23.7891 69.3086 23.9648 69.2266 24.1641C69.1445 24.3633 69.1016 24.5703 69.1016 24.7851V32.8984C69.1016 33.1133 69.1445 33.3203 69.2266 33.5195C69.3086 33.7187 69.4258 33.8945 69.5781 34.0469C69.7305 34.1992 69.9062 34.3164 70.1055 34.3984C70.3047 34.4805 70.5117 34.5234 70.7266 34.5234C72.1367 34.5469 73.457 34.2226 74.6914 33.5391C75.4766 33.1133 76.3203 32.8984 77.2148 32.8984C78.1094 32.8984 78.9492 33.1133 79.7383 33.5391C80.4805 33.9336 81.2617 34.2109 82.0859 34.3672V37.7695H67.4805V41.0156H71.2578C72 43.1172 72.3633 45.2812 72.3477 47.5078C72.3789 50.0703 71.8906 52.5351 70.8867 54.8984C70.8242 55.0195 70.7812 55.1523 70.75 55.2851C70.7227 55.4219 70.7109 55.5586 70.7188 55.6992C70.7266 55.8359 70.75 55.9726 70.7891 56.1055C70.832 56.2383 70.8867 56.3633 70.9609 56.4805C71.0352 56.5976 71.1211 56.7031 71.2227 56.8008C71.3242 56.8945 71.4336 56.9766 71.5547 57.043C71.6758 57.1094 71.8047 57.1601 71.9375 57.1953C72.0742 57.2305 72.2109 57.2461 72.3477 57.2461H82.0859V65.6836L72.3633 66.9961C72.0469 67.0391 71.7617 67.1641 71.5195 67.375C71.2773 67.5859 71.1094 67.8476 71.0195 68.1562L70.4297 70.2305H48.0039V66.9844H59.3633C59.7344 66.9844 60.0703 66.8711 60.3633 66.6406C60.6562 66.4101 60.8477 66.1172 60.9375 65.7539C62.0547 60.8242 62.6094 55.8242 62.6094 50.7539C62.6406 46.9258 62.2578 43.1367 61.4648 39.3906H64.2344V36.1445H48.0039V32.8984H57.7422C58.1875 32.8984 58.5703 32.7422 58.8867 32.4219C59.2383 32.0742 60.9883 30.0586 60.9883 24.7851C61.0156 23.1289 60.8008 21.5039 60.3398 19.9141H62.6094V16.668H48.0039V3.68358C48.0039 3.46874 47.9609 3.26171 47.8789 3.06249C47.7969 2.86327 47.6797 2.68749 47.5273 2.53515C47.375 2.3828 47.1992 2.26562 47 2.18358C46.8008 2.10155 46.5938 2.06249 46.3789 2.06249C45.4766 2.08983 44.6367 1.87499 43.8555 1.41796C43.2461 1.09765 42.6016 0.851553 41.9297 0.687491C41.2578 0.519522 40.5742 0.437491 39.8789 0.437491C39.1875 0.437491 38.5039 0.519522 37.832 0.687491C37.1602 0.851553 36.5156 1.09765 35.9023 1.41796C35.1289 1.87108 34.293 2.08593 33.3945 2.06249C32.4961 2.08983 31.6562 1.87499 30.8789 1.42187C29.6406 0.738272 28.3164 0.410147 26.9023 0.437491C26.6875 0.437491 26.4805 0.48046 26.2812 0.562491C26.082 0.644522 25.9062 0.76171 25.7539 0.914053C25.6016 1.0664 25.4844 1.24218 25.4023 1.4414C25.3203 1.64062 25.2812 1.84765 25.2812 2.06249V10.1758C25.2812 10.3906 25.3203 10.5976 25.4023 10.7969C25.4844 10.9961 25.6016 11.1719 25.7539 11.3242C25.9062 11.4766 26.082 11.5937 26.2812 11.6758C26.4805 11.7578 26.6875 11.8008 26.9023 11.8008C27.8008 11.7734 28.6406 11.9844 29.418 12.4375C30.0312 12.7617 30.6719 13.0078 31.3438 13.1719C32.0156 13.3398 32.6992 13.4219 33.3906 13.4219C34.082 13.4219 34.7617 13.3398 35.4336 13.1719C36.1055 13.0078 36.75 12.7617 37.3594 12.4375C38.1484 12.0117 38.9883 11.7969 39.8828 11.7969C40.7773 11.7969 41.6211 12.0117 42.4062 12.4375C43.1484 12.8281 43.9336 13.1016 44.7578 13.2617V16.668H30.1484V19.9141H34.1367C34.8086 21.4687 35.1016 23.0937 35.0195 24.7851C35.2031 26.6875 34.8203 28.4687 33.8672 30.1289C33.6367 30.3594 33.4883 30.6367 33.4258 30.9609C33.3594 31.2812 33.3906 31.5937 33.5156 31.8984C33.6445 32.2031 33.8438 32.4453 34.1172 32.625C34.3906 32.8086 34.6914 32.8984 35.0195 32.8984H44.7578V36.1445H28.5273V39.3906H30.5352C31.3984 43.1289 31.8086 46.918 31.7734 50.7539C31.7617 55.5469 31.2383 60.2851 30.1992 64.9687C30.1367 65.2109 30.1328 65.4531 30.1836 65.6992C30.2383 65.9414 30.3398 66.1641 30.4922 66.3594C30.6484 66.5547 30.8359 66.7109 31.0586 66.8203C31.2852 66.9297 31.5234 66.9844 31.7734 66.9844H44.7578V70.2305H17.1641V58.8672H25.2812C25.5859 58.8672 25.8711 58.7891 26.1328 58.625C26.3945 58.4648 26.5938 58.2461 26.7305 57.9726C27.9688 55.1523 28.5664 52.207 28.5273 49.1289C28.5703 46.0547 27.9727 43.1055 26.7422 40.2891C26.6016 40.0117 26.4023 39.793 26.1367 39.6328C25.875 39.4687 25.5898 39.3906 25.2812 39.3906H17.1641V34.5234H18.7891C19.1602 34.5234 19.4922 34.4062 19.7852 34.1797C20.0781 33.9492 20.2695 33.6562 20.3633 33.293L21.9844 26.8008C22.0469 26.5586 22.0508 26.3164 22 26.0703C21.9453 25.8281 21.8438 25.6055 21.6914 25.4101C21.5352 25.2109 21.3477 25.0586 21.1211 24.9492C20.8984 24.8398 20.6602 24.7851 20.4102 24.7851H17.1641V11.8008C17.1641 11.5859 17.125 11.3789 17.0391 11.1797C16.957 10.9805 16.8398 10.8047 16.6875 10.6523C16.5352 10.5 16.3594 10.3828 16.1641 10.3008C15.9648 10.2187 15.7578 10.1758 15.543 10.1758C14.6406 10.2031 13.7969 9.99218 13.0195 9.53515C11.7852 8.85546 10.4609 8.52733 9.05078 8.55468C7.63672 8.52343 6.3125 8.85155 5.07422 9.53515C4.29687 9.98827 3.45703 10.2031 2.55859 10.1758C2.33984 10.1758 2.13281 10.2187 1.9375 10.3008C1.73828 10.3828 1.5625 10.5 1.41016 10.6523C1.25781 10.8047 1.14062 10.9805 1.05859 11.1797C0.976562 11.3789 0.933594 11.5859 0.933594 11.8008V19.9141C0.933594 20.1289 0.976562 20.3359 1.05859 20.5351C1.14062 20.7344 1.25781 20.9101 1.41016 21.0625C1.5625 21.2148 1.73828 21.332 1.9375 21.4141C2.13281 21.4961 2.33984 21.5391 2.55859 21.5391C3.96484 21.5664 5.28516 21.2422 6.52344 20.5625C7.30078 20.1055 8.14453 19.8906 9.05078 19.9141C9.95312 19.8867 10.793 20.1016 11.5703 20.5547C12.3125 20.9492 13.0977 21.2226 13.9219 21.3828V24.7851H10.6719C10.4219 24.7851 10.1836 24.8398 9.96094 24.9492C9.73437 25.0586 9.54688 25.2109 9.39062 25.4101C9.23828 25.6055 9.13672 25.8281 9.08594 26.0703C9.03125 26.3164 9.03516 26.5586 9.09766 26.8008L10.7227 33.293C10.8125 33.6562 11.0039 33.9492 11.2969 34.1797C11.5898 34.4062 11.9219 34.5234 12.2969 34.5234H13.918V39.3906H4.17969C4.04297 39.3906 3.90625 39.4101 3.76953 39.4453C3.63672 39.4766 3.51172 39.5312 3.39062 39.5976C3.26953 39.6641 3.15625 39.7461 3.05859 39.8398C2.95703 39.9375 2.87109 40.043 2.79688 40.1601C2.72656 40.2773 2.66797 40.4023 2.62891 40.5351C2.58594 40.668 2.5625 40.8047 2.55859 40.9414C2.55078 41.0781 2.5625 41.2148 2.58984 41.3516C2.62109 41.4883 2.66406 41.6172 2.72656 41.7383C3.73828 44.1016 4.22266 46.5625 4.17969 49.1289C4.21094 51.6953 3.72656 54.1562 2.72656 56.5195C2.66406 56.6445 2.62109 56.7734 2.58984 56.9101C2.5625 57.043 2.55078 57.1797 2.55859 57.3203C2.5625 57.457 2.58594 57.5937 2.62891 57.7226C2.66797 57.8555 2.72656 57.9805 2.79688 58.0976C2.87109 58.2148 2.95703 58.3242 3.05859 58.418C3.15625 58.5156 3.26953 58.5976 3.39062 58.6641C3.51172 58.7305 3.63672 58.7812 3.76953 58.8164C3.90625 58.8516 4.04297 58.8672 4.17969 58.8672H13.918V66.9844H4.17969C3.80859 66.9844 3.47656 67.0976 3.17969 67.3281C2.88672 67.5547 2.69531 67.8516 2.60547 68.2109L0.980469 74.7031C0.949219 74.8359 0.933594 74.9648 0.933594 75.0976C0.933594 75.8242 1.05469 76.5273 1.28906 77.2109C1.52734 77.8984 1.86719 78.5234 2.3125 79.0976C2.76172 79.668 3.28516 80.1484 3.89453 80.543C4.5 80.9375 5.15625 81.2226 5.85938 81.3984C5.94922 82.5078 6.14062 83.5976 6.4375 84.6719C6.73047 85.7422 7.12109 86.7773 7.60547 87.7773C8.09375 88.7773 8.66797 89.7226 9.33203 90.6133C9.99609 91.5078 10.7383 92.3281 11.5547 93.082C12.3711 93.8359 13.25 94.5078 14.1914 95.0976C15.1367 95.6875 16.125 96.1875 17.1602 96.5898C18.1953 96.9961 19.2578 97.3047 20.3516 97.5117C21.4414 97.7148 22.543 97.8203 23.6562 97.8203H64.2344C64.9883 97.7812 65.7344 97.6797 66.4766 97.5156C67.2148 97.3555 67.9336 97.1367 68.6367 96.8555C69.3398 96.5781 70.0195 96.2461 70.668 95.8555C71.3164 95.4687 71.9297 95.0312 72.5078 94.543C73.0898 94.0586 73.625 93.5273 74.1172 92.9531C74.6094 92.3789 75.0547 91.7695 75.4492 91.125C75.8438 90.4766 76.1836 89.8047 76.4688 89.1055C76.7539 88.4023 76.9805 87.6836 77.1484 86.9492L80.1055 79.5547L97.3672 71.707C97.6562 71.5742 97.8867 71.375 98.0586 71.1094C98.2305 70.8398 98.3164 70.5469 98.3164 70.2305V65.3594C98.3164 65.125 98.2695 64.9023 98.1719 64.6914C98.0742 64.4766 97.9375 64.293 97.7617 64.1406C97.5859 63.9844 97.3867 63.875 97.1641 63.8086C96.9375 63.7383 96.7109 63.7226 96.4805 63.7539L85.332 65.25V57.2461H93.4492C93.7578 57.2461 94.043 57.168 94.3086 57.0039C94.5703 56.8437 94.7695 56.625 94.9102 56.3476C96.1406 53.5312 96.7383 50.582 96.6953 47.5078C96.6992 45.2969 96.3906 43.1328 95.7695 41.0156H98.3164V37.7695H85.332ZM81.1875 30.6367C80.5742 30.3125 79.9336 30.0664 79.2578 29.9023C78.5859 29.7344 77.9023 29.6523 77.2109 29.6523C76.5195 29.6523 75.8359 29.7344 75.1641 29.9023C74.4922 30.0664 73.8477 30.3125 73.2344 30.6367C72.9453 30.7891 72.6484 30.9219 72.3438 31.0351V26.2656C73.1641 26.1055 73.9453 25.8242 74.6836 25.4258C75.4727 24.9961 76.3125 24.7851 77.207 24.7851C78.1016 24.7851 78.9453 24.9961 79.7305 25.4258C80.4688 25.8281 81.2539 26.1094 82.082 26.2695V31.0391C81.7734 30.9219 81.4766 30.7891 81.1875 30.6367ZM43.8555 9.53515C43.2461 9.21093 42.6016 8.96874 41.9297 8.80077C41.2578 8.63671 40.5742 8.55077 39.8789 8.55077C39.1875 8.55077 38.5039 8.63671 37.832 8.80077C37.1602 8.96874 36.5156 9.21093 35.9023 9.53515C35.1211 9.96093 34.2812 10.1758 33.3867 10.1758C32.4961 10.1758 31.6562 9.96093 30.8711 9.53515C30.1328 9.1328 29.3516 8.85155 28.5273 8.6914V3.92187C28.832 4.03515 29.1289 4.17187 29.418 4.32421C30.0312 4.64452 30.6719 4.89061 31.3438 5.05858C32.0156 5.22265 32.6992 5.30468 33.3906 5.30468C34.082 5.30468 34.7617 5.22265 35.4336 5.05858C36.1055 4.89061 36.75 4.64452 37.3594 4.32421C38.1484 3.89452 38.9883 3.68358 39.8828 3.68358C40.7773 3.68358 41.6211 3.89452 42.4062 4.32421C43.1445 4.72655 43.9297 5.0078 44.7578 5.16796V9.93749C44.4492 9.82421 44.1484 9.68749 43.8555 9.53515ZM37.625 29.6523C38.082 28.0625 38.293 26.4375 38.2656 24.7851C38.293 23.1289 38.082 21.5039 37.625 19.9141H56.8633C57.5312 21.4687 57.8203 23.0937 57.7422 24.7851C57.8203 26.4726 57.5312 28.0976 56.8633 29.6523H37.625ZM33.7773 63.7383C34.5938 59.4492 35.0078 55.1211 35.0195 50.7539C35.0469 46.9258 34.6641 43.1367 33.8711 39.3906H58.1289C58.9883 43.1289 59.4023 46.918 59.3633 50.7539C59.3516 55.1211 58.918 59.4531 58.0664 63.7383H33.7773ZM13.0195 17.6523C11.7852 16.9687 10.4609 16.6406 9.05078 16.668C7.63672 16.6406 6.3125 16.9687 5.07422 17.6523C4.78516 17.8047 4.48828 17.9375 4.18359 18.0508V13.2812C5.00391 13.125 5.78516 12.8476 6.52344 12.4492C7.30078 11.9883 8.14453 11.7734 9.05078 11.8008C9.94922 11.7734 10.7891 11.9922 11.5664 12.4492C12.3086 12.8476 13.0898 13.125 13.918 13.2851V18.0547C13.6094 17.9375 13.3086 17.8047 13.0195 17.6523ZM13.5625 31.2773L12.75 28.0312H18.332L17.5195 31.2773H13.5625ZM6.50391 55.6211C7.12109 53.5039 7.42969 51.3398 7.42578 49.1289C7.42969 46.9219 7.12109 44.7578 6.50391 42.6367H24.1953C24.9297 44.7383 25.2891 46.9023 25.2812 49.1289C25.2852 51.3555 24.9219 53.5195 24.1914 55.6211H6.50391ZM95.0703 67.2187V69.1836L78.3398 76.7891L70.4023 78.3789L71.0391 81.5586L76.2148 80.5234C76.2148 80.5234 73.9297 86.3437 73.8984 86.4609H64.2344V89.707H72.4375C71.9961 90.4101 71.4805 91.0547 70.8906 91.6367C70.2969 92.2148 69.6445 92.7187 68.9297 93.1406C68.2148 93.5664 67.4609 93.8984 66.668 94.1406C65.875 94.3828 65.0625 94.5273 64.2344 94.5742H23.6562C22.6328 94.5742 21.6172 94.4687 20.6133 94.2539C19.6133 94.0391 18.6445 93.7187 17.707 93.3008C16.7734 92.8828 15.8906 92.3672 15.0625 91.7617C14.2383 91.1562 13.4805 90.4726 12.8008 89.707H18.7891V86.4609H10.5898C9.82031 84.9219 9.33594 83.3008 9.14453 81.5898H13.918V78.3437H7.42578C7.01172 78.3476 6.60938 78.2695 6.22266 78.1172C5.83594 77.9648 5.49219 77.7422 5.19141 77.457C4.89063 77.1719 4.65234 76.8437 4.47656 76.4648C4.30078 76.0898 4.20312 75.6953 4.17969 75.2773L5.44922 70.2305H13.918V71.8516C13.918 72.0664 13.9609 72.2734 14.043 72.4726C14.125 72.6719 14.2422 72.8476 14.3945 73C14.5469 73.1523 14.7227 73.2695 14.9219 73.3516C15.1172 73.4336 15.3242 73.4766 15.543 73.4766H71.6523C72.0156 73.4766 72.3398 73.3672 72.6289 73.1484C72.918 72.9297 73.1133 72.6484 73.2148 72.3008L73.8516 70.0742L95.0703 67.2187ZM92.3594 54H74.668C75.2812 51.8789 75.5898 49.7148 75.5898 47.5078C75.5898 45.3008 75.2812 43.1367 74.668 41.0156H92.3594C93.0859 43.1172 93.4453 45.2812 93.4453 47.5078C93.4453 49.7305 93.0859 51.8945 92.3594 54Z"/>
</svg>
