<svg width="18" height="18" viewBox="0 0 18 18" fill="none" xmlns="http://www.w3.org/2000/svg" id="logo_small">
<path d="M15.0758 6.59102V4.31306C15.0758 4.27536 15.0689 4.23904 15.0545 4.20409C15.0402 4.16914 15.0196 4.1383 14.9929 4.11157C14.9661 4.08485 14.9353 4.06429 14.9003 4.0499C14.8654 4.03551 14.8291 4.02797 14.7914 4.02797C14.6331 4.03276 14.4857 3.99576 14.3487 3.91558C14.2411 3.8587 14.1287 3.81621 14.0101 3.78674C13.8923 3.75796 13.7723 3.74288 13.651 3.74288C13.5297 3.74288 13.4098 3.75796 13.2919 3.78674C13.1741 3.81621 13.061 3.8587 12.9534 3.91558C12.8177 3.99507 12.671 4.03276 12.5134 4.02797C12.4757 4.02797 12.4394 4.03551 12.4045 4.0499C12.3695 4.06429 12.3387 4.08485 12.3119 4.11157C12.2852 4.1383 12.2647 4.16914 12.2503 4.20409C12.2359 4.23904 12.2283 4.27536 12.2283 4.31306V5.73644C12.2283 5.77413 12.2359 5.81045 12.2503 5.8454C12.2647 5.88035 12.2852 5.91119 12.3119 5.93792C12.3387 5.96464 12.3695 5.9852 12.4045 5.9996C12.4394 6.01399 12.4757 6.02153 12.5134 6.02153C12.7608 6.02564 12.9925 5.96876 13.209 5.84883C13.3468 5.77413 13.4948 5.73644 13.6517 5.73644C13.8087 5.73644 13.956 5.77413 14.0944 5.84883C14.2246 5.91804 14.3617 5.9667 14.5063 5.99411V6.59102H11.9439V7.16051H12.6066C12.7368 7.5292 12.8006 7.90886 12.7978 8.29949C12.8033 8.74905 12.7176 9.18148 12.5415 9.59609C12.5306 9.61733 12.523 9.64063 12.5175 9.66393C12.5127 9.68792 12.5107 9.7119 12.5121 9.73657C12.5134 9.76056 12.5175 9.78455 12.5244 9.80785C12.5319 9.83115 12.5415 9.85308 12.5545 9.87364C12.5676 9.89419 12.5826 9.9127 12.6005 9.92983C12.6183 9.94628 12.6375 9.96067 12.6587 9.97232C12.68 9.98397 12.7026 9.99288 12.7259 9.99905C12.7499 10.0052 12.7738 10.008 12.7978 10.008H14.5063V11.4882L12.8006 11.7185C12.7451 11.726 12.695 11.748 12.6525 11.785C12.6101 11.822 12.5806 11.8679 12.5648 11.922L12.4613 12.2859H8.52699V11.7164H10.5199C10.585 11.7164 10.6439 11.6966 10.6953 11.6561C10.7467 11.6157 10.7803 11.5643 10.796 11.5006C10.992 10.6357 11.0894 9.7585 11.0894 8.86898C11.0948 8.19738 11.0277 7.53263 10.8886 6.87542H11.3744V6.30593H8.52699V5.73644H10.2355C10.3136 5.73644 10.3807 5.70903 10.4363 5.65283C10.4979 5.59184 10.805 5.23822 10.805 4.31306C10.8098 4.02248 10.7721 3.7374 10.6912 3.45848H11.0894V2.88899H8.52699V0.611027C8.52699 0.573335 8.51945 0.537014 8.50506 0.502063C8.49067 0.467112 8.47011 0.436273 8.44339 0.409546C8.41666 0.382819 8.38582 0.36226 8.35087 0.347869C8.31592 0.333477 8.2796 0.326624 8.2419 0.326624C8.0836 0.331421 7.93626 0.293729 7.7992 0.213549C7.69229 0.157353 7.57921 0.114179 7.46134 0.0853962C7.34347 0.0559279 7.22354 0.0415365 7.10155 0.0415365C6.98025 0.0415365 6.86033 0.0559279 6.74245 0.0853962C6.62458 0.114179 6.5115 0.157353 6.40391 0.213549C6.26822 0.293044 6.12156 0.330736 5.96394 0.326624C5.80632 0.331421 5.65898 0.293729 5.52261 0.214234C5.30536 0.0943051 5.07305 0.0367393 4.82496 0.0415365C4.78727 0.0415365 4.75095 0.049075 4.716 0.0634664C4.68105 0.0778578 4.65021 0.0984171 4.62348 0.125144C4.59676 0.151871 4.5762 0.18271 4.56181 0.21766C4.54741 0.252611 4.54056 0.288932 4.54056 0.326624V1.75001C4.54056 1.7877 4.54741 1.82402 4.56181 1.85897C4.5762 1.89392 4.59676 1.92476 4.62348 1.95149C4.65021 1.97821 4.68105 1.99877 4.716 2.01316C4.75095 2.02756 4.78727 2.03509 4.82496 2.03509C4.98258 2.0303 5.12993 2.0673 5.2663 2.1468C5.3739 2.20368 5.48629 2.24685 5.60416 2.27564C5.72203 2.30511 5.84196 2.3195 5.96326 2.3195C6.08456 2.3195 6.2038 2.30511 6.32167 2.27564C6.43955 2.24685 6.55262 2.20368 6.65953 2.1468C6.79796 2.0721 6.9453 2.03441 7.10224 2.03441C7.25917 2.03441 7.4072 2.0721 7.54495 2.1468C7.67516 2.21533 7.8129 2.2633 7.9575 2.2914V2.88899H5.39445V3.45848H6.09415C6.21203 3.73123 6.26342 4.01632 6.24903 4.31306C6.28124 4.6468 6.21408 4.9593 6.04687 5.25055C6.00643 5.29099 5.98039 5.33964 5.96943 5.39652C5.95778 5.45272 5.96326 5.50754 5.98519 5.561C6.0078 5.61445 6.04275 5.65694 6.09073 5.68847C6.1387 5.72068 6.19147 5.73644 6.24903 5.73644H7.9575V6.30593H5.11005V6.87542H5.4623C5.61375 7.53126 5.68571 8.196 5.67954 8.86898C5.67749 9.70985 5.58565 10.5411 5.40336 11.3628C5.3924 11.4053 5.39171 11.4478 5.40062 11.491C5.41022 11.5334 5.42803 11.5725 5.45476 11.6068C5.48217 11.641 5.51507 11.6685 5.55413 11.6876C5.59388 11.7068 5.63568 11.7164 5.67954 11.7164H7.9575V12.2859H3.11649V10.2924H4.54056C4.59402 10.2924 4.64404 10.2787 4.68996 10.2499C4.73587 10.2218 4.77082 10.1834 4.79481 10.1354C5.01205 9.64063 5.1169 9.12391 5.11005 8.58389C5.11759 8.04455 5.01274 7.52714 4.79687 7.03304C4.7722 6.98438 4.73724 6.946 4.69064 6.91791C4.64473 6.88912 4.5947 6.87542 4.54056 6.87542H3.11649V6.02153H3.40158C3.46669 6.02153 3.52494 6.00097 3.57633 5.96122C3.62773 5.92079 3.66131 5.86939 3.67776 5.80565L3.96216 4.66667C3.97313 4.62418 3.97381 4.5817 3.9649 4.53852C3.95531 4.49603 3.93749 4.45697 3.91076 4.4227C3.88335 4.38775 3.85046 4.36103 3.81071 4.34184C3.77165 4.32265 3.72984 4.31306 3.68598 4.31306H3.11649V2.03509C3.11649 1.9974 3.10964 1.96108 3.09456 1.92613C3.08017 1.89118 3.05961 1.86034 3.03289 1.83361C3.00616 1.80689 2.97532 1.78633 2.94106 1.77194C2.9061 1.75755 2.86978 1.75001 2.83209 1.75001C2.67379 1.7548 2.52576 1.7178 2.38938 1.63762C2.17283 1.51837 1.94051 1.46081 1.69311 1.4656C1.44503 1.46012 1.21271 1.51769 0.995468 1.63762C0.859092 1.71711 0.711751 1.7548 0.554131 1.75001C0.515753 1.75001 0.479432 1.75755 0.445167 1.77194C0.410216 1.78633 0.379377 1.80689 0.35265 1.83361C0.325923 1.86034 0.305364 1.89118 0.290973 1.92613C0.276581 1.96108 0.269043 1.9974 0.269043 2.03509V3.45848C0.269043 3.49617 0.276581 3.53249 0.290973 3.56744C0.305364 3.60239 0.325923 3.63323 0.35265 3.65996C0.379377 3.68668 0.410216 3.70724 0.445167 3.72163C0.479432 3.73603 0.515753 3.74356 0.554131 3.74356C0.800841 3.74836 1.03247 3.69148 1.24972 3.57224C1.38609 3.49206 1.53412 3.45437 1.69311 3.45848C1.85142 3.45368 1.99876 3.49137 2.13513 3.57087C2.26534 3.64008 2.40309 3.68805 2.54769 3.71615V4.31306H1.97751C1.93365 4.31306 1.89185 4.32265 1.85279 4.34184C1.81304 4.36103 1.78014 4.38775 1.75273 4.4227C1.72601 4.45697 1.70819 4.49603 1.69928 4.53852C1.68968 4.5817 1.69037 4.62418 1.70133 4.66667L1.98642 5.80565C2.00218 5.86939 2.03576 5.92079 2.08716 5.96122C2.13856 6.00097 2.19681 6.02153 2.2626 6.02153H2.547V6.87542H0.838533C0.814547 6.87542 0.790562 6.87884 0.766576 6.88501C0.743276 6.89049 0.721346 6.90009 0.700101 6.91174C0.678857 6.92339 0.658983 6.93778 0.64185 6.95423C0.624032 6.97136 0.608955 6.98986 0.595934 7.01042C0.583599 7.03098 0.573319 7.05291 0.566466 7.07621C0.558928 7.09951 0.554816 7.1235 0.554131 7.14748C0.55276 7.17147 0.554816 7.19546 0.559613 7.21944C0.565096 7.24343 0.572634 7.26604 0.583599 7.28729C0.761093 7.7019 0.846071 8.13364 0.838533 8.58389C0.844016 9.03413 0.759037 9.46588 0.583599 9.88049C0.572634 9.90242 0.565096 9.92503 0.559613 9.94902C0.554816 9.97232 0.55276 9.99631 0.554131 10.021C0.554816 10.045 0.558928 10.0689 0.566466 10.0916C0.573319 10.1149 0.583599 10.1368 0.595934 10.1574C0.608955 10.1779 0.624032 10.1971 0.64185 10.2135C0.658983 10.2307 0.678857 10.2451 0.700101 10.2567C0.721346 10.2684 0.743276 10.2773 0.766576 10.2834C0.790562 10.2896 0.814547 10.2924 0.838533 10.2924H2.547V11.7164H0.838533C0.773429 11.7164 0.715178 11.7363 0.663095 11.7767C0.611696 11.8165 0.578116 11.8686 0.562354 11.9316L0.277267 13.0706C0.271784 13.0939 0.269043 13.1165 0.269043 13.1398C0.269043 13.2673 0.290288 13.3906 0.331406 13.5106C0.37321 13.6312 0.432831 13.7408 0.510956 13.8416C0.589767 13.9416 0.681598 14.0259 0.788506 14.0951C0.894728 14.1643 1.00986 14.2144 1.13322 14.2452C1.14898 14.4398 1.18256 14.631 1.23464 14.8195C1.28604 15.0073 1.35457 15.1889 1.43955 15.3643C1.52521 15.5398 1.62595 15.7056 1.74245 15.8618C1.85896 16.0188 1.98916 16.1627 2.13239 16.295C2.27562 16.4272 2.42982 16.5451 2.59497 16.6486C2.76082 16.7521 2.9342 16.8398 3.11581 16.9104C3.29741 16.9816 3.48382 17.0358 3.6757 17.0721C3.8669 17.1077 4.06016 17.1262 4.25547 17.1262H11.3744C11.5067 17.1194 11.6376 17.1016 11.7678 17.0728C11.8973 17.0447 12.0234 17.0063 12.1468 16.957C12.2701 16.9083 12.3894 16.8501 12.5031 16.7815C12.6169 16.7137 12.7245 16.6369 12.8259 16.5513C12.928 16.4663 13.0219 16.3731 13.1083 16.2723C13.1946 16.1716 13.2727 16.0647 13.342 15.9516C13.4112 15.8379 13.4708 15.72 13.5208 15.5973C13.5709 15.474 13.6106 15.3479 13.6401 15.219L14.1588 13.9217L17.1872 12.545C17.2379 12.5217 17.2784 12.4867 17.3085 12.4401C17.3387 12.3928 17.3537 12.3414 17.3537 12.2859V11.4313C17.3537 11.3902 17.3455 11.3512 17.3284 11.3142C17.3113 11.2765 17.2873 11.2443 17.2564 11.2175C17.2256 11.1901 17.1906 11.1709 17.1516 11.1593C17.1118 11.1469 17.0721 11.1442 17.0317 11.1497L15.0758 11.4122V10.008H16.4999C16.554 10.008 16.604 9.99425 16.6506 9.96547C16.6965 9.93737 16.7315 9.89899 16.7562 9.85034C16.972 9.35623 17.0769 8.83882 17.0693 8.29949C17.07 7.9116 17.0159 7.53194 16.9069 7.16051H17.3537V6.59102H15.0758ZM14.3487 5.33964C14.2411 5.28276 14.1287 5.23959 14.0101 5.21081C13.8923 5.18134 13.7723 5.16695 13.651 5.16695C13.5297 5.16695 13.4098 5.18134 13.2919 5.21081C13.1741 5.23959 13.061 5.28276 12.9534 5.33964C12.9027 5.36637 12.8506 5.38967 12.7971 5.40955V4.57279C12.9411 4.54469 13.0781 4.49535 13.2076 4.42545C13.3461 4.35006 13.4934 4.31306 13.6503 4.31306C13.8073 4.31306 13.9553 4.35006 14.0931 4.42545C14.2226 4.49603 14.3603 4.54537 14.5056 4.57347V5.41023C14.4515 5.38967 14.3994 5.36637 14.3487 5.33964ZM7.7992 1.63762C7.69229 1.58074 7.57921 1.53825 7.46134 1.50878C7.34347 1.48 7.22354 1.46492 7.10155 1.46492C6.98025 1.46492 6.86033 1.48 6.74245 1.50878C6.62458 1.53825 6.5115 1.58074 6.40391 1.63762C6.26685 1.71231 6.11951 1.75001 5.96257 1.75001C5.80632 1.75001 5.65898 1.71231 5.52124 1.63762C5.39171 1.56703 5.25465 1.51769 5.11005 1.48959V0.65283C5.16351 0.672704 5.21559 0.69669 5.2663 0.723417C5.3739 0.779612 5.48629 0.822786 5.60416 0.852255C5.72203 0.881037 5.84196 0.895429 5.96326 0.895429C6.08456 0.895429 6.2038 0.881037 6.32167 0.852255C6.43955 0.822786 6.55262 0.779612 6.65953 0.723417C6.79796 0.648033 6.9453 0.611027 7.10224 0.611027C7.25917 0.611027 7.4072 0.648033 7.54495 0.723417C7.67447 0.794003 7.81222 0.843346 7.9575 0.871443V1.7082C7.90336 1.68833 7.85059 1.66434 7.7992 1.63762ZM6.70613 5.16695C6.78631 4.88803 6.82332 4.60294 6.81852 4.31306C6.82332 4.02248 6.78631 3.7374 6.70613 3.45848H10.0813C10.1985 3.73123 10.2492 4.01632 10.2355 4.31306C10.2492 4.60911 10.1985 4.8942 10.0813 5.16695H6.70613ZM6.0311 11.1469C6.17433 10.3945 6.24698 9.63515 6.24903 8.86898C6.25383 8.19738 6.18667 7.53263 6.04755 6.87542H10.3033C10.4541 7.53126 10.5267 8.196 10.5199 8.86898C10.5178 9.63515 10.4417 10.3952 10.2923 11.1469H6.0311ZM2.38938 3.06168C2.17283 2.94176 1.94051 2.88419 1.69311 2.88899C1.44503 2.88419 1.21271 2.94176 0.995468 3.06168C0.944756 3.08841 0.892672 3.11171 0.839218 3.13159V2.29483C0.983133 2.26741 1.12019 2.21876 1.24972 2.14886C1.38609 2.06799 1.53412 2.0303 1.69311 2.03509C1.85073 2.0303 1.99807 2.06867 2.13445 2.14886C2.26466 2.21876 2.40172 2.26741 2.547 2.29551V3.13227C2.49286 3.11171 2.4401 3.08841 2.38938 3.06168ZM2.48464 5.45203L2.3421 4.88254H3.3214L3.17886 5.45203H2.48464ZM1.24629 9.72287C1.35457 9.35143 1.40871 8.97177 1.40802 8.58389C1.40871 8.19669 1.35457 7.81703 1.24629 7.44491H4.35005C4.47888 7.8136 4.54193 8.19326 4.54056 8.58389C4.54125 8.97451 4.47751 9.35417 4.34936 9.72287H1.24629ZM16.7843 11.7575V12.1023L13.8491 13.4365L12.4565 13.7155L12.5682 14.2733L13.4763 14.0917C13.4763 14.0917 13.0754 15.1128 13.0699 15.1334H11.3744V15.7029H12.8136C12.7361 15.8262 12.6457 15.9393 12.5422 16.0414C12.438 16.1428 12.3236 16.2312 12.1982 16.3052C12.0728 16.3799 11.9405 16.4382 11.8014 16.4807C11.6623 16.5232 11.5197 16.5485 11.3744 16.5567H4.25547C4.07592 16.5567 3.89774 16.5382 3.72162 16.5006C3.54618 16.4629 3.37622 16.4067 3.21175 16.3333C3.04796 16.26 2.89308 16.1696 2.7478 16.0633C2.6032 15.9571 2.47025 15.8372 2.35101 15.7029H3.40158V15.1334H1.96312C1.82812 14.8634 1.74314 14.579 1.70956 14.2788H2.547V13.7093H1.40802C1.33538 13.71 1.26479 13.6963 1.19695 13.6696C1.1291 13.6428 1.0688 13.6038 1.01603 13.5537C0.963259 13.5037 0.921455 13.4461 0.890616 13.3797C0.859778 13.3139 0.842645 13.2447 0.838533 13.1713L1.06126 12.2859H2.547V12.5703C2.547 12.608 2.55454 12.6443 2.56893 12.6793C2.58332 12.7142 2.60388 12.7451 2.63061 12.7718C2.65734 12.7985 2.68818 12.8191 2.72313 12.8335C2.75739 12.8479 2.79371 12.8554 2.83209 12.8554H12.6758C12.7396 12.8554 12.7965 12.8362 12.8472 12.7978C12.8979 12.7595 12.9321 12.7101 12.95 12.6491L13.0617 12.2585L16.7843 11.7575ZM16.3087 9.43847H13.2049C13.3125 9.06634 13.3666 8.68668 13.3666 8.29949C13.3666 7.91229 13.3125 7.53263 13.2049 7.16051H16.3087C16.4361 7.5292 16.4992 7.90886 16.4992 8.29949C16.4992 8.68943 16.4361 9.06909 16.3087 9.43847Z" fill="white"/>
</svg>
